<svg preserveAspectRatio="none" width="100%" height="100%" overflow="visible" style="display: block;" viewBox="0 0 20 20" fill="none" xmlns="http://www.w3.org/2000/svg">
<g id="Frame 13999">
<path id="Vector" d="M18 9.49942V16.9994C18 17.1652 17.9342 17.3242 17.8169 17.4414C17.6997 17.5586 17.5408 17.6244 17.375 17.6244H13C12.8342 17.6244 12.6753 17.5586 12.5581 17.4414C12.4408 17.3242 12.375 17.1652 12.375 16.9994V12.9369C12.375 12.854 12.3421 12.7746 12.2835 12.7159C12.2249 12.6573 12.1454 12.6244 12.0625 12.6244H8.9375C8.85462 12.6244 8.77513 12.6573 8.71653 12.7159C8.65792 12.7746 8.625 12.854 8.625 12.9369V16.9994C8.625 17.1652 8.55915 17.3242 8.44194 17.4414C8.32473 17.5586 8.16576 17.6244 8 17.6244H3.625C3.45924 17.6244 3.30027 17.5586 3.18306 17.4414C3.06585 17.3242 3 17.1652 3 16.9994V9.49942C3.00015 9.16796 3.13195 8.85013 3.36641 8.61583L9.61641 2.36583C9.8508 2.13158 10.1686 2 10.5 2C10.8314 2 11.1492 2.13158 11.3836 2.36583L17.6336 8.61583C17.868 8.85013 17.9998 9.16796 18 9.49942Z" fill="var(--fill-0, #C9BFAF)"/>
</g>
</svg>
