<svg preserveAspectRatio="none" width="100%" height="100%" overflow="visible" style="display: block;" viewBox="0 0 240 46.8701" fill="none" xmlns="http://www.w3.org/2000/svg">
<g id="Logo - traced subline 1" clip-path="url(#clip0_0_18)">
<path id="Vector" fill-rule="evenodd" clip-rule="evenodd" d="M20.9442 0.135217C11.7604 1.17464 4.08432 7.3587 1.17161 16.0646C0.388117 18.4062 0.13534 19.887 0.0467893 22.6525C-0.0969085 27.1415 0.690687 30.6836 2.66045 34.4064C5.97673 40.6746 11.7639 44.9989 18.8913 46.5347C20.1437 46.8046 20.7238 46.8444 23.4076 46.8444C26.0895 46.8444 26.67 46.8047 27.9073 46.5363C33.1607 45.3968 37.6102 42.8507 40.9459 39.0754C49.0932 29.8545 48.8208 16.0818 40.3168 7.25589C37.0429 3.85806 33.0803 1.61348 28.6026 0.620341C25.8738 0.0150368 23.3939 -0.14203 20.9442 0.135217ZM21.5298 1.63141C17.8743 1.93139 13.9403 3.3547 10.8364 5.50045C9.50155 6.42327 7.17844 8.64867 6.10056 10.0371C2.88678 14.1769 1.34907 19.0098 1.55054 24.3375C1.63689 26.6197 1.90008 28.2236 2.49359 30.0855C4.93179 37.7346 11.1597 43.3157 19.165 45.0257C20.3848 45.2863 21.0261 45.3331 23.4075 45.3354C26.5698 45.3384 27.8453 45.1414 30.524 44.2352C38.3702 41.5814 44.088 34.594 45.1768 26.3286C45.4357 24.3634 45.2674 20.5091 44.8449 18.7327C43.4965 13.0612 40.3565 8.46834 35.6625 5.30138C32.5303 3.18805 28.9666 1.94814 25.1051 1.62833C23.3295 1.48121 23.3625 1.48115 21.5298 1.63141ZM22.1022 8.75768C16.413 9.35628 12.5333 12.3546 10.4344 17.7748C9.67497 19.7356 9.52306 20.6925 9.52198 23.5227C9.52102 26.0635 9.54126 26.2701 9.94473 27.8336C10.7108 30.802 11.5952 32.5102 13.263 34.2435C14.7464 35.785 16.4393 36.8477 18.7118 37.6641C22.5198 39.0318 28.3155 38.6919 31.4697 36.9158C34.8903 34.9896 37.162 31.5505 37.5834 27.6607L37.6764 26.8033L33.3925 26.8395L29.1087 26.8757L28.9306 27.6594C28.5507 29.3325 27.5951 30.6517 26.3064 31.2822C25.6287 31.6138 25.3762 31.6598 24.2317 31.6601C22.6345 31.6605 21.7602 31.3891 20.8897 30.6229C19.0445 28.9985 18.2815 24.5373 19.1489 20.4434C19.5147 18.7167 19.9057 17.7678 20.5555 17.0297C21.4109 16.0581 22.2577 15.6842 23.7642 15.613C26.4467 15.4864 28.0769 16.5774 28.7811 18.9706L29.0735 19.9645H37.5037L37.5019 19.6565C37.4979 18.9693 36.9636 16.8154 36.5518 15.8262C35.1674 12.5007 32.6453 10.415 28.5861 9.23857C26.6077 8.66528 24.4797 8.50753 22.1022 8.75768Z" fill="var(--fill-0, white)"/>
<g id="Vector_2">
<path d="M90.1943 13.4371C90.1943 12.3205 90.2365 11.3649 90.2881 11.3133C90.3397 11.2617 91.7099 11.2359 93.3332 11.2562L96.2843 11.293L96.3599 15.4671H90.1943V13.4371Z" fill="var(--fill-0, white)"/>
<path d="M142.462 15.0907C142.779 13.9052 143.07 12.8274 143.107 12.6958C143.169 12.4798 143.403 12.4563 145.493 12.4563H147.81V17.2462H151.095V21.4887H147.798L147.838 25.1274L147.879 28.7661L148.263 29.0962C148.607 29.3921 148.774 29.4263 149.875 29.4263H151.102L151.026 33.1838L150.274 33.3587C149.86 33.4549 148.811 33.5727 147.943 33.6206C145.337 33.7642 143.576 33.2955 142.583 32.1934C141.718 31.2328 141.652 30.7821 141.652 25.8432V21.4887H139.462V17.2462H141.885L142.462 15.0907Z" fill="var(--fill-0, white)"/>
<path d="M105.746 19.19C106.465 18.2714 108.405 17.2512 109.949 16.9791C110.904 16.8108 112.545 16.9419 113.455 17.2592C114.825 17.7369 115.848 18.8316 116.357 20.3654C116.65 21.2473 116.664 21.5194 116.713 27.2709L116.764 33.2583H110.598L110.558 28.0236C110.518 22.8613 110.513 22.7821 110.208 22.2919C109.813 21.6559 109.282 21.4381 108.321 21.5178C107.518 21.5844 107.043 21.8488 106.557 22.4993C106.285 22.8629 106.273 23.0704 106.236 28.0677L106.197 33.2583H100.048V17.2462H105.083L105.251 18.4274L105.419 19.6086L105.746 19.19Z" fill="var(--fill-0, white)"/>
<path d="M153.831 20.0575C154.663 18.3542 156.673 17.2894 159.648 16.9743C161.098 16.8208 161.723 16.8225 163.07 16.9844C166.696 17.42 168.822 19.0037 169.117 21.4889L169.198 22.173H163.412L163.407 21.8651C163.397 21.118 162.576 20.6676 161.224 20.6676C159.935 20.6676 159.306 20.9275 159.306 21.4605C159.306 22.0687 159.697 22.304 161.175 22.5858C161.916 22.727 163.3 22.9921 164.252 23.1751C167.011 23.7054 168.393 24.5004 169.116 25.9723C169.461 26.6748 169.5 26.8948 169.489 28.0578C169.461 30.9834 168.005 32.5508 164.575 33.3464C163.05 33.7001 159.672 33.7022 158.172 33.3505C155.162 32.6447 153.011 30.6313 153.011 28.5211V28.0578H158.578L158.74 28.5984C159.03 29.5657 160.23 30.0804 161.844 29.9297C163.233 29.8001 163.85 29.3384 163.617 28.6037C163.475 28.1581 162.887 27.952 160.308 27.4432C156.51 26.6938 155.801 26.4384 154.696 25.4198C153.671 24.4744 153.489 23.994 153.494 22.2415C153.498 20.9318 153.542 20.6478 153.831 20.0575Z" fill="var(--fill-0, white)"/>
<path d="M90.1942 33.2582V25.2522V17.2462H96.3527V33.2582H90.1942Z" fill="var(--fill-0, white)"/>
<path fill-rule="evenodd" clip-rule="evenodd" d="M55.2781 16.9735C51.4139 17.4177 49.0068 19.1887 49.0024 21.5914L49.001 22.3099H54.9659L55.0969 21.8703C55.2945 21.2069 55.9572 20.8847 57.1375 20.8782C57.866 20.8743 58.219 20.9409 58.5808 21.1512C59.1463 21.4798 59.5383 22.1835 59.5385 22.8704L59.5388 23.3625L57.5202 23.4537C53.0528 23.6553 50.9053 24.2907 49.5722 25.8051C48.8653 26.6082 48.5107 27.3372 48.5107 29.7774C48.5107 30.5672 49.0442 33.6658 54.133 33.6645C56.1592 33.6639 57.9776 33.1359 59.4876 32.1098L60.0051 31.7582L60.4017 32.2393C61.2359 33.2515 62.937 33.7603 65.0562 33.6318C65.763 33.5888 66.6125 33.4436 66.9974 33.2999L67.6816 33.0444V29.4948L66.9306 29.4522C66.516 29.4288 66.2406 29.4254 66.0578 29.2937C65.6807 29.0219 65.6971 28.2042 65.6964 25.539C65.6956 21.7987 65.5986 20.8427 65.1228 19.8904C64.4932 18.6296 62.869 17.6545 60.633 17.1951C59.3354 16.9285 56.6407 16.8169 55.2781 16.9735ZM54.6119 28.4289C54.6119 27.5603 55.3016 26.9842 56.7662 26.6292C57.1997 26.5243 58.0007 26.4331 58.5465 26.4268L59.5387 26.4155V27.2046C59.5387 27.6974 59.4488 28.1586 59.2992 28.433C58.3005 30.2656 54.6119 30.2623 54.6119 28.4289Z" fill="var(--fill-0, white)"/>
<path fill-rule="evenodd" clip-rule="evenodd" d="M69.8968 11.3133C69.8452 11.3649 69.8029 16.3236 69.8029 22.3327V33.2583H74.8164L75.0546 32.2486L75.2926 31.2389L76.0136 31.9598C77.1704 33.1167 78.5758 33.6688 80.3627 33.6688C83.7414 33.6688 86.0702 31.7671 86.8222 28.3938C87.7465 24.2478 86.7588 19.8926 84.5033 18.1691C82.3261 16.5052 78.635 16.4605 76.6195 18.0737C76.3415 18.2961 76.0808 18.4779 76.0401 18.4779C75.9993 18.4779 75.9495 16.8614 75.9295 14.8855L75.8929 11.293L72.9418 11.2562C71.3185 11.236 69.9483 11.2617 69.8968 11.3133ZM75.8986 25.3973C75.8916 23.3451 76.2588 22.3514 77.2462 21.7494C77.8198 21.3996 79.1432 21.3956 79.7954 21.7417C80.0711 21.888 80.4147 22.2491 80.6099 22.5971C80.9078 23.1284 80.954 23.4027 81.0018 24.9242C81.0876 27.6528 80.6586 28.6352 79.2112 29.025C77.9486 29.3651 76.8606 28.8664 76.2813 27.6825C75.9398 26.9845 75.9033 26.7661 75.8986 25.3973Z" fill="var(--fill-0, white)"/>
<path fill-rule="evenodd" clip-rule="evenodd" d="M126.803 16.9916C123.095 17.461 120.585 19.5261 119.83 22.7277C119.33 24.8479 119.657 28.0919 120.537 29.7445C121.407 31.3805 123.183 32.6587 125.456 33.2851C126.905 33.6844 130.923 33.7214 132.414 33.349C135.543 32.5676 137.282 30.8324 137.617 28.158L137.714 27.3735H131.661V27.7225C131.661 28.4823 130.989 29.2792 130.11 29.5608C129.348 29.8051 127.744 29.6902 127.077 29.3437C126.453 29.0199 125.855 27.9878 125.718 26.9987L125.637 26.4184L131.626 26.3829L137.615 26.3471L137.595 24.9028C137.565 22.6589 136.96 20.7872 135.845 19.4845C134.167 17.524 130.526 16.5202 126.803 16.9916ZM125.987 22.4815C126.335 21.6487 126.903 21.1857 127.898 20.9246C128.552 20.7527 129.694 20.8952 130.274 21.221C130.886 21.5648 131.388 22.3567 131.388 22.9785V23.4047H128.582C126.581 23.4047 125.914 23.422 125.799 23.1787C125.735 23.0432 125.843 22.8268 125.987 22.4815Z" fill="var(--fill-0, white)"/>
</g>
<path id="Vector_3" fill-rule="evenodd" clip-rule="evenodd" d="M194.295 11.3132C194.243 11.3648 194.201 16.3235 194.201 22.3327V33.2582H200.361L200.291 11.293L197.34 11.2562C195.717 11.2359 194.347 11.2617 194.295 11.3132ZM172.715 22.8573V33.2582H179.558V26.5523H182.625C185.958 26.5523 186.664 26.4381 187.937 25.6918C189.268 24.9116 190.523 23.1469 190.924 21.4887C191.158 20.5256 191.159 18.4901 190.926 17.5199C190.514 15.7987 189.279 14.1252 187.769 13.2414C186.489 12.4925 186.089 12.4563 179.118 12.4563H172.715V22.8573ZM230.126 16.9742C227.15 17.2893 225.141 18.3542 224.308 20.0575C224.019 20.6477 223.976 20.9317 223.972 22.2414C223.966 23.994 224.148 24.4743 225.174 25.4197C226.279 26.4383 226.987 26.6937 230.786 27.4431C233.365 27.952 233.952 28.1581 234.094 28.6037C234.327 29.3383 233.71 29.8 232.322 29.9297C230.708 30.0803 229.508 29.5656 229.218 28.5983L229.056 28.0578H223.488V28.521C223.488 30.6312 225.64 32.6446 228.649 33.3505C230.149 33.7022 233.528 33.7 235.052 33.3464C238.482 32.5507 239.939 30.9833 239.967 28.0577C239.978 26.8948 239.939 26.6747 239.593 25.9722C238.871 24.5003 237.488 23.7053 234.729 23.175C233.778 22.992 232.393 22.7269 231.652 22.5857C230.174 22.3039 229.783 22.0686 229.783 21.4605C229.783 20.9274 230.412 20.6675 231.702 20.6675C233.053 20.6675 233.874 21.1179 233.885 21.865L233.889 22.1729H239.675L239.594 21.4888C239.3 19.0037 237.174 17.42 233.547 16.9843C232.2 16.8224 231.575 16.8207 230.126 16.9742M204.088 23.2336C204.147 29.628 204.165 29.8086 204.892 31.2359C206.421 34.2383 211.733 34.5096 214.667 31.7352L215.381 31.0592L215.459 31.5087C215.502 31.7558 215.578 32.2505 215.627 32.6081L215.718 33.2582H220.751V17.241L214.661 17.3146L214.592 22.4467C214.526 27.4222 214.515 27.5934 214.226 28.0577C213.793 28.7523 213.168 29.0758 212.256 29.0778C211.313 29.08 210.832 28.7921 210.478 28.0128C210.239 27.4857 210.219 27.051 210.216 22.344L210.213 17.2462H204.032L204.088 23.2336M179.558 19.5727V21.6256H181.136C182.962 21.6256 183.52 21.4567 183.933 20.7784C184.272 20.2225 184.309 18.9287 184.003 18.3365C183.652 17.6572 183.193 17.5199 181.275 17.5199H179.558V19.5727Z" fill="var(--fill-0, #B23A3A)"/>
</g>
<defs>
<clipPath id="clip0_0_18">
<rect width="240" height="46.8701" fill="white"/>
</clipPath>
</defs>
</svg>
