<svg preserveAspectRatio="none" width="100%" height="100%" overflow="visible" style="display: block;" viewBox="0 0 48 48" fill="none" xmlns="http://www.w3.org/2000/svg">
<g id="Frame">
<path id="Vector" d="M38.295 9.70125C38.5057 9.91219 38.624 10.1981 38.624 10.4963C38.624 10.7944 38.5057 11.0803 38.295 11.2913L27.795 21.7913C27.5833 21.9993 27.298 22.1152 27.0012 22.1138C26.7045 22.1125 26.4202 21.9939 26.2105 21.7839C26.0008 21.5739 25.8825 21.2895 25.8815 20.9928C25.8804 20.696 25.9967 20.4108 26.205 20.1994L36.705 9.69938C36.9162 9.48895 37.2023 9.37095 37.5004 9.3713C37.7985 9.37165 38.0843 9.49033 38.295 9.70125ZM46.125 10.9519C46.1282 12.1446 45.8948 13.3261 45.4385 14.4281C44.9821 15.5301 44.3118 16.5306 43.4663 17.3719L33.4838 27.3544C33.2408 27.5987 32.9518 27.7925 32.6335 27.9244C32.3152 28.0564 31.9739 28.1239 31.6294 28.1231H28.5C28.4005 28.1231 28.3052 28.1626 28.2348 28.233C28.1645 28.3033 28.125 28.3987 28.125 28.4981V31.6538C28.1239 32.2256 27.937 32.7817 27.5925 33.2381C27.5612 33.279 27.5274 33.3178 27.4913 33.3544L25.9913 34.8544C25.7475 35.0982 25.4581 35.2915 25.1396 35.4235C24.8211 35.5554 24.4797 35.6233 24.135 35.6233C23.7903 35.6233 23.4489 35.5554 23.1304 35.4235C22.8119 35.2915 22.5225 35.0982 22.2787 34.8544L18.5062 31.0819L3.795 45.795C3.58174 45.9937 3.29967 46.1019 3.00822 46.0968C2.71676 46.0916 2.43869 45.9736 2.23257 45.7674C2.02645 45.5613 1.90838 45.2832 1.90324 44.9918C1.8981 44.7003 2.00628 44.4183 2.205 44.205L16.9163 29.4919L13.1437 25.7194C12.9 25.4756 12.7066 25.1862 12.5747 24.8677C12.4427 24.5492 12.3748 24.2079 12.3748 23.8631C12.3748 23.5184 12.4427 23.177 12.5747 22.8585C12.7066 22.54 12.9 22.2506 13.1437 22.0069L14.6437 20.5069C14.6794 20.4697 14.7183 20.4358 14.76 20.4056C15.2162 20.0609 15.7726 19.8746 16.3444 19.875H19.5C19.5995 19.875 19.6948 19.8355 19.7652 19.7652C19.8355 19.6948 19.875 19.5995 19.875 19.5V16.3688C19.8742 16.0239 19.9417 15.6823 20.0736 15.3637C20.2056 15.0451 20.3993 14.7558 20.6437 14.5125L30.6244 4.53C31.8944 3.26033 33.5124 2.39576 35.2738 2.0456C37.0352 1.69544 38.8609 1.87543 40.52 2.56279C42.1791 3.25015 43.5971 4.41403 44.5948 5.90726C45.5925 7.40049 46.125 9.15602 46.125 10.9519ZM43.875 10.9519C43.8746 9.60129 43.4739 8.28112 42.7234 7.15822C41.973 6.03532 40.9065 5.16011 39.6587 4.64319C38.411 4.12627 37.038 3.99085 35.7133 4.25404C34.3886 4.51724 33.1716 5.16723 32.2163 6.12188L22.2338 16.1025C22.199 16.1375 22.1715 16.1791 22.1528 16.2248C22.1342 16.2705 22.1247 16.3194 22.125 16.3688V19.5C22.125 19.8447 22.0571 20.1861 21.9252 20.5045C21.7933 20.823 21.5999 21.1124 21.3562 21.3562C21.1124 21.5999 20.823 21.7933 20.5045 21.9252C20.1861 22.0571 19.8447 22.125 19.5 22.125H16.3444C16.279 22.1248 16.2145 22.1409 16.1569 22.1719L14.73 23.5988C14.6951 23.6336 14.6675 23.6749 14.6486 23.7205C14.6297 23.766 14.62 23.8148 14.62 23.8641C14.62 23.9133 14.6297 23.9621 14.6486 24.0077C14.6675 24.0532 14.6951 24.0945 14.73 24.1294L23.8669 33.2662C23.9371 33.3361 24.0322 33.3753 24.1312 33.3753C24.2303 33.3753 24.3254 33.3361 24.3956 33.2662L25.8244 31.8394C25.8553 31.7817 25.8714 31.7173 25.8712 31.6519V28.5C25.8712 27.8038 26.1478 27.1361 26.6401 26.6438C27.1324 26.1516 27.8001 25.875 28.4963 25.875H31.6256C31.7249 25.8746 31.82 25.8348 31.89 25.7644L41.8706 15.7838C42.5078 15.151 43.0131 14.3982 43.3571 13.5687C43.7012 12.7393 43.8772 11.8498 43.875 10.9519Z" fill="var(--fill-0, #2E2E2E)"/>
</g>
</svg>
