<svg preserveAspectRatio="none" width="100%" height="100%" overflow="visible" style="display: block;" viewBox="0 0 269.962 48.2613" fill="none" xmlns="http://www.w3.org/2000/svg">
<g id="Bedrosians 2">
<path id="Vector" d="M76.9275 9.38086C78.3073 9.38086 79.5695 9.5046 80.708 9.74591C81.8465 9.98722 82.8241 10.3894 83.6346 10.9463C84.4452 11.5031 85.0762 12.2394 85.5279 13.1613C85.9735 14.0833 86.1962 15.2217 86.1962 16.5768C86.1962 18.0432 85.8621 19.2621 85.2001 20.2335C84.538 21.2111 83.5542 22.0093 82.2548 22.6342C84.043 23.1477 85.3795 24.0511 86.258 25.338C87.1367 26.6251 87.5822 28.178 87.5822 29.991C87.5822 31.4574 87.2976 32.7196 86.7283 33.7901C86.1591 34.8604 85.3919 35.7329 84.4329 36.4135C83.4676 37.0942 82.3724 37.5953 81.1411 37.917C79.9099 38.2449 78.6414 38.4058 77.3421 38.4058H63.2781V9.38086H76.9275ZM76.117 21.1307C77.2555 21.1307 78.1897 20.8585 78.9199 20.3202C79.65 19.7756 80.015 18.8971 80.015 17.6782C80.015 17.0037 79.8913 16.4468 79.65 16.0138C79.4087 15.5806 79.0807 15.2402 78.6724 14.999C78.264 14.7577 77.7999 14.5844 77.2679 14.4916C76.742 14.3988 76.1912 14.3493 75.622 14.3493H69.645V21.1369H76.117V21.1307ZM76.482 33.4497C77.1069 33.4497 77.7009 33.3878 78.2702 33.2642C78.8394 33.1404 79.3405 32.9361 79.7737 32.6516C80.2068 32.367 80.5533 31.9833 80.8131 31.4945C81.0731 31.0057 81.1968 30.3809 81.1968 29.6259C81.1968 28.1348 80.776 27.0706 79.9346 26.4332C79.0931 25.7959 77.9856 25.4804 76.5996 25.4804H69.645V33.4497H76.482Z" fill="var(--fill-0, white)"/>
<path id="Vector_2" d="M95.4277 33.3685C96.294 34.2101 97.5438 34.6307 99.1649 34.6307C100.328 34.6307 101.33 34.3399 102.172 33.7584C103.013 33.1767 103.527 32.558 103.719 31.9083H108.799C107.988 34.4265 106.738 36.2333 105.062 37.316C103.378 38.3989 101.349 38.9433 98.9607 38.9433C97.3087 38.9433 95.8175 38.6773 94.4872 38.1514C93.157 37.6255 92.037 36.8706 91.1151 35.8931C90.1933 34.9153 89.4817 33.7522 88.9806 32.3971C88.4793 31.042 88.2256 29.5509 88.2256 27.9236C88.2256 26.3521 88.4854 24.8857 88.9991 23.5306C89.5127 22.1755 90.2428 21.0062 91.1956 20.0161C92.1423 19.0262 93.2745 18.2466 94.5925 17.6774C95.9041 17.1081 97.3643 16.8235 98.9607 16.8235C100.749 16.8235 102.308 17.1701 103.638 17.8567C104.969 18.5497 106.058 19.4779 106.911 20.6411C107.765 21.8044 108.384 23.1346 108.762 24.6258C109.139 26.117 109.275 27.6761 109.17 29.3034H94.0046C94.0851 31.172 94.5615 32.5271 95.4277 33.3685ZM101.949 22.3055C101.256 21.5445 100.211 21.167 98.7998 21.167C97.878 21.167 97.1106 21.3218 96.5044 21.6373C95.8917 21.9466 95.4091 22.3364 95.038 22.7943C94.6728 23.2584 94.413 23.741 94.2646 24.2607C94.116 24.7743 94.0295 25.2383 93.9984 25.6405H103.391C103.125 24.1803 102.642 23.0666 101.949 22.3055Z" fill="var(--fill-0, white)"/>
<path id="Vector_3" d="M125.474 35.7266C124.793 36.8651 123.908 37.6818 122.813 38.1829C121.718 38.6841 120.475 38.9378 119.095 38.9378C117.523 38.9378 116.143 38.6346 114.949 38.0222C113.755 37.4096 112.771 36.5867 112.004 35.5409C111.231 34.4953 110.649 33.3012 110.253 31.9461C109.857 30.5911 109.665 29.1804 109.665 27.7202C109.665 26.3095 109.863 24.9482 110.253 23.6365C110.643 22.3247 111.231 21.1615 112.004 20.1592C112.777 19.1568 113.743 18.3525 114.912 17.7399C116.075 17.1273 117.43 16.8242 118.977 16.8242C120.221 16.8242 121.409 17.0902 122.535 17.6162C123.661 18.1421 124.546 18.9217 125.195 19.955H125.276V9.38697H131.049V38.4119H125.561V35.7266H125.474ZM125.226 25.3381C125.066 24.5398 124.787 23.8344 124.391 23.2219C123.995 22.6093 123.488 22.1205 122.869 21.737C122.244 21.3595 121.458 21.1677 120.512 21.1677C119.565 21.1677 118.761 21.3595 118.111 21.737C117.461 22.1143 116.942 22.6155 116.545 23.2405C116.15 23.8655 115.865 24.577 115.692 25.3752C115.512 26.1733 115.426 27.0086 115.426 27.8748C115.426 28.6854 115.518 29.5021 115.71 30.3126C115.902 31.1232 116.205 31.8533 116.626 32.4905C117.047 33.1279 117.573 33.6414 118.21 34.0375C118.847 34.4335 119.614 34.6252 120.505 34.6252C121.452 34.6252 122.244 34.4335 122.881 34.056C123.519 33.6785 124.026 33.1712 124.403 32.534C124.781 31.8966 125.053 31.1727 125.214 30.356C125.375 29.5454 125.455 28.704 125.455 27.8377C125.474 26.9715 125.387 26.1362 125.226 25.3381Z" fill="var(--fill-0, white)"/>
<path id="Vector_4" d="M138.845 17.387V21.2913H138.925C139.197 20.6416 139.562 20.0352 140.02 19.4846C140.478 18.9278 141.01 18.4575 141.604 18.0615C142.198 17.6718 142.835 17.3623 143.516 17.1457C144.191 16.9293 144.896 16.8178 145.632 16.8178C146.01 16.8178 146.43 16.8858 146.894 17.022V22.3864C146.622 22.3308 146.3 22.2875 145.917 22.2442C145.539 22.2008 145.168 22.1822 144.822 22.1822C143.764 22.1822 142.873 22.3617 142.136 22.7083C141.406 23.0609 140.812 23.5435 140.367 24.1499C139.921 24.7624 139.6 25.4739 139.414 26.2844C139.222 27.0951 139.129 27.9799 139.129 28.9266V38.3994H133.356V17.387H138.845Z" fill="var(--fill-0, white)"/>
<path id="Vector_5" d="M146.53 23.345C147.044 21.9777 147.774 20.8082 148.727 19.8492C149.673 18.8901 150.812 18.1415 152.143 17.6154C153.473 17.0895 154.963 16.8235 156.616 16.8235C158.267 16.8235 159.765 17.0895 161.107 17.6154C162.451 18.1415 163.596 18.8901 164.541 19.8492C165.488 20.8144 166.224 21.9777 166.739 23.345C167.251 24.7124 167.511 26.2406 167.511 27.9174C167.511 29.6004 167.251 31.1164 166.739 32.4713C166.224 33.8264 165.488 34.9835 164.541 35.9487C163.596 36.9139 162.451 37.6502 161.107 38.1637C159.765 38.6773 158.267 38.9371 156.616 38.9371C154.963 38.9371 153.473 38.6773 152.143 38.1637C150.812 37.6502 149.673 36.9077 148.727 35.9487C147.78 34.9897 147.044 33.8264 146.53 32.4713C146.017 31.1164 145.757 29.6004 145.757 27.9174C145.757 26.2406 146.017 24.7124 146.53 23.345ZM151.778 30.3801C151.938 31.1782 152.217 31.896 152.612 32.5333C153.002 33.1705 153.529 33.6779 154.177 34.0554C154.827 34.4327 155.645 34.6245 156.616 34.6245C157.593 34.6245 158.411 34.4327 159.073 34.0554C159.733 33.6779 160.266 33.1705 160.656 32.5333C161.045 31.896 161.324 31.1782 161.492 30.3801C161.652 29.5818 161.733 28.759 161.733 27.9236C161.733 27.0822 161.652 26.2592 161.492 25.4425C161.33 24.632 161.051 23.9143 160.656 23.2893C160.26 22.6643 159.733 22.157 159.073 21.7673C158.411 21.3774 157.587 21.1794 156.616 21.1794C155.639 21.1794 154.827 21.3774 154.177 21.7673C153.529 22.157 153.008 22.6705 152.612 23.2893C152.217 23.9143 151.944 24.632 151.778 25.4425C151.616 26.253 151.536 27.0822 151.536 27.9236C151.529 28.759 151.61 29.5818 151.778 30.3801Z" fill="var(--fill-0, white)"/>
<path id="Vector_6" d="M174.07 33.1837C174.329 33.6292 174.658 33.9942 175.067 34.2788C175.474 34.5633 175.938 34.7737 176.471 34.9099C176.997 35.046 177.548 35.1141 178.116 35.1141C178.525 35.1141 178.952 35.0647 179.397 34.9718C179.843 34.879 180.252 34.7304 180.617 34.5262C180.982 34.322 181.285 34.0498 181.532 33.7158C181.773 33.3755 181.897 32.9486 181.897 32.435C181.897 31.5687 181.321 30.919 180.17 30.4859C179.02 30.0529 177.412 29.6197 175.35 29.1866C174.509 28.9947 173.693 28.772 172.895 28.5183C172.096 28.2585 171.385 27.9244 170.759 27.5036C170.135 27.0828 169.634 26.5569 169.256 25.9196C168.879 25.2824 168.687 24.5028 168.687 23.5809C168.687 22.2258 168.953 21.112 169.479 20.2459C170.005 19.3796 170.704 18.6928 171.571 18.1916C172.436 17.6904 173.414 17.3378 174.497 17.1336C175.579 16.9294 176.694 16.8305 177.833 16.8305C178.97 16.8305 180.072 16.9418 181.148 17.1584C182.218 17.3749 183.172 17.7399 184.013 18.2534C184.855 18.7671 185.554 19.4538 186.105 20.3077C186.661 21.1616 186.989 22.2382 187.1 23.5374H181.612C181.532 22.4238 181.111 21.6752 180.35 21.2791C179.59 20.8893 178.698 20.6914 177.665 20.6914C177.336 20.6914 176.984 20.7099 176.607 20.7532C176.229 20.7965 175.883 20.8831 175.567 21.0193C175.258 21.1554 174.991 21.3533 174.776 21.607C174.558 21.867 174.447 22.2134 174.447 22.6466C174.447 23.1601 174.64 23.5809 175.017 23.9088C175.394 24.2366 175.889 24.4965 176.501 24.7007C177.115 24.9049 177.807 25.0844 178.593 25.2515C179.379 25.4122 180.176 25.5917 180.994 25.7774C181.835 25.9692 182.651 26.1982 183.451 26.4704C184.248 26.7426 184.96 27.1014 185.585 27.5469C186.209 27.9924 186.711 28.5492 187.088 29.2113C187.465 29.8734 187.657 30.6963 187.657 31.6738C187.657 33.0537 187.379 34.2169 186.823 35.1512C186.265 36.0855 185.541 36.8404 184.644 37.4096C183.748 37.9789 182.727 38.381 181.576 38.6099C180.424 38.8388 179.249 38.9565 178.06 38.9565C176.842 38.9565 175.647 38.8327 174.485 38.5914C173.322 38.35 172.283 37.9418 171.372 37.3725C170.462 36.8033 169.72 36.0484 169.138 35.1141C168.557 34.1798 168.235 33.0042 168.186 31.5996H173.675C173.687 32.1999 173.816 32.7382 174.07 33.1837Z" fill="var(--fill-0, white)"/>
<path id="Vector_7" d="M189.173 14.1385V9.38037H194.946V14.1385H189.173ZM194.946 17.3868V38.4054H189.173V17.3868H194.946Z" fill="var(--fill-0, white)"/>
<path id="Vector_8" d="M197.223 23.8525C197.303 22.4976 197.644 21.3715 198.238 20.4804C198.832 19.5834 199.593 18.8656 200.514 18.3272C201.437 17.7828 202.47 17.3991 203.627 17.1703C204.778 16.9414 205.934 16.8237 207.105 16.8237C208.162 16.8237 209.233 16.8979 210.316 17.0465C211.399 17.195 212.388 17.4858 213.285 17.919C214.183 18.352 214.913 18.9584 215.483 19.7256C216.051 20.499 216.336 21.52 216.336 22.7946V33.7277C216.336 34.6742 216.392 35.5838 216.496 36.4501C216.602 37.3164 216.793 37.966 217.066 38.3991H211.213C211.101 38.0712 211.015 37.7432 210.946 37.403C210.878 37.0626 210.828 36.7161 210.804 36.3635C209.883 37.3101 208.8 37.9783 207.55 38.3558C206.299 38.7332 205.031 38.925 203.726 38.925C202.724 38.925 201.79 38.8013 200.923 38.56C200.057 38.3187 199.295 37.935 198.645 37.4215C197.997 36.908 197.489 36.2583 197.124 35.4725C196.759 34.6867 196.573 33.7524 196.573 32.6696C196.573 31.4754 196.784 30.4916 197.205 29.7244C197.626 28.9572 198.163 28.3384 198.832 27.8744C199.495 27.4165 200.255 27.0701 201.108 26.8411C201.962 26.6122 202.823 26.4265 203.689 26.2905C204.554 26.1543 205.41 26.0492 206.251 25.9625C207.091 25.8821 207.835 25.7583 208.485 25.5975C209.133 25.4366 209.648 25.1953 210.031 24.8859C210.408 24.5765 210.587 24.1186 210.557 23.5247C210.557 22.8997 210.457 22.4047 210.254 22.0397C210.05 21.6746 209.777 21.39 209.442 21.1858C209.103 20.9816 208.712 20.8456 208.262 20.7775C207.815 20.7094 207.332 20.6785 206.82 20.6785C205.681 20.6785 204.784 20.9198 204.134 21.4086C203.485 21.8974 203.107 22.708 202.997 23.8464H197.223V23.8525ZM210.557 28.1219C210.316 28.3384 210.006 28.5055 209.641 28.6292C209.277 28.753 208.88 28.852 208.465 28.9325C208.044 29.0129 207.605 29.0809 207.141 29.1365C206.678 29.1923 206.219 29.2604 205.761 29.3408C205.328 29.4213 204.901 29.5326 204.481 29.6688C204.06 29.8048 203.695 29.9905 203.386 30.2194C203.076 30.4484 202.823 30.7391 202.632 31.0919C202.438 31.4445 202.347 31.89 202.347 32.4345C202.347 32.948 202.438 33.3811 202.632 33.7339C202.823 34.0865 203.076 34.3649 203.404 34.5691C203.732 34.7733 204.11 34.9155 204.542 34.9961C204.975 35.0765 205.422 35.1197 205.885 35.1197C207.023 35.1197 207.903 34.9281 208.527 34.5506C209.153 34.1731 209.61 33.7152 209.907 33.1893C210.204 32.6634 210.39 32.1251 210.457 31.5807C210.525 31.0361 210.557 30.6031 210.557 30.2812V28.1219Z" fill="var(--fill-0, white)"/>
<path id="Vector_9" d="M224.262 17.387V20.3138H224.385C225.115 19.0949 226.069 18.2038 227.231 17.6532C228.396 17.0962 229.589 16.8178 230.809 16.8178C232.355 16.8178 233.617 17.0282 234.608 17.449C235.597 17.8696 236.377 18.4513 236.945 19.2C237.515 19.9486 237.917 20.852 238.146 21.9224C238.375 22.9929 238.493 24.1808 238.493 25.4801V38.4056H232.72V26.5321C232.72 24.7995 232.448 23.5064 231.91 22.6525C231.365 21.7987 230.406 21.3717 229.02 21.3717C227.448 21.3717 226.31 21.842 225.604 22.7763C224.9 23.7106 224.547 25.2512 224.547 27.392V38.4117H218.774V17.387H224.262Z" fill="var(--fill-0, white)"/>
<path id="Vector_10" d="M245.701 33.1838C245.962 33.6293 246.289 33.9942 246.698 34.2788C247.106 34.5634 247.569 34.7738 248.102 34.91C248.628 35.046 249.179 35.1142 249.749 35.1142C250.156 35.1142 250.583 35.0647 251.029 34.9718C251.474 34.8791 251.883 34.7305 252.248 34.5263C252.613 34.3221 252.916 34.0499 253.163 33.7158C253.404 33.3756 253.528 32.9486 253.528 32.4351C253.528 31.5688 252.954 30.9191 251.803 30.486C250.652 30.053 249.043 29.6198 246.983 29.1867C246.141 28.9948 245.324 28.7721 244.526 28.5184C243.728 28.2585 243.016 27.9245 242.392 27.5037C241.766 27.0829 241.265 26.557 240.888 25.9197C240.51 25.2825 240.318 24.5029 240.318 23.581C240.318 22.2259 240.585 21.1121 241.11 20.246C241.636 19.3797 242.336 18.6928 243.202 18.1917C244.067 17.6905 245.046 17.3379 246.129 17.1337C247.212 16.9295 248.325 16.8306 249.464 16.8306C250.602 16.8306 251.703 16.9419 252.78 17.1584C253.851 17.375 254.803 17.74 255.644 18.2535C256.486 18.7672 257.185 19.4539 257.736 20.3078C258.292 21.1617 258.621 22.2382 258.733 23.5375H253.245C253.163 22.4239 252.742 21.6752 251.982 21.2792C251.221 20.8893 250.329 20.6915 249.296 20.6915C248.969 20.6915 248.616 20.71 248.239 20.7533C247.86 20.7966 247.515 20.8832 247.198 21.0193C246.889 21.1555 246.624 21.3534 246.407 21.6071C246.191 21.8671 246.079 22.2135 246.079 22.6467C246.079 23.1602 246.271 23.581 246.648 23.9088C247.025 24.2367 247.521 24.4966 248.133 24.7008C248.746 24.905 249.438 25.0845 250.224 25.2516C251.011 25.4123 251.809 25.5918 252.625 25.7775C253.466 25.9693 254.284 26.1982 255.082 26.4705C255.879 26.7427 256.591 27.1015 257.216 27.547C257.841 27.9925 258.342 28.5493 258.719 29.2114C259.098 29.8735 259.289 30.6963 259.289 31.6739C259.289 33.0538 259.01 34.217 258.454 35.1513C257.897 36.0856 257.173 36.8405 256.276 37.4096C255.379 37.979 254.358 38.381 253.207 38.61C252.056 38.8389 250.88 38.9566 249.693 38.9566C248.473 38.9566 247.28 38.8327 246.115 38.5914C244.953 38.3501 243.914 37.9419 243.004 37.3725C242.095 36.8034 241.351 36.0485 240.771 35.1142C240.188 34.1799 239.867 33.0043 239.817 31.5997H245.306C245.318 32.2 245.447 32.7382 245.701 33.1838Z" fill="var(--fill-0, white)"/>
<path id="Vector_11" d="M260.203 16.5453C260.203 14.7696 261.546 13.4703 263.248 13.4703C264.937 13.4703 266.268 14.7696 266.268 16.5453C266.268 18.2965 264.937 19.6081 263.248 19.6081C261.546 19.6081 260.203 18.2965 260.203 16.5453ZM265.741 16.5453C265.741 15.0357 264.67 13.9343 263.241 13.9343C261.793 13.9343 260.736 15.0357 260.736 16.5453C260.736 18.049 261.793 19.1564 263.241 19.1564C264.677 19.1564 265.741 18.0428 265.741 16.5453ZM261.998 14.9491H263.52C264.138 14.9491 264.652 15.2646 264.652 15.8523C264.652 16.2175 264.497 16.4711 264.052 16.6073V16.6259C264.411 16.7186 264.517 16.8486 264.565 17.1951C264.621 17.5106 264.597 17.9375 264.72 17.9808V18.0675H263.891C263.799 18.0179 263.799 17.6468 263.755 17.3436C263.723 17.0714 263.576 16.9352 263.284 16.9352H262.834V18.0675H261.992V14.9491H261.998ZM262.84 16.3226H263.378C263.668 16.3226 263.817 16.1989 263.817 15.9576C263.817 15.7349 263.693 15.5925 263.384 15.5925H262.84V16.3226Z" fill="var(--fill-0, white)"/>
<path id="Vector_12" fill-rule="evenodd" clip-rule="evenodd" d="M8.72393 9.38086H54.0279C54.8631 9.38086 55.5376 10.0553 55.5376 10.8968V36.995C55.5376 37.8304 54.8631 38.5111 54.0279 38.5111H8.72393C7.88863 38.5111 7.20801 37.8366 7.20801 36.995V10.8968C7.21419 10.0553 7.88863 9.38086 8.72393 9.38086ZM22.5526 27.4604V27.4666V27.479C22.5526 27.4728 22.5526 27.4666 22.5526 27.4604ZM23.586 15.6548C23.6046 15.6548 23.6169 15.6548 23.6355 15.6548H23.586ZM23.586 22.0217C23.0105 21.9969 22.5588 21.5267 22.5588 20.945V16.8675V16.7253C22.5588 16.1498 23.0167 15.6795 23.586 15.6548H23.6355H26.6239V13.0128H14.3792C13.383 13.0128 12.5725 13.8234 12.5725 14.8196C12.5725 14.8691 12.5786 14.9186 12.5786 14.9681H12.5725V20.9946C12.5725 21.9908 13.383 22.8012 14.3792 22.8012H15.8146H21.8845H26.6177L26.6239 22.0279H24.9906L23.586 22.0217ZM30.7325 13.0128C29.7362 13.0128 28.9257 13.8234 28.9257 14.8196V31.1666C28.9257 31.7605 28.4431 32.2433 27.849 32.2433H23.6293C23.0352 32.2433 22.5526 31.7605 22.5526 31.1666V26.9344C22.565 26.3466 23.0414 25.8764 23.6293 25.8764H26.6177V25.103H14.373C13.3768 25.103 12.5663 25.9135 12.5663 26.9096V33.0723C12.5663 34.0684 13.3768 34.8789 14.373 34.8789H23.0601H32.4029C33.3992 34.8789 34.2097 34.0684 34.2097 33.0723V31.1728V18.2783V16.7377C34.2097 16.1436 34.6923 15.661 35.2864 15.661C35.2987 15.661 35.3049 15.661 35.3173 15.661H39.1162H39.1224C39.7165 15.661 40.1991 16.1436 40.1991 16.7377C40.1991 16.75 40.1991 16.7624 40.1991 16.7748V16.8799V20.4191V20.9388C40.1991 21.5329 39.7165 22.0155 39.1224 22.0155H36.0288V22.8012H48.3417C48.354 22.8012 48.3664 22.8012 48.3788 22.8012C49.3749 22.8012 50.1855 21.9908 50.1855 20.9946V14.8196C50.1855 13.8234 49.3749 13.0128 48.3788 13.0128H30.7325ZM39.1162 25.8702C39.7103 25.8702 40.1929 26.3405 40.1929 26.9344V31.1604C40.1929 31.7543 39.7103 32.2371 39.1162 32.2371H36.0288V34.8666H48.3726C49.3687 34.8666 50.1794 34.0561 50.1794 33.0599V26.8973C50.1794 25.9011 49.3687 25.0906 48.3726 25.0906H36.0288V25.864" fill="var(--fill-0, white)"/>
</g>
</svg>
