<svg preserveAspectRatio="none" width="100%" height="100%" overflow="visible" style="display: block;" viewBox="0 0 31.7197 32" fill="none" xmlns="http://www.w3.org/2000/svg">
<path id="Union" d="M22.9658 0C27.7927 4.89729e-05 31.7199 3.96187 31.7197 8.83105V23.1689C31.7197 28.0381 27.7927 32 22.9658 32H8.75293C3.92654 31.9999 0 28.0383 0 23.1689V8.83105C0 3.96192 3.92654 0.000143501 8.75293 0H22.9658ZM8.75293 2.83887C5.47841 2.8391 2.81445 5.52751 2.81445 8.83105V23.1689C2.81445 26.4727 5.47841 29.1611 8.75293 29.1611H22.9658C26.1385 29.1611 28.7383 26.6381 28.8975 23.4766L28.9053 23.1689V8.83105C28.9053 5.52737 26.2407 2.83887 22.9658 2.83887H8.75293ZM15.8584 7.75488C20.365 7.75488 24.032 11.4535 24.0322 16C24.0322 20.5465 20.3652 24.2461 15.8584 24.2461C11.3518 24.2459 7.68555 20.5464 7.68555 16C7.6858 11.4537 11.3519 7.75511 15.8584 7.75488ZM15.8594 10.5947C12.9044 10.5947 10.5001 13.0199 10.5 16.001C10.5 18.9819 12.9046 21.4072 15.8594 21.4072C18.814 21.4071 21.2178 18.9818 21.2178 16.001C21.2177 13.02 18.8142 10.5949 15.8594 10.5947ZM24.376 5.34766C24.92 5.34766 25.4532 5.56906 25.8359 5.95703C26.2205 6.34315 26.4404 6.88079 26.4404 7.42969C26.4404 7.97671 26.2206 8.51432 25.8359 8.90234C25.4513 9.28845 24.9201 9.51172 24.376 9.51172C23.834 9.51163 23.3016 9.28826 22.9189 8.90234C22.5343 8.51432 22.3125 7.9769 22.3125 7.42969C22.3125 6.88079 22.5341 6.34315 22.9189 5.95703C23.3018 5.56926 23.834 5.34775 24.376 5.34766Z" fill="var(--fill-0, #C9BFAF)"/>
</svg>
