<svg preserveAspectRatio="none" width="100%" height="100%" overflow="visible" style="display: block;" viewBox="0 0 32 32" fill="none" xmlns="http://www.w3.org/2000/svg">
<g id="Frame" clip-path="url(#clip0_0_42)">
<path id="Vector" d="M10.0533 30.8667C9.87556 29.0444 9.99112 27.2978 10.4 25.6267L12 18.72C11.7066 17.8287 11.5493 16.8982 11.5333 15.96C11.5333 13.72 12.6133 12.12 14.32 12.12C15.4933 12.12 16.36 12.9467 16.36 14.52C16.36 15.0267 16.2578 15.5956 16.0533 16.2267L15.36 18.52C15.2267 18.9644 15.16 19.3733 15.16 19.7467C15.16 21.3467 16.3733 22.24 17.9333 22.24C20.72 22.24 22.6933 19.36 22.6933 15.6267C22.6933 11.4667 19.9733 8.8 15.96 8.8C11.48 8.8 8.64001 11.72 8.64001 15.7867C8.64001 17.4133 9.14667 18.9333 10.12 19.9733C9.80001 20.52 9.45334 20.6133 8.94667 20.6133C7.34667 20.6133 5.82667 18.36 5.82667 15.28C5.82667 9.94667 10.0933 5.72 16.0667 5.72C22.3333 5.72 26.28 10.1067 26.28 15.4933C26.28 20.88 22.44 25.0267 18.3067 25.0267C17.5201 25.0371 16.7419 24.8641 16.0337 24.5216C15.3256 24.1791 14.7069 23.6764 14.2267 23.0533L13.4 26.3867C12.986 28.1364 12.2539 29.7951 11.24 31.28C13.6356 32.0325 16.1748 32.2096 18.6516 31.7969C21.1284 31.3843 23.4731 30.3936 25.4953 28.9052C27.5176 27.4167 29.1604 25.4725 30.2906 23.2303C31.4208 20.988 32.0064 18.5109 32 16C32 11.7565 30.3143 7.68687 27.3137 4.68629C24.3131 1.68571 20.2435 0 16 0C11.7565 0 7.68688 1.68571 4.6863 4.68629C1.68571 7.68687 5.12619e-06 11.7565 5.12619e-06 16C-0.00255509 19.1991 0.953946 22.3255 2.74601 24.9756C4.53807 27.6257 7.08339 29.6777 10.0533 30.8667Z" fill="var(--fill-0, #C9BFAF)"/>
</g>
<defs>
<clipPath id="clip0_0_42">
<rect width="32" height="32" fill="white"/>
</clipPath>
</defs>
</svg>
