<svg preserveAspectRatio="none" width="100%" height="100%" overflow="visible" style="display: block;" viewBox="0 0 20 20" fill="none" xmlns="http://www.w3.org/2000/svg">
<g id="Frame">
<path id="Vector" d="M17.8469 6.97912L10.3469 1.97912C10.2442 1.91059 10.1235 1.87402 10 1.87402C9.87653 1.87402 9.75583 1.91059 9.65312 1.97912L2.15313 6.97912C2.06751 7.03624 1.99732 7.11362 1.9488 7.20439C1.90029 7.29516 1.87493 7.39651 1.875 7.49943V15.6244C1.875 15.956 2.0067 16.2739 2.24112 16.5083C2.47554 16.7427 2.79348 16.8744 3.125 16.8744H16.875C17.2065 16.8744 17.5245 16.7427 17.7589 16.5083C17.9933 16.2739 18.125 15.956 18.125 15.6244V7.49943C18.1251 7.39651 18.0997 7.29516 18.0512 7.20439C18.0027 7.11362 17.9325 7.03624 17.8469 6.97912ZM3.125 15.6244V8.71271L8.27344 12.3846C8.37944 12.4603 8.50645 12.501 8.63672 12.501H11.3633C11.4935 12.501 11.6206 12.4603 11.7266 12.3846L16.875 8.71271V15.6244H3.125Z" fill="var(--fill-0, #C9BFAF)"/>
</g>
</svg>
