<svg preserveAspectRatio="none" width="100%" height="100%" overflow="visible" style="display: block;" viewBox="0 0 95.4707 22.7597" fill="none" xmlns="http://www.w3.org/2000/svg">
<g id="Layer_1">
<path id="Vector" d="M94.8108 20.471C94.9583 20.5272 95.0706 20.6114 95.1548 20.6957C95.2391 20.7799 95.3303 20.9203 95.3865 21.0326C95.4427 21.166 95.4707 21.3134 95.4707 21.4609C95.4707 21.6013 95.4427 21.7417 95.3865 21.8821C95.3303 22.0085 95.2531 22.1278 95.1548 22.2261C95.0495 22.3174 94.9372 22.3946 94.8108 22.4508C94.6634 22.5069 94.523 22.535 94.3756 22.535C94.2281 22.535 94.0877 22.5069 93.9403 22.4508C93.8139 22.4016 93.6946 22.3244 93.5963 22.2261C93.498 22.1278 93.4208 22.0155 93.3646 21.8821C93.3085 21.7487 93.2804 21.6013 93.2804 21.4609C93.2804 21.3205 93.3085 21.1801 93.3646 21.0326C93.4208 20.8922 93.5121 20.7799 93.5963 20.6957C93.6805 20.6114 93.828 20.5272 93.9403 20.471C94.0807 20.4148 94.2281 20.3868 94.3756 20.3868C94.523 20.3868 94.6634 20.4148 94.8108 20.471ZM93.9754 20.6114C93.8631 20.6676 93.7718 20.7237 93.6876 20.808C93.6033 20.8922 93.5331 20.9835 93.484 21.0888C93.4278 21.2011 93.4278 21.3134 93.4278 21.4539C93.4278 21.5943 93.4559 21.7066 93.484 21.8189C93.5401 21.9312 93.5963 22.0155 93.6876 22.0997C93.7788 22.184 93.8631 22.2401 93.9754 22.2963C94.0877 22.3525 94.2071 22.3805 94.3545 22.3805C94.5019 22.3805 94.6143 22.3525 94.7336 22.2963C94.9512 22.198 95.1197 22.0295 95.225 21.8119C95.2812 21.6996 95.2812 21.5872 95.2812 21.4468C95.2812 21.3064 95.2531 21.1941 95.225 21.0818C95.1197 20.8712 94.9512 20.6957 94.7336 20.5974C94.6143 20.5412 94.4879 20.5131 94.3545 20.5131C94.2422 20.5412 94.0947 20.5693 93.9754 20.5974V20.6114ZM93.9473 22.1138V20.8641H94.4387C94.5862 20.8641 94.6985 20.8922 94.7547 20.9484C94.8108 21.0045 94.8389 21.0888 94.8389 21.2011C94.8389 21.2573 94.8389 21.3134 94.8108 21.3415C94.7827 21.3696 94.7827 21.4258 94.7547 21.4539C94.7266 21.4819 94.6985 21.51 94.6423 21.51C94.6142 21.5381 94.5581 21.5381 94.53 21.5381L94.9091 22.1068H94.7617L94.4177 21.5381H94.1579V22.1068H93.9543L93.9473 22.1138ZM94.4668 21.4047C94.523 21.4047 94.5511 21.4047 94.5791 21.3766C94.6072 21.3766 94.6353 21.3486 94.6634 21.3205C94.6915 21.2924 94.6915 21.2362 94.6915 21.2081C94.6915 21.152 94.6915 21.1239 94.6634 21.0958C94.6353 21.0677 94.6353 21.0397 94.6072 21.0397C94.5791 21.0116 94.5511 21.0116 94.523 21.0116H94.1158V21.4328H94.3194C94.3756 21.4328 94.4036 21.4047 94.4668 21.4047ZM22.5217 6.58463C22.5217 6.10022 22.5217 4.99802 22.3813 4.60488C22.1777 4.09239 21.5739 4.09239 21.0825 4.09239V3.69924H28.5311V5.96683H28.1871C27.8993 4.21173 27.12 4.12749 25.5334 4.12749H24.4663C24.2346 4.12749 24.1504 4.09941 24.0942 4.18365C24.0662 4.23981 24.0662 4.4083 24.0662 4.7523V8.23443C26.1161 8.31867 26.404 7.4692 26.4952 6.39508H26.8392C26.8111 7.07606 26.8111 7.75704 26.7831 8.43802C26.8111 9.06283 26.8392 9.68765 26.8392 10.2774H26.4952C26.2916 8.71883 25.4843 8.63459 24.0662 8.63459V11.0707C24.0662 11.527 24.0662 12.2361 24.3259 12.573C24.698 13.0855 25.6528 13.1136 26.2355 13.1136C27.794 13.0855 28.8049 12.889 29.0085 11.0988H29.3525L29.2051 13.5068H21.0895V13.1698C21.5809 13.1698 22.1847 13.1698 22.3883 12.6573C22.5287 12.2571 22.5287 11.1549 22.5287 10.6775V6.59867L22.5217 6.58463ZM37.2224 11.7446C37.2224 12.7345 37.1101 13.1908 38.2614 13.247V13.5559C37.7138 13.5278 37.1662 13.4997 36.6467 13.4997C36.0711 13.5278 35.4884 13.5559 34.9127 13.5559V13.247C36.036 13.1628 35.9517 12.8258 35.9517 11.8289V9.93336C35.9517 8.91541 36.0079 7.44112 34.5687 7.44112C33.4103 7.44112 32.6591 8.34675 32.6591 9.45598V11.7797C32.6591 12.7696 32.5117 13.2259 33.6982 13.2821V13.591C33.1506 13.5629 32.603 13.5348 32.0835 13.5348C31.5078 13.5629 30.9251 13.591 30.3494 13.591V13.2821C31.4727 13.1979 31.3884 12.8539 31.3884 11.864V10.0246C31.3884 9.60341 31.3884 8.55034 31.3042 8.21336C31.1919 7.67279 30.7847 7.72896 30.2933 7.72896V7.42006C31.0725 7.33581 31.6201 7.08308 32.3713 6.96373L32.5749 8.32569H32.603C33.1225 7.39198 33.9298 6.96373 35.004 6.96373C36.4221 6.96373 37.2294 7.61663 37.2294 9.03475V11.7587L37.2224 11.7446ZM42.572 12.8749C44.1024 12.9872 45.7171 13.0434 45.7171 15.0583C45.7171 16.9538 43.955 17.5786 42.3122 17.5786C41.0696 17.5786 39.1671 17.1503 39.1671 15.5918C39.1671 14.967 39.6304 14.3422 40.2622 14.3422C40.522 14.3422 40.7256 14.4545 40.8941 14.5949C40.4026 14.6792 40.1148 15.1917 40.1148 15.641C40.1148 16.9468 41.4417 17.1995 42.4807 17.1995C43.5197 17.1995 44.6781 16.7432 44.6781 15.5567C44.6781 14.0824 43.0283 14.1667 41.9893 14.1105C41.0064 14.0824 39.6515 14.1105 39.6515 12.7766C39.6515 12.0676 40.3184 11.5902 40.9783 11.4989V11.4708C40.1148 11.19 39.3917 10.3686 39.3917 9.39981C39.3917 7.8132 40.7466 6.96373 42.1929 6.96373C42.8879 6.96373 43.5759 7.1603 44.1024 7.64471C44.5096 7.33581 45.0291 7.0199 45.5486 7.0199C45.9207 7.0199 46.4472 7.18839 46.4472 7.67279C46.4472 7.95361 46.2436 8.1572 45.9558 8.1572C45.4924 8.1572 45.4363 7.64471 44.9729 7.64471C44.7693 7.64471 44.5096 7.78512 44.3692 7.92553C44.7132 8.31867 44.9168 8.85924 44.9168 9.39981C44.9168 11.1549 43.5899 11.6674 42.0314 11.7517C41.568 11.7797 40.4448 11.7797 40.4448 12.3765C40.4448 12.889 41.2802 12.8328 41.6031 12.8609H42.586L42.572 12.8749ZM43.611 9.36471C43.611 8.40292 43.267 7.29369 42.1086 7.29369C40.9502 7.29369 40.6343 8.42398 40.6343 9.36471C40.6343 10.3054 40.9783 11.3796 42.0805 11.3796C43.2389 11.3796 43.611 10.3335 43.611 9.36471ZM49.0658 6.94969V11.7376C49.0939 12.7275 48.9184 13.1838 50.1049 13.24V13.5489C49.5853 13.5208 49.0378 13.4927 48.5182 13.4927C47.9426 13.5208 47.3669 13.5489 46.7561 13.5489V13.24C47.8513 13.1557 47.7671 12.8188 47.7951 11.8219V9.69467C47.7951 9.41386 47.7951 8.24847 47.739 8.0519C47.6196 7.68683 47.0159 7.71492 46.7 7.71492V7.40602L49.0658 6.94969ZM47.4511 4.28896C47.4511 3.83263 47.7951 3.49565 48.2585 3.49565C48.7218 3.49565 49.0378 3.86071 49.0378 4.28896C49.0378 4.7172 48.6938 5.08226 48.2866 5.08226C47.8232 5.08226 47.4511 4.77337 47.4511 4.28896ZM57.7571 11.7446C57.7571 12.7345 57.6448 13.1908 58.7961 13.247V13.5559C58.2485 13.5278 57.7009 13.4997 57.1814 13.4997C56.6057 13.5278 56.0231 13.5559 55.4474 13.5559V13.247C56.5707 13.1628 56.4864 12.8258 56.4864 11.8289V9.93336C56.4864 8.91541 56.5426 7.44112 55.1034 7.44112C53.945 7.44112 53.2009 8.34675 53.2009 9.45598V11.7797C53.2009 12.7696 53.0534 13.2259 54.2399 13.2821V13.591C53.6923 13.5629 53.1447 13.5348 52.5971 13.5348C52.0214 13.5629 51.4387 13.591 50.8631 13.591V13.2821C51.9863 13.1979 51.9021 12.8539 51.9021 11.864V10.0246C51.9021 9.60341 51.9021 8.55034 51.8178 8.21336C51.7055 7.67279 51.2983 7.72896 50.8069 7.72896V7.42006C51.5862 7.33581 52.1338 7.08308 52.8849 6.96373L53.0885 8.32569H53.1166C53.6361 7.39198 54.4435 6.96373 55.5176 6.96373C56.9357 6.96373 57.7431 7.61663 57.7431 9.03475V11.7587H57.7711L57.7571 11.7446ZM65.8446 12.4537C65.1496 13.3312 64.3142 13.7314 63.1839 13.7314C61.3375 13.7314 59.8071 12.4256 59.8071 10.5301C59.8071 8.63459 61.2252 6.98479 63.1839 6.98479C64.6582 6.98479 66.0412 7.80618 66.0412 9.42088C66.0412 9.61745 65.8095 9.56128 65.6621 9.56128H61.3586L61.3024 10.2703C61.3024 11.6885 62.0536 13.2751 63.6402 13.2751C64.3914 13.2751 65.0864 12.7626 65.5147 12.1729L65.8306 12.4537H65.8446ZM63.907 9.13304C64.1386 9.13304 64.6301 9.21728 64.6301 8.82414C64.6301 7.89043 64.1106 7.29369 63.1839 7.29369C62.0606 7.29369 61.6253 8.14316 61.4218 9.10496H63.907V9.13304ZM73.1809 12.4537C72.4859 13.3312 71.6505 13.7314 70.5272 13.7314C68.6809 13.7314 67.1504 12.4256 67.1504 10.5301C67.1504 8.63459 68.5615 6.98479 70.5272 6.98479C72.0015 6.98479 73.3845 7.80618 73.3845 9.42088C73.3845 9.61745 73.1529 9.56128 73.0124 9.56128H68.7089L68.6528 10.2703C68.6528 11.6885 69.404 13.2751 70.9906 13.2751C71.7418 13.2751 72.4368 12.7626 72.865 12.1729L73.1809 12.4537ZM71.2433 9.13304C71.475 9.13304 71.9664 9.21728 71.9664 8.82414C71.9664 7.89043 71.4469 7.29369 70.5202 7.29369C69.3899 7.29369 68.9617 8.14316 68.7581 9.10496H71.2433V9.13304ZM75.4345 10.0176C75.4345 9.62447 75.4626 8.54332 75.3502 8.20634C75.2028 7.66577 74.8307 7.72194 74.3674 7.72194V7.41304C75.0624 7.35688 75.7223 7.10414 76.3893 6.95671C76.5367 7.37794 76.5929 7.91851 76.5648 8.45908H76.5929C76.972 7.55345 77.7231 6.95671 78.7622 6.95671C79.2255 6.95671 79.8293 7.18137 79.8293 7.72194C79.8293 8.00275 79.5976 8.26251 79.3098 8.26251C78.6779 8.26251 78.8183 7.49728 78.2426 7.49728C77.7793 7.49728 77.2879 7.86234 77.0913 8.23443C76.7473 8.85924 76.7473 9.5683 76.7473 10.2774V11.7517C76.7473 12.8258 76.635 13.1979 77.8706 13.254V13.5629C77.2949 13.5348 76.7192 13.5068 76.1365 13.5068C75.5538 13.5068 74.9852 13.5629 74.4025 13.5629V13.254C75.5258 13.1698 75.4415 12.8328 75.4415 11.8359V10.0246L75.4345 10.0176ZM86.3793 12.4537C85.6843 13.3312 84.8489 13.7314 83.7186 13.7314C81.8722 13.7314 80.3418 12.4256 80.3418 10.5301C80.3418 8.63459 81.7599 6.98479 83.7186 6.98479C85.1929 6.98479 86.5759 7.80618 86.5759 9.42088C86.5759 9.61745 86.3442 9.56128 86.1968 9.56128H81.8933L81.8371 10.2703C81.8371 11.6885 82.5883 13.2751 84.1749 13.2751C84.9261 13.2751 85.6211 12.7626 86.0493 12.1729L86.3653 12.4537H86.3793ZM84.4136 9.13304C84.6453 9.13304 85.1367 9.21728 85.1367 8.82414C85.1367 7.89043 84.6172 7.29369 83.6905 7.29369C82.5672 7.29369 82.132 8.14316 81.9284 9.10496H84.4136V9.13304ZM93.4559 13.7244C93.2804 13.3874 93.1961 12.9872 93.168 12.5941C92.5362 13.3593 91.8412 13.7244 90.8303 13.7244C88.9558 13.7244 87.65 12.2782 87.65 10.4388C87.65 8.59949 88.9488 6.98479 90.8303 6.98479C91.6657 6.98479 92.4169 7.29369 92.9645 7.91851V5.56667C92.9645 4.66104 92.9083 4.17663 91.8412 4.14855V3.83965L94.2351 3.35524V10.8952C94.2351 11.3164 94.2351 12.0605 94.3826 12.4537C94.5862 12.9662 94.9863 12.9381 95.4497 12.9381V13.247L93.4559 13.7314V13.7244ZM92.9645 8.96455C92.9645 8.03083 92.0378 7.4341 91.1742 7.4341C89.5596 7.4341 89.1243 9.13304 89.1243 10.4108C89.1243 11.6885 89.5596 13.3032 91.1742 13.3032C92.5292 13.3032 92.9645 12.2571 92.9645 11.0637V8.96455ZM14.9326 16.673C12.9107 17.9788 10.9169 15.5076 10.9169 15.5076C8.17196 12.7275 7.33653 12.1097 2.88559 11.7095C2.88559 11.7165 0.028281 11.5761 0.000199317 8.71181C-0.0278823 5.90365 2.92069 5.70708 2.92069 5.70708C6.62044 5.22267 8.38257 4.28896 10.8608 1.48781C10.8608 1.48781 12.6791 -0.667451 14.5254 0.2101C17.5582 1.68439 16.0559 4.74528 16.0559 4.74528C15.073 8.05892 15.073 8.93647 16.112 12.2571C16.1401 12.2852 17.123 15.2899 14.9256 16.68L14.9326 16.673ZM56.346 22.5631H55.6229V16.329H59.8422V16.9257H56.346V19.0529H59.6105V19.6215H56.346V22.5701V22.5631ZM61.9132 21.9663H65.1777V22.5631H61.2182V16.329H61.9132V21.9663ZM82.3636 22.5631H81.6405V16.329H83.7747C85.1929 16.329 86.0844 16.8695 86.0844 17.9998C86.0844 18.8493 85.4526 19.5303 84.2942 19.6145L86.3161 22.5631H85.4526L83.5501 19.6707H82.3636V22.5631ZM82.3636 19.081H83.6343C84.905 19.081 85.3403 18.5965 85.3403 18.0068C85.3403 17.4171 84.905 16.9327 83.6343 16.9327H82.3636V19.088V19.081ZM91.3778 17.382C91.0619 16.9819 90.6267 16.7853 90.0229 16.7853C89.2998 16.7853 88.5205 17.1293 88.5205 17.9156C88.5205 19.5864 92.1009 18.7089 92.1009 20.9484C92.1009 22.0787 90.9145 22.7597 89.7912 22.7597C88.9558 22.7597 88.1133 22.4788 87.5938 21.8259L88.2257 21.3977C88.5135 21.854 89.0892 22.1629 89.8123 22.1629C90.5354 22.1629 91.3147 21.7628 91.3147 21.0326C91.3147 19.2775 87.7342 20.2393 87.7342 17.9717C87.7342 16.7502 88.8645 16.2166 89.9878 16.2166C90.7671 16.2166 91.4059 16.4132 91.9535 16.9819L91.3778 17.382ZM69.3969 16.7572C67.7822 16.7572 66.8275 18.0068 66.8275 19.446C66.8275 20.8852 67.7822 22.1348 69.3969 22.1348C71.0116 22.1348 71.9664 20.8852 71.9664 19.446C71.9664 18.0068 71.0116 16.7572 69.3969 16.7572ZM69.3969 22.7386C67.5506 22.7386 66.1324 21.3485 66.1324 19.4811C66.1324 17.6137 67.5155 16.2237 69.3969 16.2237C71.2784 16.2237 72.6614 17.6137 72.6614 19.4811C72.6614 21.3485 71.2503 22.7386 69.3969 22.7386ZM77.1334 16.7572C75.5187 16.7572 74.564 18.0068 74.564 19.446C74.564 20.8852 75.5187 22.1348 77.1334 22.1348C78.7481 22.1348 79.7029 20.8852 79.7029 19.446C79.7029 18.0068 78.7481 16.7572 77.1334 16.7572ZM77.1334 22.7386C75.2871 22.7386 73.8689 21.3485 73.8689 19.4811C73.8689 17.6137 75.252 16.2237 77.1334 16.2237C79.0149 16.2237 80.3979 17.6137 80.3979 19.4811C80.3979 21.3485 79.0149 22.7386 77.1334 22.7386Z" fill="var(--fill-0, white)"/>
</g>
</svg>
