<svg preserveAspectRatio="none" width="100%" height="100%" overflow="visible" style="display: block;" viewBox="0 0 80.943 25.377" fill="none" xmlns="http://www.w3.org/2000/svg">
<g id="mohawk 1" clip-path="url(#clip0_0_18)">
<path id="Vector" d="M52.6131 3.62788L46.0635 10.0915C45.8957 10.2681 45.6945 10.4096 45.4717 10.5079C45.2488 10.6063 45.0086 10.6594 44.7651 10.6643C44.5361 10.6643 44.3093 10.6191 44.0979 10.5311C43.8865 10.4432 43.6945 10.3144 43.533 10.152C43.3715 9.98965 43.2437 9.79697 43.157 9.58504C43.0702 9.37312 43.0262 9.14614 43.0274 8.91715V5.43234C43.0249 5.66258 43.0679 5.89105 43.154 6.10461C43.2401 6.31818 43.3675 6.51262 43.529 6.67676C43.6905 6.8409 43.8828 6.97151 44.095 7.06106C44.3071 7.15062 44.5348 7.19737 44.7651 7.19861C45.2554 7.18157 45.7204 6.97644 46.0635 6.62577L52.6131 0.143066V3.62788Z" fill="var(--fill-0, #CE202F)"/>
<path id="Vector_2" d="M46.7134 5.25111C46.7159 5.02086 46.6729 4.79239 46.5868 4.57883C46.5007 4.36527 46.3733 4.17083 46.2118 4.00668C46.0503 3.84254 45.858 3.71194 45.6459 3.62238C45.4337 3.53282 45.206 3.48608 44.9758 3.48483C44.4854 3.50188 44.0205 3.70701 43.6773 4.05768L37.5765 10.0916C37.4082 10.2669 37.2067 10.407 36.9838 10.5037C36.7609 10.6004 36.521 10.6518 36.2781 10.6549C35.8138 10.6575 35.3674 10.4762 35.0364 10.1506C34.7054 9.82495 34.5168 9.38157 34.5118 8.91732V5.43251C34.5118 5.90095 34.6979 6.35021 35.0291 6.68145C35.3604 7.01269 35.8096 7.19878 36.2781 7.19878C36.7684 7.18174 37.2334 6.97661 37.5765 6.62594L43.6773 0.563322C44.022 0.216157 44.4868 0.0145261 44.9758 2.40138e-05C45.206 0.00126846 45.4337 0.0480134 45.6459 0.137571C45.858 0.227129 46.0503 0.357733 46.2118 0.521875C46.3733 0.686017 46.5007 0.880459 46.5868 1.09402C46.6729 1.30758 46.7159 1.53605 46.7134 1.7663V5.25111Z" fill="var(--fill-0, #CE202F)"/>
<path id="Vector_3" d="M38.1898 5.25108C38.1898 4.78593 38.0063 4.33954 37.6792 4.00884C37.3521 3.67814 36.9077 3.48984 36.4426 3.48481C36.199 3.48972 35.9589 3.54288 35.736 3.64121C35.5131 3.73954 35.312 3.88108 35.1441 4.05765L28.4609 10.6549V7.19876L35.1441 0.563298C35.4982 0.20703 35.9785 0.00464634 36.4808 0C36.9392 0.0148763 37.3739 0.207512 37.6928 0.537154C38.0118 0.866796 38.19 1.30759 38.1898 1.76627V5.25108Z" fill="var(--fill-0, #CE202F)"/>
<path id="Vector_4" d="M80.9402 25.0618H74.8203V24.6513C75.9278 24.6035 76.262 24.5558 76.262 24.2789C76.262 24.002 76.1283 23.8588 75.8323 23.5056L72.5003 19.6198L72.0229 20.0303V23.4101C72.0229 24.4603 72.6531 24.5081 73.6173 24.6513V25.0618H67.4974V24.6513C68.4522 24.5558 69.0823 24.4603 69.0823 23.4101V15.0561C69.0823 14.1014 68.5095 13.9104 67.7839 13.8627C67.5222 13.9282 67.2842 14.0658 67.0968 14.2599C66.9095 14.454 66.7803 14.6968 66.7241 14.9606L63.0579 25.3291H62.5805L59.4967 17.2425H59.4012L56.0787 25.3291H55.5441L51.7251 14.9606C51.4005 14.1014 51.2382 13.9582 50.4648 13.8149V13.3662H55.8114V13.7768C55.1908 13.7768 54.6562 13.8722 54.6562 14.5119C54.6581 14.7176 54.707 14.9201 54.7994 15.1038L56.9762 21.3192L59.1435 16.0681L58.4656 14.4164C58.2937 14.0059 58.036 13.8245 57.1671 13.7768V13.3662H62.8192V13.7768C62.0459 13.7768 61.5208 13.8722 61.5208 14.4642C61.5626 14.7907 61.6427 15.1111 61.7594 15.4189L63.7358 21.1474L65.7121 15.2948C65.8238 15.0701 65.8733 14.8195 65.8553 14.5692C65.8553 13.834 65.2347 13.834 64.6046 13.7863V13.3662H73.5696V13.7768C72.6149 13.8722 71.9752 13.92 71.9752 15.3807V19.0947L75.9278 15.3425C76.4338 14.8652 76.5484 14.7028 76.5484 14.3878C76.5484 14.0727 76.3575 13.8818 75.0113 13.7863V13.3662H80.3101V13.7768C78.4006 13.92 77.5127 14.7315 74.4289 17.7103L80.0237 24.2407C80.1267 24.3695 80.2599 24.4708 80.4114 24.5357C80.563 24.6007 80.7282 24.6272 80.8925 24.6131L80.9402 25.0618Z" fill="var(--fill-0, white)"/>
<path id="Vector_5" d="M16.4789 25.0618H10.5022V24.6513C11.5619 24.5081 12.087 24.4603 12.087 23.3242V14.7315L7.46608 25.0618H6.98871L2.45369 14.9129V22.9136C2.45369 24.1453 2.79739 24.5558 4.28679 24.6513V25.0618H0V24.6513C1.44166 24.5081 1.64216 24.2407 1.64216 23.2287V15.1038C1.64216 14.1491 1.34619 13.9582 0.0477371 13.8627V13.3662H4.62095L8.23943 21.5006L11.8961 13.3662H16.4789V13.8245C15.4668 13.8722 14.8367 13.92 14.8367 15.4285V23.0091C14.8367 24.3839 15.2759 24.4221 16.4789 24.6131V25.0618Z" fill="var(--fill-0, white)"/>
<path id="Vector_6" d="M25.3365 19.2572C25.3365 16.794 24.6682 13.7293 22.1094 13.7293C19.5507 13.7293 18.8824 16.7462 18.8824 19.2572C18.8824 20.7657 19.0256 24.8329 22.1094 24.8329C25.1933 24.8329 25.3365 20.7657 25.3365 19.2572ZM28.5158 19.2572C28.5158 22.9139 25.8234 25.3771 22.1094 25.3771C18.3955 25.3771 15.7031 22.9139 15.7031 19.2572C15.7031 15.6006 18.5674 13.1851 22.1094 13.1851C25.6515 13.1851 28.5158 15.5146 28.5158 19.2572Z" fill="var(--fill-0, white)"/>
<path id="Vector_7" d="M48.0782 21.0042L46.1688 16.8033L44.5171 21.0042H48.0782ZM53.6157 25.0714H47.7345V24.6608C48.8898 24.5654 49.2239 24.5654 49.2239 23.9734C49.0513 23.1733 48.7584 22.4039 48.3551 21.6916H44.2211C43.891 22.4083 43.635 23.1569 43.4573 23.9257C43.4573 24.5654 44.3166 24.6131 44.9467 24.6608V25.0714H35.3229V24.6608C36.2776 24.5654 36.9555 24.4699 36.9555 23.4197V19.4384H32.5637V23.4101C32.5637 24.4603 33.2415 24.5558 34.2058 24.6513V25.0618H28.0859V24.6513C29.0407 24.5081 29.6231 24.4222 29.6231 23.4101V15.0561C29.6231 13.9582 28.8115 13.9104 28.0859 13.815V13.3662H34.2058V13.7768C33.3848 13.7768 32.5637 13.8723 32.5637 15.0179V18.6173H36.9459V15.0561C36.9459 13.9104 36.1344 13.8627 35.3133 13.815V13.3662H41.5287V13.7768C40.7076 13.7768 39.8866 13.92 39.8866 15.0179V23.3719C39.8866 24.3267 40.4212 24.5654 41.1373 24.5654C41.6242 24.5654 42.1779 24.5654 43.0467 22.5986L47.0662 13.1753H47.5531L51.6394 22.2262C52.4891 24.088 52.7565 24.6895 53.6157 24.6513V25.0714Z" fill="var(--fill-0, white)"/>
</g>
<defs>
<clipPath id="clip0_0_18">
<rect width="80.943" height="25.377" fill="white"/>
</clipPath>
</defs>
</svg>
