<svg preserveAspectRatio="none" width="100%" height="100%" overflow="visible" style="display: block;" viewBox="0 0 67.9002 38.6122" fill="none" xmlns="http://www.w3.org/2000/svg">
<g id="Mozaik 1 [Vectorized]" clip-path="url(#clip0_0_42)">
<path id="Vector" d="M33.9561 7.74296L37.1048 2.76366C37.6183 1.9504 38.12 1.12615 38.6504 0.324167C38.7031 0.244563 38.7718 0.165697 38.8623 0.126975C39.1885 -0.012889 39.3944 0.270741 39.5562 0.505978C39.7942 0.87823 40.0161 1.26709 40.2528 1.64204L42.6585 5.43856L49.5267 16.3153L51.6804 19.7232C52.0126 20.2464 52.5166 20.9871 52.7884 21.5411C52.8475 21.6609 52.7901 21.8412 52.7238 21.9618C52.3939 22.1712 50.8738 22.0944 50.4146 22.0939L46.7955 22.0913L44.5101 22.0958C42.6608 22.1094 43.0613 22.304 41.9005 20.8562L40.3579 18.9429C39.9769 18.4417 39.4385 17.7799 39.0287 17.3042C38.3544 18.2178 37.4446 19.2197 36.7437 20.1458C36.5024 20.4647 35.3519 21.9025 35.149 22.0671C34.8128 22.1197 33.1833 22.1069 32.8017 22.0829C32.5263 21.8842 31.6433 20.7418 31.3748 20.4086L28.8699 17.2995C28.0215 18.3286 27.1934 19.3828 26.3537 20.4167C26.0822 20.751 25.2195 21.8813 24.9434 22.077C24.583 22.1159 23.8991 22.0958 23.516 22.0954L20.9209 22.0921L17.5036 22.0934C16.8601 22.0954 16.2054 22.1246 15.5632 22.0907C15.4131 22.0828 15.2629 22.0668 15.1606 21.9411C15.0947 21.8601 15.0633 21.7157 15.0849 21.6119C15.1525 21.288 19.5048 14.5289 20.0685 13.6362L25.6331 4.82282C26.5626 3.35041 27.4903 1.87022 28.4253 0.401085C28.5143 0.261209 28.5809 0.196157 28.7154 0.102073C29.0351 0.069759 29.1678 0.182039 29.3377 0.446627C30.8908 2.86547 32.3805 5.33966 33.9561 7.74296ZM16.283 21.2605C17.7546 21.2077 19.4194 21.2459 20.9069 21.2457C22.0637 21.2459 23.4206 21.2818 24.5602 21.2418C25.3115 20.3941 25.9904 19.4411 26.7228 18.5736C27.0749 18.1566 27.4073 17.7132 27.7575 17.2938C28.4718 16.4766 28.9818 15.6234 29.5582 14.7095L31.2975 11.9516L32.6613 9.79468C32.8998 9.41698 33.2194 8.93789 33.4276 8.55574C32.2501 6.57048 30.9107 4.63678 29.7099 2.66101C29.6033 2.48555 28.9495 1.42679 28.8584 1.35122C28.1942 2.33648 27.5191 3.44961 26.8795 4.46248L23.3708 10.0211L18.8116 17.2427C17.973 18.5707 17.0994 19.9213 16.283 21.2605ZM33.9289 9.39805C32.4349 11.7857 30.8718 14.1811 29.4013 16.5757L31.9133 19.6946C32.2149 20.0686 32.8561 20.9104 33.1687 21.2289C33.4717 21.2461 33.724 21.2496 34.0277 21.2468L34.7389 21.243L38.5049 16.5739C38.0281 15.83 34.1544 9.56901 33.9289 9.39805ZM47.0657 21.2457C48.4794 21.2454 50.2303 21.1951 51.6164 21.2567L42.2888 6.47608L39.9852 2.82236C39.8556 2.61661 39.1371 1.45519 39.029 1.34398L36.0272 6.08058C35.5946 6.76536 34.8367 7.88359 34.4766 8.55796C34.7425 9.03603 35.1254 9.60994 35.4238 10.0826L37.0988 12.7333L38.5914 15.0966C39.0062 15.7532 39.355 16.336 39.8503 16.9362C40.4872 17.7078 41.1118 18.4951 41.7394 19.2747L42.7781 20.565C42.9174 20.7377 43.1757 21.0767 43.3252 21.2265C43.7598 21.2636 44.2979 21.2475 44.7419 21.2472L47.0657 21.2457Z" fill="var(--fill-0, white)"/>
<path id="Vector_2" d="M19.8871 27.5537C21.2528 27.5106 22.4628 27.7967 23.5754 28.6262C24.7548 29.4996 25.5343 30.8096 25.7392 32.2625C25.9557 33.7147 25.5855 35.1936 24.7104 36.3728C23.6596 37.7682 22.3792 38.3406 20.7 38.5736C19.2476 38.605 18.0399 38.3094 16.8749 37.4066C15.7586 36.5326 15.0306 35.2549 14.8476 33.8493C14.4922 31.0142 16.181 28.3359 19.0306 27.6904C19.3175 27.6254 19.5957 27.5908 19.8871 27.5537ZM20.7066 36.0553C22.3611 35.827 23.5164 34.3 23.2858 32.6464C23.0552 30.9928 21.5261 29.8399 19.8722 30.0727C18.2215 30.305 17.071 31.83 17.3012 33.4804C17.5313 35.1309 19.0552 36.2833 20.7066 36.0553Z" fill="var(--fill-0, white)"/>
<path id="Vector_3" d="M2.01289 27.5534L2.03781 27.553C2.20779 27.5507 2.39103 27.5287 2.5286 27.649C2.73197 27.8268 5.09972 32.3653 5.43126 32.9832C5.61371 33.3232 5.87099 33.948 6.13443 34.2045C6.2957 34.1522 9.24053 28.4111 9.63799 27.7856C9.83844 27.4701 10.3877 27.4661 10.4402 27.7239C10.8135 29.5582 11.0947 31.4269 11.4057 33.2762L11.9179 36.3111C11.9786 36.6697 12.2955 38.1049 12.1236 38.3299C11.8725 38.4638 10.1936 38.4144 9.85014 38.3508C9.70967 37.849 9.56445 36.5998 9.48206 36.0191L9.1175 33.4863C8.68308 34.1684 6.67594 38.3866 6.3992 38.5231C6.27083 38.5864 6.10678 38.5894 5.97105 38.5493C5.85749 38.5158 5.7818 38.4605 5.71476 38.364C5.38939 37.8954 5.14889 37.3097 4.88388 36.8L3.14992 33.4684C2.9808 34.4892 2.864 35.5266 2.70738 36.5484C2.65433 36.8948 2.53658 38.1423 2.36255 38.3438C2.19877 38.4207 1.79814 38.426 1.62072 38.4032C1.23815 38.3544 0.337821 38.5434 0.0848237 38.2547C0.0187925 38.0376 1.14463 31.6211 1.25624 30.9555L1.62369 28.7573C1.67952 28.4247 1.73161 28.0582 1.81163 27.7313C1.83486 27.6364 1.92782 27.5958 2.01289 27.5534Z" fill="var(--fill-0, white)"/>
<path id="Vector_4" d="M59.3036 27.7155C59.7025 27.6889 61.1742 27.6236 61.4703 27.8065C61.6513 28.101 61.5966 29.1995 61.5963 29.5789L61.5929 32.0859C62.3674 31.1355 63.1144 30.1597 63.8733 29.1965C64.2141 28.7639 64.5463 28.2647 64.9376 27.8796C65.0287 27.7898 65.1053 27.7414 65.232 27.7176C65.4998 27.6673 67.2163 27.6564 67.391 27.7861C67.457 27.8351 67.4908 27.8924 67.501 27.9756C67.5163 28.0973 67.4957 28.1967 67.4331 28.302C67.1214 28.8258 66.6553 29.3187 66.2753 29.7997L63.8965 32.8201C64.2271 33.2072 64.6097 33.7276 64.9269 34.1356L66.8194 36.5699C67.1045 36.9266 67.7484 37.5991 67.8233 38.069C67.8531 38.2311 67.6091 38.417 67.456 38.4008C67.0223 38.3551 65.3798 38.5264 65.1056 38.2914C64.911 38.1244 64.4021 37.3939 64.2559 37.197L62.6207 34.994C62.3263 34.5969 61.9169 34.0139 61.5929 33.6556L61.5933 33.6749C61.6148 35.1057 61.6022 36.5739 61.5777 38.0054C61.5707 38.4213 61.212 38.429 60.8798 38.4068C60.5303 38.3832 59.3278 38.4972 59.1024 38.2758C58.9684 37.6004 59.0294 36.5378 59.0298 35.8229L59.0308 32.2024C59.0308 30.9818 58.9943 29.1763 59.0722 27.9195C59.0782 27.8178 59.2131 27.7564 59.3036 27.7155Z" fill="var(--fill-0, white)"/>
<path id="Vector_5" d="M43.1931 27.5512C43.2422 27.5494 43.2916 27.5502 43.3407 27.5537C43.7415 27.581 43.8712 28.1144 44.0296 28.4541L44.9596 30.4537L47.2327 35.3384C47.4319 35.7666 48.5065 37.9073 48.4697 38.2626C48.3437 38.4062 48.0804 38.4042 47.9047 38.4085C45.8876 38.4575 46.1465 38.5517 45.4069 36.8438C44.8048 36.8123 44.0936 36.8295 43.4829 36.8302C42.7916 36.8279 41.9651 36.8607 41.2871 36.8209C41.0636 37.2634 40.749 38.4453 40.1645 38.4088C39.7922 38.3853 38.4491 38.4847 38.2114 38.3047C38.1165 38.0224 38.6036 37.1321 38.7445 36.8298L39.8688 34.4143L41.8507 30.1536C42.2174 29.3634 42.5804 28.5587 42.968 27.7785C43.028 27.6578 43.0774 27.6171 43.1931 27.5512ZM42.2124 34.7312C42.5944 34.7173 42.9694 34.7216 43.3513 34.7239C43.6954 34.7229 44.1075 34.7113 44.4454 34.7352C44.3648 34.5231 43.4332 32.3996 43.3224 32.3059C43.0028 32.8729 42.4793 34.1131 42.2124 34.7312Z" fill="var(--fill-0, white)"/>
<path id="Vector_6" d="M28.6602 27.7191C29.2933 27.663 30.573 27.6805 31.1907 27.6961C31.8651 27.713 35.2795 27.601 35.5043 27.8383C35.5431 27.9766 35.5335 28.1803 35.4785 28.3091C35.1655 29.0434 34.7554 29.7729 34.4062 30.4927L31.6198 36.1326C32.101 36.1257 34.8651 36.0594 35.1022 36.2009C35.1695 36.241 35.2053 36.3355 35.2209 36.4094C35.2709 36.647 35.2825 38.1431 35.1595 38.3035C35.0942 38.3887 35.011 38.3864 34.9138 38.4036C33.464 38.4228 31.9833 38.397 30.531 38.4073C30.03 38.4109 28.5041 38.4368 28.1021 38.3493C27.7484 38.0569 28.3788 37.0656 28.5505 36.7355L29.3783 35.1446L32.0545 29.9849C31.1565 29.9987 30.2437 29.9811 29.3441 29.9951C29.1523 29.998 28.6401 30.0147 28.5158 29.891C28.393 29.5739 28.4563 28.2966 28.4727 27.8857C28.4762 27.7987 28.5888 27.7511 28.6602 27.7191Z" fill="var(--fill-0, white)"/>
<path id="Vector_7" d="M52.0902 27.7208C52.4347 27.6815 54.111 27.6224 54.2967 27.8278C54.4246 28.2487 54.3636 29.8682 54.3633 30.3923L54.3607 34.4642L54.3656 36.7789C54.367 37.2128 54.3782 37.6718 54.3504 38.1037C54.3398 38.2641 54.3109 38.3009 54.2015 38.3884C53.8577 38.4215 52.2 38.4623 51.9662 38.3012C51.8784 37.8899 51.9062 37.1001 51.9076 36.6583L51.9102 34.3574L51.9089 30.2858C51.9089 29.5628 51.9036 28.8322 51.9168 28.1093C51.9202 27.9223 51.9556 27.8438 52.0902 27.7208Z" fill="var(--fill-0, white)"/>
<path id="Vector_8" d="M55.6538 19.9657C56.223 19.8805 56.7528 20.2749 56.8344 20.8446C56.9159 21.4142 56.5181 21.9413 55.9478 22.0193C55.3826 22.0965 54.861 21.703 54.7801 21.1385C54.6992 20.5739 55.0895 20.05 55.6538 19.9657ZM55.9813 21.8062C56.4312 21.7095 56.719 21.2678 56.6255 20.8172C56.5317 20.3666 56.0921 20.076 55.6408 20.1664C55.1846 20.2576 54.8905 20.7026 54.985 21.1578C55.0795 21.6129 55.5268 21.9039 55.9813 21.8062Z" fill="var(--fill-0, white)"/>
<path id="Vector_9" d="M55.4415 20.4497C55.6981 20.4429 56.0207 20.4128 56.2283 20.568C56.3466 20.8137 56.1523 20.9022 56.1135 21.1324C56.0917 21.2614 56.2528 21.3955 56.1129 21.5295C56.0124 21.5088 56.0476 21.5217 55.9663 21.4344C55.913 21.2859 55.8924 21.1844 55.7525 21.1165C55.6093 21.2203 55.6355 21.4594 55.5045 21.5278L55.4525 21.46C55.4664 21.1668 55.4395 20.7659 55.4415 20.4497ZM56.0648 20.9193C56.0711 20.8111 56.0854 20.7676 56.024 20.6808C55.9222 20.6172 55.7648 20.6369 55.6375 20.6392C55.6358 20.7881 55.6133 20.7815 55.6779 20.8934C55.7843 20.947 55.9395 20.925 56.0648 20.9193Z" fill="var(--fill-0, white)" fill-opacity="0.976471"/>
</g>
<defs>
<clipPath id="clip0_0_42">
<rect width="67.9002" height="38.6122" fill="white"/>
</clipPath>
</defs>
</svg>
