<svg xmlns="http://www.w3.org/2000/svg" viewBox="0 0 167 22" fill="none">
<g id="Wanke" transform="translate(0 1)" fill="#5D5DDF">
<path d="M0 0.647661H3.58299L6.7343 10.9218L10.1446 0.604492H12.9938L16.4041 10.9218L19.5554 0.647661H23.052L17.8718 15.9293H14.9795L11.5692 6.00057L8.15887 15.9293H5.26657L0 0.647661Z"/>
<path d="M22.582 12.4755V12.4323C22.582 9.88538 24.5246 8.71983 27.2442 8.71983C28.4098 8.71983 29.2732 8.93567 30.0934 9.19468V8.97884C30.0934 7.59744 29.23 6.86358 27.5896 6.86358C26.3377 6.86358 25.4312 7.12259 24.3951 7.51111L23.5749 5.00733C24.87 4.44613 26.1219 4.05762 28.0644 4.05762C29.8775 4.05762 31.1726 4.53247 31.9928 5.35268C32.8562 6.21605 33.2447 7.51111 33.2447 9.06518V15.7995H30.0502V14.5476C29.23 15.4541 28.1508 16.0153 26.5535 16.0153C24.3951 16.0153 22.582 14.7634 22.582 12.4755ZM30.1365 11.6985V11.0941C29.5753 10.8351 28.8415 10.6624 28.0213 10.6624C26.5967 10.6624 25.7333 11.2236 25.7333 12.2597V12.3028C25.7333 13.2094 26.4672 13.7274 27.5464 13.7274C29.1005 13.7274 30.1365 12.9072 30.1365 11.6985Z"/>
<path d="M36.0898 4.18752H39.3707V5.82793C40.1477 4.83505 41.0974 3.97168 42.781 3.97168C45.2848 3.97168 46.7093 5.61209 46.7093 8.28854V15.7999H43.4285V9.32459C43.4285 7.77052 42.6946 6.95031 41.4428 6.95031C40.1909 6.95031 39.3707 7.77052 39.3707 9.32459V15.7999H36.0898V4.18752Z"/>
<path d="M49.5625 0H52.8433V8.41788L56.6853 4.18735H60.6137L56.2105 8.76323L60.7863 15.7997H56.9875L54.0089 11.0512L52.8433 12.3031V15.8429H49.5625V0Z"/>
<path d="M61.3008 10.0585V10.0153C61.3008 6.6913 63.6751 3.97168 67.0422 3.97168C70.9274 3.97168 72.6973 6.99348 72.6973 10.2743C72.6973 10.5333 72.6541 10.8355 72.6541 11.1377H64.5816C64.9269 12.6486 65.963 13.4256 67.4307 13.4256C68.5531 13.4256 69.3301 13.0803 70.2367 12.2169L72.1361 13.9005C71.0569 15.2387 69.5028 16.0589 67.3876 16.0589C63.8477 16.0589 61.3008 13.5983 61.3008 10.0585ZM69.4596 9.10874C69.2438 7.64101 68.3804 6.64813 66.999 6.64813C65.6176 6.64813 64.7543 7.64101 64.4953 9.10874H69.4596Z"/>
</g>
<g id="Cascade" transform="translate(76 1)" fill="#9B8579">
<path d="M0 8.24507V8.2019C0 3.88504 3.23765 0.345215 7.89986 0.345215C10.749 0.345215 12.4757 1.29492 13.8571 2.67632L11.7419 5.13693C10.5763 4.05771 9.36759 3.41019 7.85669 3.41019C5.30974 3.41019 3.45349 5.52545 3.45349 8.11556V8.15873C3.45349 10.7488 5.26657 12.9073 7.85669 12.9073C9.58343 12.9073 10.6626 12.2166 11.8282 11.1374L13.9435 13.2958C12.3894 14.9794 10.6626 16.0154 7.72718 16.0154C3.32398 16.0586 0 12.6051 0 8.24507Z"/>
<path d="M15.5859 12.4755V12.4323C15.5859 9.88538 17.5285 8.71983 20.2481 8.71983C21.4137 8.71983 22.2771 8.93567 23.0973 9.19468V8.97884C23.0973 7.59744 22.2339 6.86358 20.5935 6.86358C19.3416 6.86358 18.4351 7.12259 17.399 7.51111L16.5788 5.00733C17.8739 4.44613 19.1258 4.05762 21.0684 4.05762C22.8814 4.05762 24.1765 4.53247 24.9967 5.35268C25.8601 6.21605 26.2486 7.51111 26.2486 9.06518V15.7995H23.0541V14.5476C22.2339 15.4541 21.1547 16.0153 19.5575 16.0153C17.399 16.0153 15.5859 14.7634 15.5859 12.4755ZM23.1404 11.6985V11.0941C22.5793 10.8351 21.8454 10.6624 21.0252 10.6624C19.6006 10.6624 18.7372 11.2236 18.7372 12.2597V12.346C18.7372 13.2525 19.4711 13.7706 20.5503 13.7706C22.1044 13.7274 23.1404 12.9072 23.1404 11.6985Z"/>
<path d="M28.1914 14.2456L29.616 12.0872C30.8679 12.9937 32.2061 13.4686 33.2853 13.4686C34.235 13.4686 34.6667 13.1232 34.6667 12.6052V12.562C34.6667 11.8282 33.5443 11.6123 32.2493 11.2238C30.6088 10.749 28.7958 9.97192 28.7958 7.72715V7.68398C28.7958 5.30971 30.6952 4.01465 33.0263 4.01465C34.494 4.01465 36.0913 4.53267 37.3431 5.35288L36.0913 7.64081C34.9257 6.95011 33.8033 6.5616 32.94 6.5616C32.1197 6.5616 31.7312 6.90695 31.7312 7.3818V7.42497C31.7312 8.0725 32.8536 8.37468 34.1055 8.80636C35.7459 9.36756 37.6022 10.1446 37.6022 12.2599V12.303C37.6022 14.8931 35.6596 16.0587 33.1558 16.0587C31.5586 16.0155 29.7455 15.4975 28.1914 14.2456Z"/>
<path d="M39.4141 10.0582V10.015C39.4141 6.69103 41.961 3.9714 45.5009 3.9714C47.7025 3.9714 49.0407 4.70527 50.1199 5.91399L48.091 8.07242C47.3571 7.29539 46.6232 6.77736 45.4577 6.77736C43.8173 6.77736 42.6517 8.2451 42.6517 9.92867V9.97184C42.6517 11.7418 43.8173 13.1663 45.5872 13.1663C46.7096 13.1663 47.4434 12.6915 48.2636 11.9144L50.2062 13.857C49.0839 15.1089 47.7888 15.9723 45.4577 15.9723C41.961 16.0586 39.4141 13.3822 39.4141 10.0582Z"/>
<path d="M51.6289 12.4755V12.4323C51.6289 9.88538 53.5715 8.71983 56.2911 8.71983C57.4567 8.71983 58.32 8.93567 59.1402 9.19468V8.97884C59.1402 7.59744 58.2769 6.86358 56.6365 6.86358C55.3846 6.86358 54.478 7.12259 53.442 7.51111L52.6218 5.00733C53.9169 4.44613 55.1687 4.05762 57.1113 4.05762C58.9244 4.05762 60.2195 4.53247 61.0397 5.35268C61.903 6.21605 62.2916 7.51111 62.2916 9.06518V15.7995H59.0971V14.5476C58.2769 15.4541 57.1977 16.0153 55.6004 16.0153C53.442 16.0153 51.6289 14.7634 51.6289 12.4755ZM59.1834 11.6985V11.0941C58.6222 10.8351 57.8884 10.6624 57.0682 10.6624C55.6436 10.6624 54.7802 11.2236 54.7802 12.2597V12.346C54.7802 13.2525 55.5141 13.7706 56.5933 13.7706C58.1474 13.7274 59.1834 12.9072 59.1834 11.6985Z"/>
<path d="M64.625 10.0151V9.97195C64.625 6.08677 67.172 3.97151 69.8916 3.97151C71.6615 3.97151 72.7407 4.79172 73.5177 5.69826V0H76.7986V15.7997H73.5177V14.1161C72.6975 15.1953 71.6183 16.0156 69.8916 16.0156C67.2151 16.0156 64.625 13.9003 64.625 10.0151ZM73.6041 10.0151V9.97195C73.6041 8.02936 72.309 6.77747 70.7981 6.77747C69.2872 6.77747 67.949 8.02936 67.949 9.97195V10.0151C67.949 11.9577 69.244 13.2096 70.7981 13.2096C72.3522 13.2096 73.6041 11.9577 73.6041 10.0151Z"/>
<path d="M79.2148 10.058V10.0148C79.2148 6.69081 81.5891 3.97119 84.9563 3.97119C88.8414 3.97119 90.6114 6.99299 90.6114 10.2738C90.6114 10.5328 90.5682 10.835 90.5682 11.1372H82.4957C82.841 12.6481 83.8771 13.4251 85.3448 13.4251C86.4672 13.4251 87.2442 13.0798 88.1507 12.2164L90.0502 13.9C88.971 15.2382 87.4169 16.0584 85.3016 16.0584C81.805 16.0584 79.2148 13.5978 79.2148 10.058ZM87.3737 9.10826C87.1579 7.64052 86.2945 6.64764 84.9131 6.64764C83.5317 6.64764 82.6683 7.64052 82.4093 9.10826H87.3737Z"/>
</g>
<g id="Tagline" transform="translate(133 18.5)" fill="#9B8579">
<path d="M9.0843e-05 2.76273L0.259092 2.59006C0.431766 2.93541 0.690781 3.10808 0.949792 3.10808C1.0793 3.10808 1.16564 3.06491 1.25198 3.02175C1.33831 2.97858 1.42465 2.89224 1.46782 2.8059C1.51099 2.71957 1.55415 2.63323 1.55415 2.54689C1.55415 2.41738 1.51099 2.33105 1.42465 2.24471C1.33831 2.11521 1.12247 1.94253 0.863463 1.72669C0.604451 1.51084 0.431772 1.38134 0.345434 1.295C0.215929 1.12233 0.172763 0.99282 0.172763 0.820146C0.172763 0.69064 0.215923 0.561135 0.259092 0.43163C0.345429 0.302124 0.431772 0.215785 0.561277 0.172617C0.690783 0.0862797 0.820286 0.086281 0.949792 0.086281C1.12247 0.086281 1.25197 0.129449 1.38148 0.215786C1.51098 0.302124 1.64049 0.43163 1.81316 0.647473L1.55415 0.863316C1.42464 0.690641 1.33831 0.604304 1.25198 0.561135C1.16564 0.517966 1.0793 0.474797 0.949792 0.474797C0.820286 0.474797 0.690789 0.517966 0.64762 0.604303C0.561283 0.69064 0.518106 0.776978 0.518106 0.906483C0.518106 0.992821 0.518109 1.03599 0.561277 1.12233C0.604446 1.20866 0.647612 1.25183 0.733949 1.33817C0.777118 1.38134 0.906624 1.46768 1.16564 1.64035C1.46782 1.85619 1.6405 2.02887 1.72684 2.20154C1.81317 2.37422 1.89951 2.54689 1.89951 2.6764C1.89951 2.89224 1.81317 3.10808 1.64049 3.28076C1.46782 3.45343 1.25198 3.53977 0.992963 3.53977C0.77712 3.53977 0.604441 3.4966 0.474935 3.36709C0.302261 3.15125 0.172765 2.97858 9.0843e-05 2.76273Z"/>
<path d="M3.67188 0.0864258H3.97405V3.36724H3.67188V0.0864258Z"/>
<path d="M5.87109 3.36704V0.129395H5.95744L8.11587 2.63317V0.129395H8.41805V3.36704H8.33171L6.17328 0.906429V3.36704H5.87109Z"/>
<path d="M13.3392 0.690697L13.0802 0.90654C12.9507 0.733866 12.778 0.60436 12.5622 0.474854C12.3463 0.388517 12.1305 0.345348 11.9146 0.345348C11.6556 0.345348 11.3966 0.388518 11.1808 0.518024C10.9649 0.647529 10.7923 0.820202 10.6627 1.03605C10.5332 1.25189 10.4901 1.46773 10.4901 1.72674C10.4901 2.11526 10.6196 2.46061 10.8786 2.71962C11.1376 2.97863 11.4829 3.10814 11.9146 3.10814C12.3895 3.10814 12.7348 2.93546 13.037 2.59012L13.296 2.76279C13.1234 2.97863 12.9507 3.10814 12.6917 3.23765C12.4327 3.36715 12.1737 3.41032 11.8715 3.41032C11.3103 3.41032 10.8786 3.23764 10.5332 2.84913C10.2742 2.54695 10.1016 2.15843 10.1016 1.68357C10.1016 1.20872 10.2742 0.820203 10.6196 0.474854C10.9649 0.172674 11.3535 0 11.8715 0C12.1737 0 12.4327 0.0431676 12.6917 0.172673C12.9939 0.302179 13.2097 0.474854 13.3392 0.690697Z"/>
<path d="M15.1525 0.0864258H17.0088V0.388605H15.4547V1.42465H16.9656V1.72683H15.4547V3.02189H16.9656V3.36724H15.1094V0.0864258H15.1525Z"/>
<path d="M21.4969 0.0864258H22.1444V3.36724H21.8422V0.431774H21.3242L21.4969 0.0864258Z"/>
<path d="M25.171 3.41032L24.912 3.23765L25.7753 1.89942C25.6458 1.94259 25.5595 1.94259 25.43 1.94259C25.171 1.94259 24.9551 1.85625 24.7825 1.68357C24.6098 1.5109 24.5234 1.25189 24.5234 0.992878C24.5234 0.820203 24.5666 0.647528 24.6529 0.474854C24.7393 0.345348 24.8688 0.215843 25.0415 0.129505C25.2141 0.0431683 25.3868 0 25.5595 0C25.7322 0 25.9048 0.0431683 26.0775 0.129505C26.2502 0.215843 26.3365 0.345348 26.4229 0.474854C26.5092 0.647528 26.5524 0.777034 26.5524 0.992878C26.5524 1.12238 26.5092 1.25189 26.466 1.42456C26.4229 1.59724 26.3365 1.72674 26.1638 1.94259L25.171 3.41032ZM25.5163 1.68357C25.689 1.68357 25.8617 1.59724 25.9912 1.46773C26.1207 1.33823 26.207 1.16555 26.207 0.992878C26.207 0.820203 26.1207 0.647529 25.9912 0.518024C25.8617 0.388518 25.689 0.302181 25.5163 0.302181C25.3436 0.302181 25.171 0.388518 25.0415 0.518024C24.912 0.647529 24.8256 0.820203 24.8256 0.992878C24.8256 1.16555 24.912 1.33823 25.0415 1.46773C25.171 1.59724 25.3436 1.68357 25.5163 1.68357Z"/>
<path d="M28.533 0.863173H28.1877C28.2309 0.604161 28.3604 0.388318 28.533 0.258812C28.7057 0.129306 28.9216 0.0429688 29.1374 0.0429688C29.3101 0.0429688 29.4828 0.086137 29.6123 0.172474C29.7418 0.258811 29.8713 0.345149 29.9576 0.474655C30.044 0.604161 30.0871 0.733667 30.0871 0.863173C30.0871 1.12218 29.9576 1.3812 29.6554 1.5107C29.8281 1.55387 29.9576 1.68338 30.0439 1.76971C30.1735 1.94239 30.2598 2.11506 30.2598 2.3309C30.2598 2.50358 30.2166 2.67625 30.1303 2.84893C30.044 3.0216 29.9144 3.15111 29.7418 3.23745C29.5691 3.32378 29.3964 3.36695 29.1806 3.36695C28.9216 3.36695 28.6626 3.28062 28.4899 3.10794C28.3172 2.93527 28.1877 2.71942 28.1445 2.41724H28.4467C28.4899 2.63309 28.5762 2.76259 28.7057 2.8921C28.8352 3.0216 29.0079 3.06477 29.2237 3.06477C29.4396 3.06477 29.6554 2.97843 29.7849 2.84893C29.9145 2.71942 30.0008 2.54675 30.0008 2.37407C30.0008 2.24457 29.9576 2.11506 29.9144 2.02873C29.8713 1.94239 29.7418 1.85605 29.6123 1.76971C29.4828 1.72654 29.3101 1.68338 29.0511 1.68338V1.3812C29.1806 1.3812 29.3533 1.33803 29.4396 1.29486C29.5691 1.25169 29.6554 1.16535 29.6986 1.07902C29.7418 0.992679 29.7849 0.906341 29.7849 0.820003C29.7849 0.690497 29.7418 0.560992 29.6123 0.474655C29.4828 0.388318 29.3532 0.301981 29.1806 0.301981C29.0511 0.301981 28.9216 0.34515 28.8352 0.431487C28.7489 0.517824 28.5762 0.64733 28.533 0.863173Z"/>
<path d="M32.3758 0.0864258H33.0233V3.36724H32.7212V0.431774H32.2031L32.3758 0.0864258Z"/>
</g>
</svg>
