<svg preserveAspectRatio="none" width="100%" height="100%" overflow="visible" style="display: block;" viewBox="0 0 23.1852 2.48504" fill="none" xmlns="http://www.w3.org/2000/svg">
<g id="Group">
<path id="Vector" d="M0 1.93953L0.181829 1.8183C0.303054 2.06075 0.484892 2.18198 0.666729 2.18198C0.757647 2.18198 0.818263 2.15167 0.878876 2.12136C0.939488 2.09106 1.0001 2.03044 1.03041 1.96983C1.06071 1.90922 1.09101 1.84861 1.09101 1.78799C1.09101 1.69708 1.06071 1.63647 1.0001 1.57585C0.939486 1.48493 0.787959 1.36371 0.606122 1.21218C0.424286 1.06065 0.303058 0.96973 0.242445 0.909118C0.151527 0.787894 0.121223 0.696975 0.121223 0.57575C0.121223 0.484832 0.151523 0.393914 0.181829 0.302996C0.242442 0.212077 0.303058 0.151464 0.393976 0.121158C0.484894 0.0605459 0.575811 0.0605469 0.666729 0.0605469C0.787954 0.0605469 0.878872 0.0908528 0.96979 0.151465C1.06071 0.212077 1.15163 0.302996 1.27285 0.454526L1.09101 0.606057C1.00009 0.484832 0.939488 0.42422 0.878876 0.393914C0.818263 0.363608 0.757647 0.333301 0.666729 0.333301C0.575811 0.333301 0.484898 0.363607 0.454592 0.424219C0.39398 0.484832 0.363668 0.545444 0.363668 0.636362C0.363668 0.696975 0.36367 0.727281 0.393976 0.787893C0.424282 0.848505 0.454586 0.878811 0.515199 0.939424C0.545505 0.96973 0.636423 1.03034 0.81826 1.15157C1.0304 1.3031 1.15163 1.42432 1.21224 1.54555C1.27286 1.66677 1.33347 1.788 1.33347 1.87891C1.33347 2.03044 1.27285 2.18197 1.15163 2.3032C1.0304 2.42442 0.878874 2.48504 0.697037 2.48504C0.545506 2.48504 0.424278 2.45473 0.33336 2.36381C0.212135 2.21228 0.121224 2.09106 0 1.93953Z" fill="var(--fill-0, #9B8579)"/>
<path id="Vector_2" d="M2.57812 0.0605469H2.79026V2.36381H2.57812V0.0605469Z" fill="var(--fill-0, #9B8579)"/>
<path id="Vector_3" d="M4.12109 2.36378V0.0908203H4.18171L5.69702 1.84858V0.0908203H5.90916V2.36378H5.84855L4.33324 0.63633V2.36378H4.12109Z" fill="var(--fill-0, #9B8579)"/>
<path id="Vector_4" d="M9.3628 0.484897L9.18096 0.636428C9.09005 0.515204 8.96882 0.424285 8.81729 0.333367C8.66576 0.272755 8.51423 0.242449 8.3627 0.242449C8.18086 0.242449 7.99903 0.272755 7.8475 0.363674C7.69597 0.454592 7.57474 0.575816 7.48382 0.727346C7.3929 0.878877 7.3626 1.03041 7.3626 1.21224C7.3626 1.485 7.45351 1.72745 7.63535 1.90929C7.81719 2.09112 8.05963 2.18204 8.3627 2.18204C8.69606 2.18204 8.93851 2.06082 9.15066 1.81837L9.33249 1.93959C9.21127 2.09112 9.09005 2.18204 8.90821 2.27296C8.72637 2.36388 8.54454 2.39418 8.3324 2.39418C7.93842 2.39418 7.63535 2.27296 7.3929 2.0002C7.21107 1.78806 7.08984 1.51531 7.08984 1.18194C7.08984 0.848571 7.21106 0.575816 7.45351 0.333367C7.69596 0.121224 7.96872 0 8.3324 0C8.54454 0 8.72637 0.0303054 8.90821 0.121224C9.12035 0.212142 9.27188 0.333367 9.3628 0.484897Z" fill="var(--fill-0, #9B8579)"/>
<path id="Vector_5" d="M10.6358 0.0605469H11.9389V0.272689H10.8479V1.00004H11.9086V1.21218H10.8479V2.12136H11.9086V2.36381H10.6055V0.0605469H10.6358Z" fill="var(--fill-0, #9B8579)"/>
<path id="Vector_6" d="M15.09 0.0605469H15.5446V2.36381H15.3324V0.302996H14.9688L15.09 0.0605469Z" fill="var(--fill-0, #9B8579)"/>
<path id="Vector_7" d="M17.6694 2.39418L17.4876 2.27296L18.0937 1.33347C18.0028 1.36377 17.9422 1.36378 17.8513 1.36378C17.6694 1.36378 17.5179 1.30316 17.3967 1.18194C17.2755 1.06071 17.2148 0.878877 17.2148 0.697041C17.2148 0.575816 17.2451 0.454591 17.3058 0.333367C17.3664 0.242449 17.4573 0.15153 17.5785 0.0909181C17.6997 0.0303059 17.821 0 17.9422 0C18.0634 0 18.1846 0.0303059 18.3059 0.0909181C18.4271 0.15153 18.4877 0.242449 18.5483 0.333367C18.6089 0.454591 18.6392 0.54551 18.6392 0.697041C18.6392 0.787959 18.6089 0.878877 18.5786 1.0001C18.5483 1.12133 18.4877 1.21224 18.3665 1.36378L17.6694 2.39418ZM17.9119 1.18194C18.0331 1.18194 18.1543 1.12133 18.2453 1.03041C18.3362 0.939489 18.3968 0.818265 18.3968 0.697041C18.3968 0.575816 18.3362 0.454592 18.2453 0.363674C18.1543 0.272755 18.0331 0.212143 17.9119 0.212143C17.7907 0.212143 17.6694 0.272755 17.5785 0.363674C17.4876 0.454592 17.427 0.575816 17.427 0.697041C17.427 0.818265 17.4876 0.939489 17.5785 1.03041C17.6694 1.12133 17.7907 1.18194 17.9119 1.18194Z" fill="var(--fill-0, #9B8579)"/>
<path id="Vector_8" d="M20.0306 0.60609H19.7881C19.8184 0.424253 19.9093 0.272722 20.0306 0.181804C20.1518 0.0908857 20.3033 0.0302734 20.4549 0.0302734C20.5761 0.0302734 20.6973 0.0605793 20.7882 0.121192C20.8791 0.181804 20.9701 0.242416 21.0307 0.333335C21.0913 0.424253 21.1216 0.515172 21.1216 0.60609C21.1216 0.787927 21.0307 0.969764 20.8185 1.06068C20.9398 1.09099 21.0307 1.18191 21.0913 1.24252C21.1822 1.36374 21.2428 1.48497 21.2428 1.6365C21.2428 1.75772 21.2125 1.87895 21.1519 2.00017C21.0913 2.1214 21.0004 2.21231 20.8791 2.27293C20.7579 2.33354 20.6367 2.36385 20.4852 2.36385C20.3033 2.36385 20.1215 2.30323 20.0003 2.18201C19.879 2.06078 19.7881 1.90925 19.7578 1.69711H19.97C20.0003 1.84864 20.0609 1.93956 20.1518 2.03048C20.2427 2.1214 20.3639 2.1517 20.5155 2.1517C20.667 2.1517 20.8185 2.09109 20.9095 2.00017C21.0004 1.90925 21.061 1.78803 21.061 1.6668C21.061 1.57589 21.0307 1.48497 21.0004 1.42436C20.9701 1.36374 20.8791 1.30313 20.7882 1.24252C20.6973 1.21221 20.5761 1.18191 20.3942 1.18191V0.969764C20.4852 0.969764 20.6064 0.939458 20.667 0.909151C20.7579 0.878845 20.8185 0.818233 20.8488 0.757621C20.8791 0.697009 20.9095 0.636396 20.9095 0.575783C20.9095 0.484865 20.8791 0.393947 20.7882 0.333335C20.6973 0.272722 20.6064 0.212111 20.4852 0.212111C20.3942 0.212111 20.3033 0.242417 20.2427 0.303029C20.1821 0.363641 20.0609 0.45456 20.0306 0.60609Z" fill="var(--fill-0, #9B8579)"/>
<path id="Vector_9" d="M22.7306 0.0605469H23.1852V2.36381H22.9731V0.302996H22.6094L22.7306 0.0605469Z" fill="var(--fill-0, #9B8579)"/>
</g>
</svg>
