<svg preserveAspectRatio="none" width="100%" height="100%" overflow="visible" style="display: block;" viewBox="0 0 51.036 11.2743" fill="none" xmlns="http://www.w3.org/2000/svg">
<g id="Group">
<path id="Vector" d="M0 0.454622H2.51541L4.72775 7.66748L7.12194 0.424316H9.12214L11.5163 7.66748L13.7287 0.454622H16.1835L12.5467 11.183H10.5162L8.12204 4.21258L5.72786 11.183H3.69735L0 0.454622Z" fill="var(--fill-0, #5D5DDF)"/>
<path id="Vector_2" d="M15.8516 8.75833V8.72802C15.8516 6.93996 17.2153 6.12169 19.1246 6.12169C19.9429 6.12169 20.549 6.27322 21.1248 6.45506V6.30353C21.1248 5.33373 20.5187 4.81853 19.3671 4.81853C18.4882 4.81853 17.8518 5.00037 17.1244 5.27312L16.5486 3.51537C17.4578 3.12139 18.3367 2.84863 19.7004 2.84863C20.9733 2.84863 21.8825 3.182 22.4583 3.75782C23.0644 4.36394 23.3372 5.27312 23.3372 6.36414V11.0919H21.0945V10.213C20.5187 10.8494 19.7611 11.2434 18.6397 11.2434C17.1244 11.2434 15.8516 10.3646 15.8516 8.75833ZM21.1551 8.21282V7.78853C20.7612 7.60669 20.2459 7.48547 19.6701 7.48547C18.67 7.48547 18.0639 7.87945 18.0639 8.6068V8.6371C18.0639 9.27353 18.5791 9.6372 19.3368 9.6372C20.4278 9.6372 21.1551 9.06139 21.1551 8.21282Z" fill="var(--fill-0, #5D5DDF)"/>
<path id="Vector_3" d="M25.3357 2.93997H27.639V4.0916C28.1845 3.39456 28.8512 2.78844 30.0332 2.78844C31.7909 2.78844 32.791 3.94007 32.791 5.81905V11.0923H30.4878V6.5464C30.4878 5.45538 29.9726 4.87956 29.0937 4.87956C28.2148 4.87956 27.639 5.45538 27.639 6.5464V11.0923H25.3357V2.93997Z" fill="var(--fill-0, #5D5DDF)"/>
<path id="Vector_4" d="M34.793 0H37.0962V5.90969L39.7935 2.93969H42.5513L39.4601 6.15214L42.6726 11.092H40.0056L37.9145 7.75837L37.0962 8.63724V11.1223H34.793V0Z" fill="var(--fill-0, #5D5DDF)"/>
<path id="Vector_5" d="M43.0352 7.06174V7.03143C43.0352 4.69786 44.702 2.78857 47.0659 2.78857C49.7934 2.78857 51.036 4.91 51.036 7.21327C51.036 7.39511 51.0057 7.60725 51.0057 7.81939H45.3384C45.5809 8.8801 46.3082 9.42561 47.3386 9.42561C48.1266 9.42561 48.6721 9.18317 49.3085 8.57704L50.642 9.75898C49.8843 10.6985 48.7933 11.2743 47.3083 11.2743C44.8232 11.2743 43.0352 9.54684 43.0352 7.06174ZM48.763 6.395C48.6115 5.36459 48.0054 4.66755 47.0356 4.66755C46.0658 4.66755 45.4596 5.36459 45.2778 6.395H48.763Z" fill="var(--fill-0, #5D5DDF)"/>
</g>
</svg>
