<svg preserveAspectRatio="none" width="100%" height="100%" overflow="visible" style="display: block;" viewBox="0 0 63.6102 11.2738" fill="none" xmlns="http://www.w3.org/2000/svg">
<g id="Group">
<path id="Vector" d="M0 5.7887V5.75839C0 2.72778 2.27296 0.242676 5.54602 0.242676C7.54623 0.242676 8.75847 0.909411 9.72826 1.87921L8.24326 3.60666C7.425 2.849 6.57643 2.39441 5.51571 2.39441C3.72765 2.39441 2.42449 3.87941 2.42449 5.69778V5.72808C2.42449 7.54645 3.69735 9.06176 5.51571 9.06176C6.72796 9.06176 7.48561 8.57686 8.30388 7.81921L9.78888 9.33451C8.69786 10.5165 7.48561 11.2438 5.42479 11.2438C2.33357 11.2741 0 8.84962 0 5.7887Z" fill="var(--fill-0, #9B8579)"/>
<path id="Vector_2" d="M10.9414 8.75833V8.72802C10.9414 6.93996 12.3052 6.12169 14.2145 6.12169C15.0327 6.12169 15.6389 6.27323 16.2147 6.45506V6.30353C16.2147 5.33374 15.6086 4.81853 14.4569 4.81853C13.578 4.81853 12.9416 5.00037 12.2143 5.27312L11.6384 3.51537C12.5476 3.12139 13.4265 2.84863 14.7903 2.84863C16.0631 2.84863 16.9723 3.182 17.5481 3.75782C18.1543 4.36394 18.427 5.27312 18.427 6.36414V11.0919H16.1844V10.213C15.6086 10.8494 14.8509 11.2434 13.7296 11.2434C12.2143 11.2434 10.9414 10.3646 10.9414 8.75833ZM16.245 8.21282V7.78853C15.851 7.60669 15.3358 7.48547 14.76 7.48547C13.7599 7.48547 13.1538 7.87945 13.1538 8.6068V8.66741C13.1538 9.30384 13.669 9.66751 14.4266 9.66751C15.5176 9.6372 16.245 9.06139 16.245 8.21282Z" fill="var(--fill-0, #9B8579)"/>
<path id="Vector_3" d="M19.7891 10.0009L20.7892 8.4856C21.668 9.12203 22.6075 9.4554 23.3652 9.4554C24.0319 9.4554 24.335 9.21295 24.335 8.84928V8.81897C24.335 8.30377 23.547 8.15224 22.6378 7.87948C21.4862 7.54611 20.2133 7.0006 20.2133 5.42469V5.39438C20.2133 3.72754 21.5468 2.81836 23.1833 2.81836C24.2138 2.81836 25.3351 3.18203 26.214 3.75785L25.3351 5.36407C24.5168 4.87918 23.7289 4.60642 23.1227 4.60642C22.5469 4.60642 22.2742 4.84887 22.2742 5.18224V5.21254C22.2742 5.66713 23.0621 5.87928 23.941 6.18234C25.0926 6.57632 26.3958 7.12183 26.3958 8.60683V8.63713C26.3958 10.4555 25.032 11.2738 23.2743 11.2738C22.1529 11.2435 20.8801 10.8798 19.7891 10.0009Z" fill="var(--fill-0, #9B8579)"/>
<path id="Vector_4" d="M27.668 7.06125V7.03094C27.668 4.69737 29.456 2.78809 31.9411 2.78809C33.4867 2.78809 34.4262 3.30329 35.1839 4.15186L33.7595 5.66717C33.2443 5.12166 32.7291 4.75798 31.9108 4.75798C30.7592 4.75798 29.9409 5.78839 29.9409 6.97033V7.00064C29.9409 8.24319 30.7592 9.24329 32.0017 9.24329C32.7897 9.24329 33.3049 8.90992 33.8807 8.36441L35.2445 9.72819C34.4565 10.6071 33.5474 11.2132 31.9108 11.2132C29.456 11.2738 27.668 9.39482 27.668 7.06125Z" fill="var(--fill-0, #9B8579)"/>
<path id="Vector_5" d="M36.2422 8.75833V8.72802C36.2422 6.93996 37.606 6.12169 39.5153 6.12169C40.3335 6.12169 40.9396 6.27323 41.5155 6.45506V6.30353C41.5155 5.33374 40.9093 4.81853 39.7577 4.81853C38.8788 4.81853 38.2424 5.00037 37.515 5.27312L36.9392 3.51537C37.8484 3.12139 38.7273 2.84863 40.0911 2.84863C41.3639 2.84863 42.2731 3.182 42.8489 3.75782C43.4551 4.36394 43.7278 5.27312 43.7278 6.36414V11.0919H41.4852V10.213C40.9093 10.8494 40.1517 11.2434 39.0304 11.2434C37.515 11.2434 36.2422 10.3646 36.2422 8.75833ZM41.5458 8.21282V7.78853C41.1518 7.60669 40.6366 7.48547 40.0608 7.48547C39.0607 7.48547 38.4545 7.87945 38.4545 8.6068V8.66741C38.4545 9.30384 38.9697 9.66751 39.7274 9.66751C40.8184 9.6372 41.5458 9.06139 41.5458 8.21282Z" fill="var(--fill-0, #9B8579)"/>
<path id="Vector_6" d="M45.3672 7.03102V7.00071C45.3672 4.27316 47.1553 2.78816 49.0645 2.78816C50.3071 2.78816 51.0647 3.36398 51.6103 4.00041V0H53.9135V11.092H51.6103V9.9101C51.0344 10.6678 50.2768 11.2436 49.0645 11.2436C47.1856 11.2436 45.3672 9.75857 45.3672 7.03102ZM51.6709 7.03102V7.00071C51.6709 5.63694 50.7617 4.75806 49.701 4.75806C48.6402 4.75806 47.7008 5.63694 47.7008 7.00071V7.03102C47.7008 8.3948 48.6099 9.27367 49.701 9.27367C50.792 9.27367 51.6709 8.3948 51.6709 7.03102Z" fill="var(--fill-0, #9B8579)"/>
<path id="Vector_7" d="M55.6094 7.06125V7.03094C55.6094 4.69737 57.2762 2.78809 59.6401 2.78809C62.3676 2.78809 63.6102 4.90951 63.6102 7.21278C63.6102 7.39462 63.5799 7.60676 63.5799 7.8189H57.9126C58.1551 8.87962 58.8824 9.42513 59.9128 9.42513C60.7008 9.42513 61.2463 9.18268 61.8827 8.57656L63.2162 9.75849C62.4586 10.698 61.3675 11.2738 59.8825 11.2738C57.4277 11.2738 55.6094 9.54635 55.6094 7.06125ZM61.3372 6.39451C61.1857 5.36411 60.5796 4.66707 59.6098 4.66707C58.64 4.66707 58.0339 5.36411 57.852 6.39451H61.3372Z" fill="var(--fill-0, #9B8579)"/>
</g>
</svg>
