<svg preserveAspectRatio="xMinYMid meet" width="192" height="38" overflow="visible" style="display: block;" viewBox="0 0 192 37.4961" fill="none" xmlns="http://www.w3.org/2000/svg">
<g id="Logo - traced subline 1" clip-path="url(#clip0_0_37)">
<path id="Vector" fill-rule="evenodd" clip-rule="evenodd" d="M16.7554 0.108175C9.40841 0.939711 3.26756 5.88696 0.937392 12.8517C0.310601 14.725 0.108379 15.9096 0.0375387 18.122C-0.0774195 21.7132 0.552657 24.5469 2.12846 27.5252C4.78149 32.5396 9.41125 35.9991 15.1132 37.2277C16.1151 37.4437 16.5792 37.4755 18.7262 37.4755C20.8717 37.4755 21.3361 37.4438 22.326 37.229C26.5286 36.3175 30.0883 34.2805 32.7569 31.2603C39.2747 23.8836 39.0568 12.8655 32.2536 5.80472C29.6344 3.08645 26.4644 1.29079 22.8822 0.496274C20.6992 0.0120307 18.7152 -0.113622 16.7554 0.108175ZM17.2239 1.30513C14.2996 1.54511 11.1524 2.68376 8.66926 4.40036C7.60134 5.13862 5.74286 6.91893 4.88055 8.02965C2.30953 11.3416 1.07936 15.2079 1.24054 19.47C1.30962 21.2957 1.52017 22.5789 1.99498 24.0684C3.94554 30.1877 8.92785 34.6526 15.3321 36.0206C16.308 36.229 16.821 36.2665 18.7261 36.2683C21.256 36.2708 22.2763 36.1131 24.4193 35.3882C30.6962 33.2651 35.2705 27.6752 36.1415 21.0629C36.3487 19.4907 36.214 16.4073 35.8761 14.9862C34.7973 10.449 32.2853 6.77468 28.5301 4.2411C26.0243 2.55044 23.1734 1.55851 20.0842 1.30266C18.6637 1.18497 18.6901 1.18492 17.2239 1.30513ZM17.6819 7.00614C13.1305 7.48503 10.0268 9.8837 8.34761 14.2198C7.74008 15.7885 7.61856 16.554 7.61769 18.8181C7.61693 20.8508 7.63311 21.016 7.95589 22.2669C8.56878 24.6416 9.27627 26.0082 10.6105 27.3948C11.7973 28.628 13.1516 29.4782 14.9695 30.1313C18.016 31.2254 22.6525 30.9535 25.1759 29.5326C27.9123 27.9917 29.7297 25.2404 30.0669 22.1285L30.1412 21.4426L26.7141 21.4716L23.2871 21.5005L23.1446 22.1275C22.8407 23.466 22.0762 24.5214 21.0453 25.0258C20.5031 25.2911 20.3011 25.3279 19.3855 25.3281C18.1077 25.3284 17.4083 25.1113 16.7119 24.4983C15.2357 23.1988 14.6253 19.6299 15.3192 16.3548C15.6119 14.9734 15.9247 14.2142 16.4445 13.6238C17.1288 12.8465 17.8063 12.5473 19.0115 12.4904C21.1575 12.3892 22.4616 13.2619 23.025 15.1765L23.2589 15.9716H30.003L30.0016 15.7252C29.9984 15.1754 29.571 13.4523 29.2416 12.661C28.134 10.0005 26.1164 8.33199 22.869 7.39085C21.2863 6.93223 19.5838 6.80602 17.6819 7.00614Z" fill="var(--fill-0, #2E2E2E)"/>
<g id="Vector_2">
<path d="M72.1554 10.7493C72.1554 9.85604 72.1892 9.09151 72.2305 9.05023C72.2718 9.00897 73.368 8.98835 74.6665 9.00456L77.0275 9.03402L77.0879 12.3733H72.1554V10.7493Z" fill="var(--fill-0, #2E2E2E)"/>
<path d="M113.969 12.0722C114.223 11.1237 114.456 10.2615 114.486 10.1562C114.535 9.98345 114.723 9.96464 116.394 9.96464H118.248V13.7966H120.876V17.1906H118.238L118.27 20.1015L118.303 23.0125L118.61 23.2766C118.885 23.5133 119.019 23.5406 119.9 23.5406H120.882L120.821 26.5466L120.219 26.6866C119.888 26.7635 119.049 26.8578 118.355 26.8961C116.269 27.011 114.861 26.636 114.067 25.7543C113.374 24.9859 113.321 24.6253 113.321 20.6741V17.1906H111.57V13.7966H113.508L113.969 12.0722Z" fill="var(--fill-0, #2E2E2E)"/>
<path d="M84.597 15.3516C85.1721 14.6168 86.7237 13.8005 87.9591 13.5829C88.7233 13.4482 90.0358 13.5531 90.7641 13.807C91.8603 14.1891 92.6785 15.0649 93.0858 16.292C93.32 16.9975 93.3311 17.2152 93.3705 21.8163L93.4116 26.6063H88.4783L88.4461 22.4185C88.4143 18.2886 88.4104 18.2253 88.1665 17.8331C87.8501 17.3243 87.4256 17.1501 86.657 17.2138C86.0145 17.2672 85.6343 17.4787 85.2456 17.9991C85.0282 18.29 85.0186 18.4559 84.9887 22.4537L84.9575 26.6062H80.0383V13.7966H84.0665L84.2008 14.7415L84.3349 15.6865L84.597 15.3516Z" fill="var(--fill-0, #2E2E2E)"/>
<path d="M123.065 16.0456C123.731 14.683 125.338 13.8311 127.719 13.5791C128.878 13.4562 129.378 13.4576 130.456 13.5871C133.357 13.9356 135.058 15.2026 135.293 17.1907L135.358 17.738H130.729L130.726 17.4917C130.717 16.894 130.06 16.5337 128.98 16.5337C127.948 16.5337 127.445 16.7416 127.445 17.168C127.445 17.6546 127.757 17.8428 128.94 18.0682C129.533 18.1812 130.64 18.3933 131.401 18.5397C133.609 18.9639 134.715 19.5999 135.293 20.7774C135.569 21.3394 135.6 21.5155 135.591 22.4458C135.569 24.7863 134.404 26.0402 131.66 26.6768C130.44 26.9597 127.737 26.9614 126.538 26.68C124.13 26.1153 122.409 24.5046 122.409 22.8165V22.4459H126.863L126.992 22.8783C127.224 23.6522 128.184 24.0639 129.475 23.9434C130.586 23.8397 131.08 23.4703 130.893 22.8826C130.78 22.5261 130.31 22.3612 128.247 21.9542C125.208 21.3546 124.641 21.1503 123.757 20.3354C122.936 19.5791 122.791 19.1948 122.795 17.7928C122.799 16.745 122.834 16.5178 123.065 16.0456Z" fill="var(--fill-0, #2E2E2E)"/>
<path d="M72.1554 26.6062V20.2014V13.7966H77.0821V26.6062H72.1554Z" fill="var(--fill-0, #2E2E2E)"/>
<path fill-rule="evenodd" clip-rule="evenodd" d="M44.2225 13.5784C41.1311 13.9338 39.2054 15.3506 39.2019 17.2727L39.2008 17.8475H43.9728L44.0775 17.4958C44.2356 16.9652 44.7657 16.7073 45.71 16.7022C46.2928 16.699 46.5752 16.7523 46.8647 16.9206C47.3171 17.1835 47.6306 17.7464 47.6308 18.2959L47.631 18.6896L46.0161 18.7626C42.4423 18.9238 40.7242 19.4322 39.6578 20.6437C39.0923 21.2862 38.8086 21.8694 38.8086 23.8215C38.8086 24.4533 39.2354 26.9322 43.3064 26.9312C44.9273 26.9308 46.382 26.5084 47.5901 25.6875L48.004 25.4062L48.3213 25.791C48.9887 26.6008 50.3496 27.0078 52.045 26.905C52.6104 26.8707 53.29 26.7545 53.5979 26.6395L54.1453 26.4351V23.5955L53.5445 23.5614C53.2128 23.5427 52.9925 23.5399 52.8462 23.4345C52.5446 23.2171 52.5576 22.563 52.5571 20.4308C52.5565 17.4386 52.4788 16.6738 52.0983 15.912C51.5945 14.9033 50.2952 14.1232 48.5064 13.7557C47.4683 13.5424 45.3125 13.4531 44.2225 13.5784ZM43.6895 22.7427C43.6895 22.0478 44.2412 21.587 45.413 21.303C45.7598 21.219 46.4006 21.1461 46.8372 21.1411L47.631 21.132V21.7633C47.631 22.1575 47.559 22.5265 47.4394 22.746C46.6404 24.2121 43.6895 24.2095 43.6895 22.7427Z" fill="var(--fill-0, #2E2E2E)"/>
<path fill-rule="evenodd" clip-rule="evenodd" d="M55.9174 9.05025C55.8761 9.09153 55.8423 13.0585 55.8423 17.8658V26.6063H59.8532L60.0437 25.7985L60.234 24.9907L60.8109 25.5675C61.7363 26.4929 62.8607 26.9347 64.2902 26.9347C66.9931 26.9347 68.8561 25.4133 69.4577 22.7146C70.1972 19.3978 69.4071 15.9137 67.6026 14.5349C65.8609 13.2038 62.908 13.168 61.2956 14.4585C61.0732 14.6365 60.8647 14.782 60.832 14.782C60.7994 14.782 60.7596 13.4887 60.7436 11.908L60.7143 9.03404L58.3534 9.00459C57.0548 8.98837 55.9587 9.009 55.9174 9.05025ZM60.7189 20.3174C60.7133 18.6757 61.007 17.8808 61.797 17.3991C62.2558 17.1193 63.3146 17.1161 63.8363 17.393C64.0569 17.51 64.3318 17.7989 64.4879 18.0773C64.7262 18.5023 64.7632 18.7218 64.8014 19.9389C64.8701 22.1218 64.5269 22.9078 63.369 23.2196C62.3588 23.4917 61.4885 23.0927 61.025 22.1456C60.7518 21.5872 60.7226 21.4125 60.7189 20.3174Z" fill="var(--fill-0, #2E2E2E)"/>
<path fill-rule="evenodd" clip-rule="evenodd" d="M101.442 13.5929C98.4761 13.9684 96.4678 15.6205 95.8641 18.1818C95.4644 19.8779 95.7256 22.4731 96.4293 23.7952C97.1258 25.104 98.5466 26.1266 100.365 26.6277C101.524 26.9472 104.739 26.9767 105.931 26.6788C108.435 26.0537 109.826 24.6655 110.093 22.526L110.172 21.8984H105.329V22.1776C105.329 22.7855 104.791 23.423 104.088 23.6482C103.478 23.8437 102.195 23.7518 101.661 23.4746C101.163 23.2156 100.684 22.3898 100.574 21.5986L100.51 21.1343L105.301 21.1059L110.092 21.0773L110.076 19.9218C110.052 18.1267 109.568 16.6294 108.676 15.5872C107.334 14.0188 104.421 13.2158 101.442 13.5929ZM100.79 17.9848C101.068 17.3186 101.523 16.9482 102.318 16.7393C102.842 16.6018 103.756 16.7157 104.219 16.9764C104.709 17.2514 105.11 17.8849 105.11 18.3824V18.7234H102.866C101.265 18.7234 100.731 18.7372 100.639 18.5426C100.588 18.4342 100.674 18.261 100.79 17.9848Z" fill="var(--fill-0, #2E2E2E)"/>
</g>
<path id="Vector_3" fill-rule="evenodd" clip-rule="evenodd" d="M155.436 9.05021C155.395 9.09148 155.361 13.0584 155.361 17.8658V26.6062H160.289L160.233 9.03402L157.872 9.00457C156.573 8.98835 155.477 9.00895 155.436 9.05021ZM138.172 18.2854V26.6062H143.646V21.2415H146.1C148.767 21.2415 149.331 21.1501 150.35 20.553C151.415 19.9289 152.418 18.5171 152.739 17.1906C152.926 16.4201 152.927 14.7917 152.741 14.0155C152.412 12.6386 151.423 11.2998 150.215 10.5927C149.191 9.99363 148.871 9.96462 143.295 9.96462H138.172V18.2854ZM184.1 13.579C181.72 13.831 180.113 14.683 179.446 16.0456C179.216 16.5178 179.181 16.745 179.177 17.7927C179.173 19.1948 179.318 19.5791 180.139 20.3354C181.023 21.1503 181.59 21.3546 184.629 21.9541C186.692 22.3612 187.162 22.5261 187.275 22.8825C187.462 23.4703 186.968 23.8396 185.857 23.9433C184.566 24.0639 183.606 23.6521 183.374 22.8783L183.245 22.4458H178.791V22.8164C178.791 24.5046 180.512 26.1153 182.919 26.68C184.119 26.9614 186.822 26.9596 188.042 26.6767C190.786 26.0402 191.951 24.7862 191.973 22.4458C191.982 21.5154 191.951 21.3394 191.675 20.7774C191.097 19.5999 189.99 18.9639 187.783 18.5396C187.022 18.3932 185.915 18.1812 185.322 18.0682C184.139 17.8427 183.827 17.6545 183.827 17.168C183.827 16.7416 184.33 16.5336 185.361 16.5336C186.442 16.5336 187.099 16.894 187.108 17.4916L187.111 17.738H191.74L191.675 17.1906C191.44 15.2025 189.739 13.9356 186.838 13.5871C185.76 13.4576 185.26 13.4561 184.1 13.579M163.27 18.5865C163.317 23.702 163.332 23.8465 163.913 24.9883C165.137 27.3903 169.387 27.6073 171.733 25.3877L172.305 24.847L172.367 25.2065C172.401 25.4043 172.462 25.8 172.502 26.0861L172.575 26.6062H176.601V13.7924L171.729 13.8513L171.674 17.957C171.621 21.9374 171.612 22.0743 171.38 22.4458C171.034 23.0014 170.535 23.2603 169.805 23.2619C169.05 23.2636 168.666 23.0333 168.383 22.4099C168.191 21.9881 168.175 21.6404 168.173 17.8748L168.17 13.7966H163.226L163.27 18.5865M143.646 15.6578V17.3001H144.909C146.37 17.3001 146.816 17.1649 147.147 16.6223C147.418 16.1776 147.448 15.1425 147.202 14.6688C146.921 14.1253 146.555 14.0155 145.02 14.0155H143.646V15.6578Z" fill="var(--fill-0, #B23A3A)"/>
</g>
<defs>
<clipPath id="clip0_0_37">
<rect width="192" height="37.4961" fill="white"/>
</clipPath>
</defs>
</svg>
