<svg preserveAspectRatio="none" width="100%" height="100%" overflow="visible" style="display: block;" viewBox="0 0 40 40" fill="none" xmlns="http://www.w3.org/2000/svg">
<g id="Frame" clip-path="url(#clip0_0_22)">
<path id="Vector" d="M12.5667 38.5833C12.3445 36.3056 12.4889 34.1222 13 32.0333L15 23.4C14.6332 22.2859 14.4366 21.1228 14.4167 19.95C14.4167 17.15 15.7667 15.15 17.9 15.15C19.3667 15.15 20.45 16.1833 20.45 18.15C20.45 18.7833 20.3222 19.4944 20.0667 20.2833L19.2 23.15C19.0333 23.7056 18.95 24.2167 18.95 24.6833C18.95 26.6833 20.4667 27.8 22.4167 27.8C25.9 27.8 28.3667 24.2 28.3667 19.5333C28.3667 14.3333 24.9667 11 19.95 11C14.35 11 10.8 14.65 10.8 19.7333C10.8 21.7667 11.4333 23.6667 12.65 24.9667C12.25 25.65 11.8167 25.7667 11.1833 25.7667C9.18334 25.7667 7.28334 22.95 7.28334 19.1C7.28334 12.4333 12.6167 7.15 20.0833 7.15C27.9167 7.15 32.85 12.6333 32.85 19.3667C32.85 26.1 28.05 31.2833 22.8833 31.2833C21.9001 31.2963 20.9274 31.0802 20.0422 30.652C19.1569 30.2239 18.3836 29.5955 17.7833 28.8167L16.75 32.9833C16.2325 35.1705 15.3173 37.2439 14.05 39.1C17.0445 40.0406 20.2185 40.262 23.3145 39.7462C26.4105 39.2304 29.3413 37.992 31.8692 36.1315C34.397 34.2709 36.4505 31.8406 37.8632 29.0378C39.276 26.2351 40.008 23.1387 40 20C40 14.6957 37.8929 9.60859 34.1421 5.85786C30.3914 2.10714 25.3043 0 20 0C14.6957 0 9.6086 2.10714 5.85787 5.85786C2.10714 9.60859 6.40774e-06 14.6957 6.40774e-06 20C-0.00319387 23.9989 1.19243 27.9069 3.43251 31.2195C5.67258 34.5321 8.85424 37.0971 12.5667 38.5833Z" fill="var(--fill-0, #2E2E2E)"/>
</g>
<defs>
<clipPath id="clip0_0_22">
<rect width="40" height="40" fill="white"/>
</clipPath>
</defs>
</svg>
