<svg preserveAspectRatio="none" width="100%" height="100%" overflow="visible" style="display: block;" viewBox="0 0 39.6494 40" fill="none" xmlns="http://www.w3.org/2000/svg">
<path id="Union" d="M28.707 0C34.7405 0 39.6494 4.95178 39.6494 11.0381V28.9619C39.6492 35.0482 34.7405 40 28.707 40H10.9414C4.90847 40 0.000251911 35.0484 0 28.9619V11.0381C0.000251697 4.9518 4.90847 4.5784e-05 10.9414 0H28.707ZM10.9414 3.54883C6.84828 3.54898 3.51779 6.90875 3.51758 11.0381V28.9609C3.51758 33.0907 6.84815 36.4513 10.9414 36.4512H28.708C32.8014 36.4509 36.1318 33.0906 36.1318 28.9609V11.0381C36.1316 6.90865 32.8005 3.54883 28.707 3.54883H10.9414ZM19.8242 9.69336C25.4572 9.69375 30.0407 14.3172 30.041 20C30.041 25.6829 25.4574 30.3063 19.8242 30.3066C14.1907 30.3066 9.60742 25.6831 9.60742 20C9.60774 14.3169 14.1909 9.69336 19.8242 9.69336ZM19.8242 13.2432C16.1306 13.2432 13.1262 16.2748 13.126 20.001C13.126 23.7272 16.1307 26.7587 19.8242 26.7588C23.5175 26.7585 26.5234 23.727 26.5234 20.001C26.5232 16.2749 23.5176 13.2434 19.8242 13.2432ZM30.4707 6.68457C31.1507 6.68466 31.8166 6.9614 32.2949 7.44629C32.7757 7.92894 33.0498 8.60099 33.0498 9.28711C33.0498 9.97088 32.7757 10.6429 32.2949 11.1279C31.8142 11.6105 31.1507 11.8896 30.4707 11.8896C29.793 11.8896 29.1269 11.6105 28.6484 11.1279C28.1677 10.6429 27.8906 9.97112 27.8906 9.28711C27.8906 8.60099 28.1674 7.92894 28.6484 7.44629C29.1271 6.96139 29.793 6.68457 30.4707 6.68457Z" fill="var(--fill-0, #2E2E2E)"/>
</svg>
