<svg preserveAspectRatio="none" width="100%" height="100%" overflow="visible" style="display: block;" viewBox="0 0 221.213 48.2613" fill="none" xmlns="http://www.w3.org/2000/svg">
<g id="cambria-logo 2" clip-path="url(#clip0_0_2042)">
<g id="Group">
<path id="Vector" d="M46.7125 22.0235C44.4512 20.8559 39.2158 18.5947 33.3783 18.5332C29.2244 18.5086 26.3486 19.4058 24.3454 20.1923C22.5388 20.8928 20.6831 22.1095 19.6385 23.3262C18.7045 24.3462 18.3604 25.4523 18.3604 25.4523H18.3849C18.3849 25.4523 18.4464 25.4523 18.4955 25.4277C19.0731 25.3171 21.3467 24.7886 23.0919 25.4891C24.5174 26.0422 26.3486 27.0622 27.8602 29.8151C28.8188 31.5602 29.9863 34.436 30.0109 34.4605V34.3991L30.0355 34.4605C30.0355 34.4605 30.0109 34.3499 29.974 34.141C29.8634 33.2439 29.6299 30.7368 31.3996 28.9425C33.2922 27.0499 37.2986 28.1314 37.3232 28.1314V28.1068H37.3478C37.3478 28.1068 37.2864 28.0208 37.2003 27.8733C36.7333 27.1728 35.3692 25.059 35.7747 23.3753C36.0697 22.1218 36.7087 21.3107 37.8025 20.8805C39.4616 20.18 41.4648 20.6716 42.448 20.9051L42.6815 20.9666C44.3406 21.3475 48.0275 22.6257 48.0889 22.6502C48.0889 22.6502 48.0643 22.6256 48.0275 22.6256C48.0521 22.6256 48.0889 22.6502 48.0889 22.6502C48.0889 22.6502 47.4744 22.4413 46.7002 22.0357L46.7125 22.0235Z" fill="var(--fill-0, #C4962D)"/>
<path id="Vector_2" d="M27.1112 14.8463C27.1112 14.8463 29.4585 13.1626 32.3466 12.1794C34.2023 11.565 36.9429 10.7539 41.6744 10.1517C47.6348 9.36513 53.4355 9.89358 53.497 9.89358C53.497 9.89358 53.4724 9.89358 53.4724 9.869H53.497C53.497 9.869 53.4355 9.869 53.3495 9.80755C53.0054 9.6355 52.0714 9.14391 52.0099 7.59542C51.8993 5.24811 55.6108 1.63496 55.6477 1.61038C55.6477 1.61038 55.6231 1.61038 55.5862 1.63496L55.6108 1.61038C55.6108 1.61038 55.3773 1.75786 54.9963 1.95449C53.4601 2.82705 49.3923 5.03918 47.0695 5.46932C45.6808 5.7274 44.1323 5.61679 43.8742 4.74423C43.4932 3.52756 44.2798 1.4629 44.3044 1.42604H44.2798V1.40146C44.2798 1.40146 43.8128 1.69641 43.0017 2.12654C39.5114 4.15433 30.0976 9.77068 28.6228 11.651C27.4307 13.138 27.1112 14.7603 27.1112 14.7603V14.8463Z" fill="var(--fill-0, #C4962D)"/>
<path id="Vector_3" d="M49.0115 14.8217C50.7812 12.5849 53.657 11.3068 53.6938 11.2823C53.6938 11.2823 53.3743 11.2577 52.8213 11.1962C50.6952 10.9873 45.1771 10.6432 40.9618 11.2577C34.3377 12.2163 32.3345 13.1503 30.2452 14.1089C28.3895 14.9814 26.9025 16.0015 25.7104 17.2427C24.8624 18.1399 24.7764 18.8649 24.7764 18.8649V18.8895H24.8009C24.8009 18.8895 29.8028 16.9723 36.1074 17.6974C41.6008 18.3365 48.1635 21.5932 48.2495 21.6547V21.6301H48.2741C48.2741 21.6301 48.2127 21.5441 48.1635 21.3966C47.6965 20.6101 46.6519 17.7957 49.0115 14.8339V14.8217Z" fill="var(--fill-0, #C4962D)"/>
<path id="Vector_4" d="M62.493 12.7936C62.5176 12.8797 62.7511 13.2606 62.7511 13.2606L62.8617 13.4081C62.9231 13.5187 63.0092 13.6416 63.1566 13.8137L63.3041 14.0226C63.7711 14.5511 64.3242 14.8091 64.9632 15.0672V15.0426C64.9632 15.0426 64.9632 14.9812 64.9386 14.932C64.8526 14.4404 64.4716 12.6093 64.3241 10.8027C64.2135 9.0576 64.2135 8.77494 64.2627 7.05439V6.73486H64.2381C64.2381 6.73486 64.2135 6.75944 64.1275 6.84547C63.7465 7.22645 62.6159 8.38167 61.0428 9.63521C58.8676 11.3435 57.995 11.7244 57.995 11.7244H58.0196C58.0196 11.7244 58.0442 11.749 58.1056 11.749C58.3637 11.9211 59.2117 12.3266 60.1334 12.3635C60.711 12.3881 60.797 12.3635 61.0674 12.2775C61.0674 12.2775 61.3255 12.216 61.4115 12.1915L61.3255 12.3389C61.0305 12.892 60.1088 14.7231 60.1088 14.7231C60.0842 14.6985 54.9718 12.2283 51.248 16.1487C49.9453 17.5129 49.5397 19.2334 50.0805 20.8556C50.4615 21.9863 52.0222 23.5839 54.726 23.4119C57.9458 23.2029 59.2608 20.2166 59.3469 20.0445C59.3469 20.0445 59.3469 20.0691 59.3714 20.106C59.4575 20.3149 59.7155 21.0031 59.482 21.8142C59.224 22.7728 58.3145 24.0755 56.9012 24.6654C55.2175 25.3659 52.8948 25.8329 48.532 24.0509L47.598 23.6699C46.4919 23.2029 45.4227 22.7728 44.2798 22.4533L43.8497 22.3427C42.7436 22.0231 41.3794 21.6176 39.7203 21.6176C38.7372 21.6176 37.6557 21.7651 37.0781 22.9203C36.8446 23.3504 36.7586 23.7928 36.7586 24.1984C36.7586 25.0095 37.1395 25.8206 37.6065 26.7546C38.2702 28.0328 39.4623 29.7779 39.6343 30.0114C39.6097 29.9868 39.5483 29.9868 39.4623 29.9254C38.9092 29.6673 37.2501 29.0282 35.7139 28.8807C33.4526 28.6718 32.4326 28.9913 31.56 30.2203C31.093 30.9208 30.626 32.8011 31.007 34.5831C31.4371 36.5617 32.4572 38.1225 33.7968 38.8845L34.9888 39.4621C34.9888 39.4621 34.9643 39.5235 34.9643 39.5481C33.7107 42.2764 32.0025 44.1444 30.6383 44.2305C29.6552 44.3165 28.4631 42.8417 27.6519 41.8463C27.3324 41.4407 27.0743 41.1212 26.9023 41.0352C25.8331 40.3347 24.8376 41.3547 24.8376 41.3547H24.8622C24.9728 41.4161 25.4152 41.5268 25.8454 41.9077C26.5705 42.5222 26.3738 43.2104 26.337 43.2719L26.3124 43.2473C26.2509 43.1367 25.8208 42.7557 24.7393 43.0138C23.3752 43.3333 23.3506 45.7175 23.3506 45.7421H23.3752C23.3752 45.7421 23.3997 45.7175 23.3997 45.6806C23.5472 45.5332 23.9282 45.103 24.3338 44.7835C25.5258 43.9109 27.271 45.8281 27.357 45.8896C27.1849 45.9141 27.0129 45.9756 26.8654 46.0616C25.3784 46.6392 24.8622 48.1877 24.8622 48.1877H24.8868C24.8868 48.1877 24.9728 48.1631 25.0957 48.1263C25.9683 47.8928 29.4217 46.9588 33.9811 47.0202C36.5619 47.0448 39.3025 47.8067 39.3271 47.8313V47.8067H39.3517C39.3517 47.8067 39.3271 47.7453 39.2656 47.6593C39.0321 47.3152 38.3685 46.3566 37.754 46.0002C37.0535 45.5946 34.3867 45.2751 34.1163 45.2505C34.1777 45.2259 34.2638 45.1891 34.3744 45.103C35.124 44.7221 37.1641 43.6774 37.8646 43.2104C38.6757 42.6574 39.1182 42.3379 39.6097 41.6742C40.2242 40.8877 40.3594 39.966 40.3594 39.9291C40.3594 39.9537 40.7035 39.9906 41.023 40.3101C41.4532 40.7771 41.49 41.3793 41.49 41.4776V41.5022L41.5146 41.4776V41.5022C41.5146 41.5022 41.5392 41.4161 41.5761 41.2687C41.7236 40.7771 41.9202 39.499 41.2565 38.2454C40.765 37.3483 40.089 36.9059 39.5114 36.5617C39.0813 36.2668 38.6634 36.0333 38.4422 35.6277C37.9138 34.6691 38.2702 33.5016 39.3394 32.8134C39.9784 32.4079 40.9124 31.9654 40.9124 31.9654C40.9124 31.99 42.3995 34.4971 45.2384 36.1808C48.1142 37.8644 51.9485 37.7784 52.01 37.7784C52.01 37.7784 53.1406 38.651 53.2881 40.1872C53.3741 41.2564 52.9685 42.5099 52.2435 43.3579C51.8133 43.8495 51.3094 44.1444 50.8179 44.2059C49.8347 44.2919 48.6426 42.8172 47.8315 41.8217C47.512 41.4161 47.2539 41.0966 47.0818 41.0106C46.0126 40.3101 45.0172 41.3301 45.0172 41.3301H45.0418C45.1524 41.3916 45.5948 41.5022 46.0249 41.8832C46.75 42.4976 46.5534 43.1858 46.5165 43.2473V43.2227C46.4551 43.1121 46.0249 42.7311 44.9434 42.9892C43.5793 43.3087 43.5547 45.6929 43.5547 45.7175H43.5793C43.5793 45.7175 43.6039 45.6929 43.6039 45.6561C43.7513 45.5086 44.1323 45.0784 44.5379 44.7589C45.73 43.8864 47.4997 45.8035 47.5611 45.865C47.3891 45.8896 47.217 45.951 47.0695 46.037C45.5825 46.6147 45.0663 48.1631 45.0663 48.1631H45.0909C45.0909 48.1631 45.1769 48.1386 45.2998 48.1017C46.1724 47.8682 49.6258 46.9342 54.1852 46.9956C56.766 47.0202 59.5066 47.7822 59.5312 47.8067V47.7822H59.5558C59.5558 47.7822 59.5312 47.7207 59.4698 47.6347C59.2362 47.2906 58.5726 46.332 57.9581 45.9756C57.233 45.57 54.5293 45.2505 54.3204 45.2259C54.345 45.2013 54.4064 45.1399 54.5293 45.0539C55.1069 44.5623 56.766 42.9278 57.0856 40.814C57.1101 40.6665 57.1101 40.519 57.1101 40.3838C57.1101 39.0811 56.3605 37.889 56.299 37.803C56.3236 37.803 56.3605 37.803 56.3851 37.8276C56.7046 37.9136 57.7492 38.2086 58.4743 38.6756C59.1134 39.1057 59.5804 39.6096 59.5804 39.6096V39.585C59.5804 39.585 59.5804 39.499 59.5558 39.3761C59.4943 38.8845 59.0888 37.6064 57.2085 36.6724C56.3973 36.2668 52.268 34.1776 50.6458 31.9409C50.6704 31.9409 50.7564 31.9654 50.8547 31.9654C51.5184 32.076 53.6445 32.3956 55.2667 32.285C57.5894 32.1375 59.224 31.7074 60.6373 30.7733C62.2595 29.7287 63.4024 28.3646 64.0661 26.644C64.6191 25.2553 64.8772 24.0263 64.8772 22.7482C64.8772 21.7651 64.7051 20.745 64.3856 19.639C63.6851 17.2548 61.5713 15.4236 61.5098 15.3622C61.4238 15.5096 62.4438 12.892 62.4684 12.8305L62.493 12.7936ZM51.8625 33.4156C51.8625 33.4156 51.9485 33.5016 52.01 33.5262C51.9485 33.4648 51.8994 33.4402 51.8625 33.4156ZM56.1884 20.6344C55.5248 20.8679 54.7997 20.8679 54.2712 20.6098C53.9271 20.4378 53.6568 20.1797 53.5707 19.8602C53.4601 19.4792 53.4847 19.0491 53.7182 18.6681C54.0132 18.1396 54.5293 17.7709 55.1438 17.6235C56.9504 17.1933 58.2285 18.6681 58.2531 18.6681C58.1916 18.6435 57.3559 20.2411 56.1884 20.6467V20.6344ZM46.5288 43.2596V43.321C46.5288 43.321 46.5042 43.2965 46.5288 43.2596ZM51.6167 33.2067C51.1866 32.8257 50.8302 32.4202 50.5475 32.0146H50.5721C50.867 32.4202 51.2111 32.8257 51.6167 33.2067Z" fill="var(--fill-0, #C4962D)"/>
<path id="Vector_5" d="M21.4087 39.7209C22.1092 38.2708 22.1338 37.0787 22.1338 37.0541H22.1584C22.3304 37.1155 24.0756 37.4351 25.8821 37.1155C27.7993 36.796 29.3109 36.1569 29.3109 36.1569C29.3109 36.0709 27.3077 29.0413 23.67 26.9766C20.7942 25.3175 16.8984 26.866 16.7509 26.9152C16.7509 26.8906 16.7509 26.8537 16.7755 26.8046C16.8861 26.313 17.39 24.4204 18.6927 22.8842C20.2904 20.9916 22.7606 19.7749 22.7851 19.7749L22.7606 19.7503C22.6131 19.6397 22.0355 19.1358 22.4656 17.8086C23.1047 15.8914 25.5749 15.4244 25.5995 15.4244L25.5749 15.3998C25.5749 15.3998 25.5503 15.3752 25.4889 15.3383C25.2308 15.1294 24.4197 14.4412 24.7638 13.1016C24.9973 12.2291 25.6978 11.59 26.8284 11.209C26.9145 11.1845 26.939 11.1845 26.939 11.1476C26.386 10.6806 25.5503 9.78344 26.0665 8.73882C26.4966 7.89084 27.8116 7.66963 28.3032 7.57131C28.4752 7.54673 28.5121 7.54673 28.5121 7.50986C28.0205 7.01828 27.2586 6.52669 26.6195 6.14572L26.2385 5.91221C25.833 5.65413 25.3905 5.06423 25.366 4.52349C25.366 4.20396 25.5134 3.94587 25.7961 3.77382C27.2217 2.83981 27.8608 1.53711 27.8853 1.51253H27.8608C27.7747 1.53711 27.6518 1.57398 27.5658 1.57398C26.8407 1.63543 25.9436 1.40193 25.9067 1.40193C25.9067 1.40193 25.9313 1.37735 25.9313 1.34048C26.1033 1.04553 26.5703 0.0869372 26.4229 -0.0236693C26.3983 -0.0482485 26.3123 0.000909933 26.3123 0.000909933C25.9927 0.234413 25.0956 0.406467 24.051 0.615391L22.7974 0.873472C21.3104 1.193 20.5361 2.04099 20.5361 2.06556C20.5116 2.04099 16.9353 1.04553 15.7678 1.16842C14.6003 1.29132 13.7892 2.79065 13.7892 2.82752C13.7892 2.82752 11.8474 2.59402 10.4218 2.88897C8.9962 3.18392 8.01303 3.84756 7.97616 3.95816C8.00074 4.01961 8.03761 4.01961 8.06219 3.98274C8.78728 3.77382 10.8519 4.24083 10.9134 4.24083C10.9134 4.24083 10.8028 4.47433 10.8028 4.76928C10.8028 5.00278 10.8642 5.29773 11.0117 5.58039C11.3066 6.10885 12.1178 6.21945 12.9535 5.89992C13.2976 5.75245 13.5065 5.55581 13.7031 5.34689C13.9981 5.02736 14.2316 4.76928 14.8706 4.85531C15.9153 4.96591 16.0382 5.89992 16.0382 5.89992C16.0136 5.89992 11.6508 7.00599 9.4755 6.74791C8.11135 6.57585 7.02986 6.31777 7.00528 6.31777L7.30024 5.59268H7.23879C7.12818 5.61726 6.7472 5.70329 5.32161 5.61726C3.63793 5.50666 2.76537 4.83073 2.76537 4.80615V4.83073C2.76537 4.83073 2.76537 4.89218 2.78995 4.9782C2.87597 5.32231 3.22008 6.2809 4.36302 7.32552C5.75174 8.60364 7.55832 9.15667 7.5829 9.15667V9.13209L7.55832 9.04606C7.44771 8.75111 7.00528 7.91542 6.98071 7.85397H7.04215C7.25108 7.91542 8.06219 8.08747 9.04536 8.1735C10.8765 8.32098 11.9457 7.96458 12.0686 7.94C12.0686 7.94 12.0686 7.96458 12.044 7.96458C11.958 8.05061 11.7491 8.39471 11.663 9.00919V9.1198C11.663 9.43933 11.8351 9.73428 12.044 10.0169C12.2161 10.275 12.3636 10.5085 12.3636 10.742C12.3636 10.8035 12.3636 10.8526 12.339 10.9141C12.3144 11.0616 12.2775 11.209 12.2775 11.3442C12.2775 12.1922 12.7691 13.2614 12.7691 13.286V13.2614L12.7937 13.1754C12.9043 12.8804 13.1992 12.1062 13.1992 12.1062C13.6048 10.9755 14.1333 10.3365 14.1578 10.2996L14.1824 10.3611C14.2439 10.57 14.5634 11.3811 14.5634 11.3811V11.3196C14.588 11.1476 14.674 10.7052 15.3131 10.3365C16.4191 9.67283 17.7218 9.58681 17.8693 9.58681C17.8447 9.64825 17.6972 9.79573 17.5252 10.0538C16.3331 11.59 12.4742 16.7025 11.2206 19.2096C10.4955 20.6352 10.3235 22.2943 10.3235 23.6215C10.3235 25.1577 10.557 26.3253 10.5816 26.3867C10.5816 26.3867 10.5611 26.3785 10.5201 26.3621C10.2006 26.2515 8.89788 25.8091 8.1728 24.9734C7.55832 24.2729 7.44771 22.3557 7.32481 20.672L7.17734 18.9884C6.96842 17.3293 5.49366 16.2846 5.46908 16.2846C5.46908 16.2846 5.85006 15.4367 6.10814 14.4289C6.16959 14.22 6.19417 13.9988 6.19417 13.7653C6.19417 13.0402 5.98525 12.3765 5.96067 12.3151C5.96067 12.3151 5.96067 12.3765 5.98525 12.4626C5.98525 12.4011 5.96067 12.3765 5.96067 12.352V12.2905C5.96067 12.3765 5.93609 12.4626 5.93609 12.5486C5.78861 12.9542 5.4445 13.1016 5.27245 13.1262C5.06353 13.1877 4.89147 13.1508 4.89147 13.1262C4.89147 12.1062 4.08036 10.8281 3.06032 10.742C2.35981 10.6806 1.5487 11.2705 1.5487 11.2951H1.57328C1.57328 11.2951 1.59786 11.2951 1.63472 11.3196C1.89281 11.4057 2.74079 11.7252 3.12177 12.2782C3.58877 12.9787 3.58877 15.0434 3.58877 15.4121V15.4735C3.58877 15.4735 3.56419 15.449 3.52732 15.449C3.35527 15.2769 2.63018 14.6624 2.0157 13.7899C1.63472 13.2368 1.11856 13.3597 0.762162 13.5318C0.332025 13.7038 -0.0243736 14.0848 -0.0243736 14.1094C0.725293 13.9619 1.04482 14.3183 1.04482 14.3429C1.04482 14.3429 1.47496 15.6456 2.43355 16.4936C3.33069 17.2801 3.82227 18.2018 3.39214 20.1313C2.98658 21.9379 0.626976 22.454 0.626976 22.4786V22.5032C0.626976 22.5032 0.651555 22.5278 0.688424 22.5646C0.921926 22.7981 1.75762 23.5478 2.66705 23.2897C3.68709 22.9948 4.79315 21.4586 4.90376 21.2619C4.90376 21.3234 4.90376 21.4094 4.92834 21.5815C4.98979 22.7736 5.22329 26.8168 5.22329 26.8168C5.30932 28.562 6.1573 29.8401 7.2265 31.4992L8.20967 33.0723C8.61522 33.7359 8.7627 34.3504 8.7627 34.928C8.7627 36.4642 7.6935 37.5457 7.6935 37.5703V37.5948C7.6935 37.5948 7.6935 37.6563 7.71808 37.6809C7.86556 37.7915 8.29569 37.6809 8.9962 37.3613C9.57381 37.1032 10.0162 36.7223 10.4218 36.4027C10.9994 35.9357 11.5893 35.4441 12.6339 35.1246C14.4405 34.5962 15.5097 35.8497 15.5097 35.8743C15.5097 35.8743 16.1242 36.7468 14.8706 39.598C13.6171 42.4124 11.9088 44.305 10.4832 44.4156C9.50008 44.5016 8.30798 43.0268 7.49687 42.0314C7.17734 41.6258 6.91926 41.3063 6.7472 41.2203C5.67801 40.5198 4.68255 41.5398 4.68255 41.5398H4.70713C4.81773 41.6012 5.26016 41.7119 5.6903 42.0928C6.41538 42.7073 6.21875 43.3955 6.18188 43.457L6.1573 43.4324C6.09585 43.3218 5.66572 42.9408 4.58423 43.1989C3.22008 43.5184 3.1955 45.9026 3.1955 45.9272H3.22008C3.22008 45.9272 3.24466 45.9026 3.24466 45.8657C3.39214 45.7183 3.77312 45.2881 4.17867 44.9686C5.37077 44.096 7.11589 46.0132 7.20192 46.0747C7.02986 46.0992 6.85781 46.1607 6.71033 46.2467C5.26016 46.8243 4.70713 48.3728 4.70713 48.3728H4.73171C4.73171 48.3728 4.81773 48.3482 4.94063 48.3114C5.81319 48.0779 9.26657 47.1439 13.826 47.2053C16.4068 47.2299 19.1474 47.9918 19.172 48.0164V47.9918H19.1966C19.1966 47.9918 19.172 47.9304 19.1106 47.8444C18.8771 47.4634 18.2134 46.5417 17.5989 46.1853C16.8738 45.7797 14.1947 45.4602 13.9612 45.4356C13.9858 45.411 14.0718 45.3496 14.1947 45.2636C14.8952 44.7965 16.923 43.3464 18.0291 41.7733C19.1351 40.2002 19.1597 38.0864 19.1597 38.0495C19.1597 38.0495 19.5407 38.1356 20.0937 39.1802C20.6713 40.2863 20.6713 41.0359 20.6713 41.0359C20.6713 41.0359 20.6713 41.0113 20.6959 41.0113V41.0359C20.9294 40.5689 21.1629 40.1634 21.3596 39.7578L21.4087 39.7209ZM17.6112 3.51574C17.6112 3.51574 17.2917 4.1548 16.5666 4.09335C15.903 4.0319 15.903 3.36826 15.903 3.34368C15.903 3.34368 15.4974 3.11018 15.4114 3.04873H15.4728C15.7924 3.04873 16.8984 2.98729 16.8984 2.98729L17.5989 3.09789C18.0045 3.18392 18.4961 3.30682 19.0245 3.26995C18.4715 3.35597 17.6358 3.50345 17.6358 3.50345L17.6112 3.51574ZM2.81453 4.85531C2.81453 4.85531 2.83911 4.87989 2.90055 4.91675C2.87597 4.89218 2.83911 4.89218 2.81453 4.85531ZM0.663845 22.4049C0.663845 22.4049 0.688424 22.4049 0.749872 22.3803C0.725293 22.4049 0.688424 22.4049 0.663845 22.4049ZM4.84231 21.2742C4.90376 21.1882 4.92834 21.1268 4.92834 21.1268V21.1513C4.92834 21.1513 4.90376 21.2128 4.84231 21.2619V21.2742ZM6.23104 43.2726L6.20646 43.3341C6.20646 43.3341 6.23104 43.3095 6.23104 43.2726Z" fill="var(--fill-0, #C4962D)"/>
</g>
<path id="Vector_6" d="M92.2698 29.0897C92.0117 29.0897 91.9502 29.2618 91.8642 29.6673C91.7536 30.1343 91.4341 30.884 90.9916 31.3756C89.947 32.5923 88.4968 32.8258 86.2233 32.8258C85.2647 32.8258 84.3921 32.6537 83.6056 32.3587C83.114 32.1498 82.5855 31.9286 82.1185 31.6091C79.3534 29.7779 78.0261 26.2017 78.0261 23.5348C78.0261 20.4255 78.7758 18.2749 80.4103 16.8001C81.6269 15.694 83.1754 15.2025 85.2893 15.2025C87.5505 15.2025 89.6766 15.8415 90.5738 16.8001C91.1883 17.4392 91.557 18.3117 91.5938 19.1843C91.5938 19.5284 91.6184 19.8233 91.9134 19.8233C92.2329 19.8233 92.2575 19.5284 92.2943 19.1597C92.3189 18.9016 92.3189 18.3732 92.3189 17.8201C92.3189 17.2917 92.3189 16.7509 92.3435 16.3085C92.3681 15.7555 92.4295 15.4114 92.4295 15.2025C92.4541 15.055 92.4541 14.9444 92.4541 14.8583C92.4541 14.7477 92.3926 14.5142 91.9871 14.4774C91.5815 14.4405 91.1391 14.3668 90.709 14.2684C90.2788 14.1701 89.8364 14.0964 89.3694 14.0349C88.2388 13.8875 87.2433 13.7769 85.5596 13.7769C81.9588 13.7769 79.3165 14.674 77.2273 16.5666C74.3515 19.2089 74.1426 22.7851 74.1426 23.8052C74.1426 27.0619 75.2486 29.7042 77.4239 31.5968C79.6852 33.5754 82.561 34.4726 86.4936 34.4726C88.0667 34.4726 90.1314 34.3005 91.262 33.8581C91.729 33.686 91.8396 33.5386 91.9871 33.047C92.2452 32.113 92.5647 29.8517 92.5647 29.5321C92.5401 29.188 92.3926 29.102 92.2452 29.102L92.2698 29.0897Z" fill="var(--fill-0, white)"/>
<path id="Vector_7" d="M144.342 33.7112C144.022 33.7112 143.592 33.6866 142.953 33.4777C142.29 33.2687 142.081 32.6051 141.884 31.2409L139.819 17.2062C139.733 16.6778 139.586 16.4565 139.352 16.4565C139.094 16.4565 138.947 16.69 138.799 17.0342L132.704 29.8768L126.571 17.2062C126.276 16.6286 126.141 16.4811 125.908 16.4811C125.76 16.4811 125.563 16.5917 125.477 17.1202L123.241 31.9046C123.13 32.7526 122.921 33.5268 122.368 33.6497C122.049 33.7112 121.877 33.7112 121.705 33.7112C121.41 33.7112 121.274 33.7972 121.274 33.9447C121.274 34.2642 121.619 34.2642 121.741 34.2642C122.147 34.2642 122.675 34.2396 123.13 34.2396C123.474 34.215 123.794 34.215 123.978 34.215C124.162 34.215 124.408 34.215 124.703 34.2396C125.195 34.2642 125.772 34.3011 126.362 34.3011C126.571 34.3011 126.977 34.3011 126.977 33.9815C126.977 33.8341 126.829 33.748 126.571 33.748C126.276 33.748 125.957 33.7234 125.637 33.6374C125.207 33.5514 124.998 33.3179 124.998 32.9738C124.998 32.5928 125.023 32.3101 125.06 31.9292L126.227 22.9823C126.547 23.646 126.928 24.4694 127.296 25.2436C127.874 26.4972 128.427 27.6524 128.574 27.9473C128.869 28.5864 130.701 32.1627 131.192 33.0844L131.254 33.2319C131.598 33.8955 131.807 34.2765 132.04 34.2765C132.298 34.2765 132.421 34.043 132.937 32.9738L137.853 22.6628L139.217 32.5682C139.328 33.3793 139.156 33.4654 139.131 33.4654C138.984 33.5268 138.836 33.6128 138.836 33.7849C138.836 33.9938 139.07 34.043 139.561 34.1044C140.458 34.1659 143.568 34.2519 144.182 34.2519C144.612 34.2519 144.821 34.1413 144.821 33.9324C144.821 33.7234 144.526 33.7234 144.391 33.7234L144.342 33.7112Z" fill="var(--fill-0, white)"/>
<path id="Vector_8" d="M159.15 24.3215C160.514 23.2155 161.387 22.1094 161.387 20.3643C161.387 19.5532 161.042 16.9109 156.471 16.9109C156.127 16.9109 155.746 16.9109 155.34 16.9355C154.848 16.9601 154.32 16.9601 153.718 16.9601C153.546 16.9601 153.226 16.9601 152.845 16.9355C152.231 16.9109 151.395 16.874 150.633 16.874C150.375 16.874 150.08 16.8986 150.08 17.1321C150.08 17.3902 150.4 17.3902 150.547 17.3902C150.842 17.3902 151.248 17.4148 151.42 17.4516C152.145 17.5991 152.292 17.9801 152.354 18.7052C152.415 19.4303 152.415 20.0447 152.415 23.4981V27.48C152.415 29.5692 152.415 31.3389 152.304 32.2975C152.218 33.0226 152.071 33.4036 151.69 33.4896C151.432 33.551 151.162 33.5756 150.879 33.5756C150.768 33.5756 150.449 33.5756 150.449 33.8091C150.449 34.018 150.621 34.1041 150.977 34.1041C151.444 34.1041 152.046 34.0795 152.55 34.0426C152.87 34.0426 153.189 34.0426 153.423 34.018H153.828C154.148 34.018 154.812 34.0426 155.537 34.0795C155.856 34.0795 156.176 34.1041 156.471 34.1041C156.766 34.1041 156.999 34.1286 157.134 34.1286C161.374 34.1286 163.267 31.597 163.267 29.1268C163.242 26.6811 161.141 25.0343 159.174 24.3092L159.15 24.3215ZM157.982 23.7931C157.601 24.1372 157.048 24.1986 156.385 24.1986C155.893 24.1986 155.537 24.1741 155.34 24.1372C155.279 24.1372 155.229 24.1126 155.229 23.9651V18.3242C155.229 18.0661 155.291 18.0292 155.377 18.0047C155.61 17.9432 155.782 17.9432 156.102 17.9432C157.171 17.9432 158.867 18.8772 158.867 21.3966C158.892 22.4658 158.572 23.2892 157.995 23.7808L157.982 23.7931ZM155.217 25.3661C155.217 25.2801 155.242 25.2801 155.279 25.2801C155.623 25.2801 155.856 25.2801 156.262 25.3047C157.11 25.3661 157.626 25.5136 158.117 25.8332C160.096 27.1973 160.293 29.4094 160.293 30.3066C160.293 33.0103 158.056 33.1578 157.626 33.1578C157.097 33.1578 156.606 33.1332 156.004 32.8997C155.303 32.6047 155.254 32.2606 155.254 30.7736V25.3661H155.229H155.217Z" fill="var(--fill-0, white)"/>
<path id="Vector_9" d="M186.987 33.5634C186.815 33.5634 186.606 33.5388 186.372 33.502H186.348C186.004 33.4405 185.094 33.2439 183.877 31.9903C182.71 30.7737 181.383 29.09 179.724 26.9639L179.023 26.0667C181.112 24.3585 181.985 22.8469 181.985 20.9788C181.985 19.3197 180.965 18.1891 180.412 17.8081C179.134 16.9356 177.561 16.825 176.196 16.825C175.852 16.825 175.262 16.8495 174.66 16.8495C174.021 16.8741 173.382 16.8741 173.001 16.8741C172.829 16.8741 172.51 16.8741 172.104 16.8495C171.465 16.825 170.654 16.7881 169.892 16.7881C169.634 16.7881 169.339 16.8127 169.339 17.0462C169.339 17.3042 169.658 17.3042 169.806 17.3042C170.15 17.3042 170.506 17.3288 170.678 17.3657C171.404 17.5132 171.551 17.8573 171.612 18.6192C171.674 19.3443 171.674 19.9588 171.674 23.4122V27.394C171.674 29.4833 171.674 31.253 171.563 32.2115C171.477 32.9366 171.33 33.3176 170.949 33.4036C170.691 33.4651 170.42 33.4897 170.138 33.4897C170.027 33.4897 169.708 33.4897 169.708 33.7232C169.708 33.9321 169.88 34.0181 170.236 34.0181C170.789 34.0181 171.514 33.9935 172.092 33.9567C172.497 33.9567 172.841 33.9321 173.026 33.9321C173.136 33.9321 173.407 33.9321 173.751 33.9567C174.451 33.9813 175.459 34.0181 176.332 34.0181C176.676 34.0181 176.86 33.9321 176.86 33.7232C176.86 33.6371 176.836 33.4897 176.516 33.4897C176.221 33.4897 175.729 33.4282 175.41 33.4036C174.795 33.3176 174.66 32.9121 174.562 32.2115C174.451 31.253 174.451 29.4464 174.451 27.3572V27.0376C174.451 26.9516 174.476 26.927 174.562 26.927L176.541 26.9885C176.688 26.9885 176.799 27.013 176.885 27.1359C177.057 27.3449 177.499 27.9471 177.991 28.6476C178.335 29.1391 178.74 29.7168 179.121 30.2452C180.461 32.0764 181.297 33.0964 182.255 33.588C182.87 33.9075 183.472 34.0181 184.725 34.0181H186.876C187.048 34.0181 187.368 34.0181 187.368 33.7232C187.306 33.7232 187.282 33.5511 186.987 33.5511V33.5634ZM179.109 22.0849C179.109 24.1496 178.298 25.0713 177.806 25.4277C177.425 25.7226 177.143 25.8087 176.233 25.8087C175.594 25.8087 174.955 25.7226 174.55 25.5752C174.439 25.5137 174.378 25.4646 174.378 25.231V18.3489C174.378 18.1768 174.402 18.1154 174.525 18.0908C174.734 18.0293 175.078 18.0048 175.717 18.0048C176.995 18.0048 179.121 18.8773 179.121 22.0972L179.109 22.0849Z" fill="var(--fill-0, white)"/>
<path id="Vector_10" d="M198.121 33.5264C197.777 33.5264 197.273 33.4649 196.953 33.4404C196.314 33.3543 196.167 33.0102 196.105 32.3957C196.019 31.4372 196.019 29.6675 196.019 27.4307V23.4243C196.019 19.9709 196.019 19.3319 196.081 18.6314C196.142 17.8203 196.314 17.5007 196.867 17.4147C197.162 17.3533 197.334 17.3533 197.531 17.3533C197.641 17.3533 197.961 17.3533 197.961 17.0583C197.961 16.8248 197.555 16.8248 197.408 16.8248C196.941 16.8248 196.302 16.8494 195.749 16.8494C195.319 16.874 194.876 16.874 194.643 16.874C194.323 16.874 193.856 16.8494 193.365 16.8494C192.787 16.8248 192.173 16.8248 191.705 16.8248C191.386 16.8248 191.091 16.8494 191.091 17.0583C191.091 17.3533 191.386 17.3533 191.521 17.3533C191.841 17.3533 192.099 17.3778 192.332 17.4393C192.799 17.5499 192.996 17.9063 193.057 18.656C193.119 19.381 193.119 19.9955 193.119 23.4489V27.4307C193.119 29.6675 193.119 31.4126 193.008 32.3712C192.922 33.0963 192.775 33.3912 192.394 33.4404C192.222 33.4649 191.964 33.5264 191.583 33.5264C191.472 33.5264 191.152 33.5264 191.152 33.7599C191.152 33.9688 191.325 34.0548 191.681 34.0548C192.209 34.0548 192.873 34.0303 193.487 34.0303C193.954 34.0057 194.335 34.0057 194.557 34.0057C194.778 34.0057 195.134 34.0057 195.601 34.0303C196.302 34.0548 197.174 34.0917 198.096 34.0917C198.526 34.0917 198.588 33.8828 198.588 33.7968C198.502 33.6493 198.44 33.5387 198.096 33.5387L198.121 33.5264Z" fill="var(--fill-0, white)"/>
<path id="Vector_11" d="M116.739 33.649C116.506 33.649 116.162 33.6244 115.805 33.563C115.314 33.4523 114.675 33.0714 113.864 31.1173C113.053 29.1756 111.516 25.3658 110.287 22.2811C109.304 19.8355 108.456 17.7216 108.223 17.1686C107.989 16.6402 107.842 16.4189 107.584 16.4189C107.326 16.4189 107.154 16.7139 106.883 17.3775L101.193 31.6089C100.701 32.8256 100.259 33.5015 99.3005 33.6121C99.1284 33.6367 98.8089 33.6736 98.6 33.6736C98.5139 33.6736 98.2559 33.6736 98.2559 33.9071C98.2559 34.1651 98.5139 34.202 98.7474 34.202C99.5586 34.202 100.37 34.1774 100.923 34.1406C101.156 34.1406 101.328 34.116 101.414 34.116C101.758 34.116 102.201 34.1406 102.606 34.1406C103.012 34.1651 103.454 34.1651 103.823 34.1651C103.971 34.1651 104.29 34.1651 104.29 33.8702C104.29 33.6367 104.081 33.6367 103.885 33.6367H103.54C102.791 33.6367 102.692 33.2926 102.692 32.9976C102.692 32.7396 102.803 32.2111 103.037 31.6335L103.614 30.1219C103.614 30.1219 103.725 29.9129 103.872 29.9129H104.253C105.064 29.9129 106.981 29.9375 108.383 29.9375C109.784 29.9375 110.005 29.9375 110.042 29.9129C110.214 29.8884 110.275 30.0604 110.275 30.0604L111.467 33.1943C111.529 33.3049 111.492 33.4278 111.467 33.4892C111.443 33.5507 111.381 33.5998 111.32 33.6367C111.111 33.6613 110.939 33.6981 110.939 33.8948C110.939 34.0914 111.197 34.1283 111.578 34.1283H111.664C113.495 34.1897 115.154 34.1897 115.965 34.1897C116.776 34.1897 117.071 34.1651 117.071 33.8948C117.071 33.6244 116.862 33.6367 116.727 33.6367L116.739 33.649ZM104.855 26.9389L106.945 21.3594C106.969 21.2733 107.006 21.2119 107.006 21.2119C107.031 21.2365 107.031 21.2979 107.068 21.3594L109.095 27.0003V27.0249H104.855V26.9389ZM109.71 28.684C109.71 28.684 109.648 28.7086 109.599 28.7086H104.339C104.339 28.7086 104.278 28.7086 104.278 28.684C104.253 28.6225 104.278 28.4505 104.302 28.3644C104.302 28.3644 104.364 28.2538 104.413 28.2538H109.464C109.55 28.2538 109.611 28.2784 109.636 28.3644C109.697 28.4505 109.747 28.6225 109.697 28.684H109.71Z" fill="var(--fill-0, white)"/>
<path id="Vector_12" d="M220.869 33.6736C220.636 33.6736 220.292 33.649 219.935 33.5875C219.444 33.4769 218.805 33.0959 217.994 31.1419C217.182 29.2247 215.671 25.3904 214.417 22.3057C213.434 19.8355 212.586 17.7094 212.353 17.1686C212.119 16.6402 211.972 16.4189 211.714 16.4189C211.455 16.4189 211.308 16.677 211.013 17.3775L205.323 31.6089C204.831 32.8256 204.389 33.5015 203.43 33.6121C203.258 33.6367 202.939 33.6736 202.73 33.6736C202.644 33.6736 202.386 33.6736 202.386 33.9071C202.386 34.1651 202.644 34.202 202.877 34.202C203.688 34.202 204.5 34.1774 205.053 34.1406C205.286 34.1406 205.458 34.116 205.544 34.116C205.888 34.116 206.331 34.1406 206.736 34.1406C207.142 34.1651 207.584 34.1651 207.953 34.1651C208.1 34.1651 208.42 34.1651 208.42 33.8702C208.42 33.6367 208.211 33.6367 208.014 33.6367H207.67C206.921 33.6367 206.822 33.2926 206.822 32.9976C206.822 32.7396 206.933 32.2111 207.166 31.6335L207.744 30.1219C207.744 30.1219 207.855 29.9129 208.002 29.9129H208.383C209.194 29.9129 211.111 29.9375 212.512 29.9375C213.913 29.9375 214.135 29.9375 214.171 29.9129C214.344 29.8884 214.405 30.0604 214.405 30.0604L215.597 33.1943C215.659 33.3049 215.622 33.4278 215.597 33.4892C215.572 33.5507 215.511 33.5998 215.45 33.6367C215.241 33.6613 215.069 33.6981 215.069 33.8948C215.069 34.0914 215.327 34.1283 215.708 34.1283H215.794C217.6 34.1897 219.284 34.1897 220.095 34.1897C220.906 34.1897 221.201 34.1651 221.201 33.8948C221.201 33.6613 220.968 33.6613 220.857 33.6613L220.869 33.6736ZM208.985 26.9634L211.075 21.3839C211.099 21.2733 211.136 21.2365 211.136 21.2365C211.161 21.2611 211.161 21.3225 211.197 21.3471L213.262 26.988V27.0126H208.985V26.9511V26.9634ZM213.864 28.7086C213.864 28.7086 213.803 28.7331 213.717 28.7331H208.346C208.346 28.7331 208.285 28.7331 208.285 28.7086C208.285 28.684 208.309 28.6225 208.346 28.5611L208.408 28.4136C208.432 28.303 208.469 28.2661 208.555 28.2661H213.606C213.692 28.2661 213.754 28.2907 213.778 28.3767L213.84 28.5488C213.84 28.5488 213.901 28.6594 213.864 28.6963V28.7086Z" fill="var(--fill-0, white)"/>
<path id="Vector_13" d="M219.406 19.996C220.39 19.996 221.176 19.2094 221.176 18.2262C221.176 17.2431 220.39 16.4565 219.406 16.4565C218.423 16.4565 217.637 17.2431 217.637 18.2262C217.637 19.2094 218.423 19.996 219.406 19.996ZM219.406 16.8621C220.132 16.8621 220.709 17.4766 220.709 18.2262C220.709 18.4843 220.623 18.7547 220.5 18.9759C220.476 18.9759 220.439 18.9513 220.439 18.9513C220.377 18.9513 220.328 18.8899 220.267 18.8407C220.181 18.7547 220.095 18.6318 219.972 18.4966C219.91 18.4352 219.886 18.3491 219.824 18.2877C219.996 18.0788 220.082 17.9436 220.082 17.7347C220.082 17.5257 219.972 17.3906 219.873 17.3045C219.763 17.2185 219.578 17.1939 219.32 17.1939H218.681C218.571 17.1939 218.509 17.2554 218.509 17.3414C218.509 17.4274 218.571 17.4889 218.657 17.4889C218.718 17.4889 218.743 17.4889 218.743 17.5134V18.9636H218.681C218.595 18.9636 218.509 19.0251 218.509 19.1111C218.509 19.1971 218.571 19.2586 218.657 19.2586H219.296C219.382 19.2586 219.443 19.1971 219.443 19.148V19.0865C219.443 19.0865 219.419 18.9759 219.296 18.9759H219.234V18.5089H219.406C219.468 18.5949 219.554 18.7178 219.64 18.8284C219.787 19.0374 219.873 19.148 220.021 19.2094C220.107 19.234 220.193 19.2709 220.279 19.2709C220.045 19.4798 219.751 19.615 219.406 19.615C218.657 19.615 218.067 19.0005 218.067 18.2508C218.067 17.5012 218.644 16.8867 219.37 16.8867L219.406 16.8621ZM219.615 17.8453C219.615 17.9927 219.554 18.0788 219.505 18.1034C219.48 18.1279 219.443 18.1279 219.419 18.1279C219.357 18.1279 219.308 18.1279 219.271 18.1034V17.4643H219.333C219.591 17.5257 219.628 17.7838 219.628 17.8453H219.615Z" fill="var(--fill-0, white)"/>
</g>
<defs>
<clipPath id="clip0_0_2042">
<rect width="221.213" height="48.2613" fill="white"/>
</clipPath>
</defs>
</svg>
