<svg preserveAspectRatio="none" width="100%" height="100%" overflow="visible" style="display: block;" viewBox="0 0 115.871 48.2613" fill="none" xmlns="http://www.w3.org/2000/svg">
<g id="Frame" clip-path="url(#clip0_0_36)">
<path id="Vector" d="M69.5988 44.2652C64.9498 41.4667 62.0246 36.9473 61.9793 32.3086C61.9732 32.2595 61.9654 32.2088 61.9604 32.1603V48.2613C65.1596 45.0622 68.8433 45.1635 72.3703 45.642C71.7701 45.401 71.1824 45.13 70.6094 44.83C70.2646 44.6504 69.928 44.462 69.5994 44.2648M8.61798 35.6756V13.7904L7.25928 10.453V35.5969C7.12623 43.2909 4.93904 45.7076 -0.000136661 46.9611H15.7502C10.8278 45.712 8.75516 43.3198 8.61798 35.6756ZM56.9239 1.85549H43.0611L31.6245 32.4986L18.6283 1.85549H4.3936C6.90558 2.37071 8.45146 3.33681 9.933 6.9438L26.3575 47.3287H27.5458L43.3335 5.03791V41.5963C43.3335 45.3965 42.3029 46.4272 39.79 46.9424H56.9232C54.4112 46.4915 53.3797 45.3965 53.3797 41.5963V9.77795C53.3797 3.85181 53.8951 2.56376 56.9232 1.85549M92.9622 16.2326V0.13156C89.5007 3.59355 85.7972 3.19072 82.0134 2.62745C88.6963 4.07638 92.479 11.6438 92.9622 16.2326ZM112.187 41.3387V9.7136C112.187 3.91659 112.702 2.56376 115.73 1.85549H98.5964C101.173 2.43506 102.139 3.52942 102.139 7.52337V39.0845C102.139 44.8813 101.688 46.2981 98.5964 46.9424H115.73C113.217 46.4915 112.186 45.3322 112.186 41.3387M85.6417 22.2909L74.7142 16.2311C71.1351 14.3297 69.109 10.7256 70.0094 7.32293C70.9029 3.94812 74.4047 1.82614 78.4136 1.90679C70.7933 1.06896 63.8515 4.8416 62.1826 11.146C60.6221 17.0417 64.1641 23.2929 70.3835 26.5672L81.3108 32.6269C84.8898 34.5282 86.9163 38.1323 86.0154 41.535C85.1224 44.91 81.6204 47.0318 77.6106 46.9509C85.2313 47.7892 92.1727 44.0161 93.8418 37.7117C95.4022 31.8164 91.8603 25.5653 85.6411 22.2909" fill="var(--fill-0, #8B6F4C)"/>
</g>
<defs>
<clipPath id="clip0_0_36">
<rect width="115.871" height="48.2613" fill="white"/>
</clipPath>
</defs>
</svg>
