<svg preserveAspectRatio="none" width="100%" height="100%" overflow="visible" style="display: block;" viewBox="0 0 48 48" fill="none" xmlns="http://www.w3.org/2000/svg">
<g id="Frame">
<path id="Vector" d="M42 30V18C42 17.6022 41.842 17.2206 41.5607 16.9393C41.2794 16.658 40.8978 16.5 40.5 16.5H31.5V7.5C31.5 7.10218 31.342 6.72064 31.0607 6.43934C30.7794 6.15804 30.3978 6 30 6H7.5C7.10218 6 6.72064 6.15804 6.43934 6.43934C6.15804 6.72064 6 7.10218 6 7.5V30C6 30.3978 6.15804 30.7794 6.43934 31.0607C6.72064 31.342 7.10218 31.5 7.5 31.5H16.5V40.5C16.5 40.8978 16.658 41.2794 16.9393 41.5607C17.2206 41.842 17.6022 42 18 42H40.5C40.8978 42 41.2794 41.842 41.5607 41.5607C41.842 41.2794 42 40.8978 42 40.5V30ZM30.6206 39L23.1206 31.5H29.3794L36.8794 39H30.6206ZM31.5 29.3794V23.1206L39 30.6206V36.8794L31.5 29.3794ZM39 26.3794L32.1206 19.5H39V26.3794ZM9 9H28.5V19.5V28.5H9V9ZM19.5 32.1206L26.3794 39H19.5V32.1206Z" fill="var(--fill-0, #2E2E2E)"/>
</g>
</svg>
