<svg width="48" height="48" viewBox="0 0 48 48" fill="none" xmlns="http://www.w3.org/2000/svg">
<g transform="translate(0.47, 0)">
  <!-- Hammer head & shaft (rotated -11.83°) -->
  <g transform="rotate(-11.83 14.467 20.316)">
    <path d="M11.658 3.193H21.658L26.658 6.193V10.193H11.658V3.193Z" stroke="#2E2E2E" stroke-width="2" fill="none"/>
    <path d="M14.79 11L14.45 30" stroke="#2E2E2E" stroke-width="2" fill="none"/>
  </g>
  <!-- Top handle vertical rectangle -->
  <rect x="21" y="18" width="9" height="12" stroke="#2E2E2E" stroke-width="2" fill="none"/>
  <!-- Top wedge/lid -->
  <path d="M28 19H23V14.514L28 10.942V19Z" stroke="#2E2E2E" stroke-width="2" fill="none"/>
  <!-- Right tool (screwdriver-style Union) -->
  <path d="M38.5 12.91C40.49 14.03 41.83 16.16 41.83 18.59C41.83 21.0 40.5 23.13 38.53 24.21V29.02H34.47V24.21C32.5 23.13 31.17 21.0 31.17 18.59C31.17 16.16 32.51 14.03 34.5 12.91V16.55L36.5 17.93L38.5 16.55V12.91Z" stroke="#2E2E2E" stroke-width="2" fill="none" stroke-linejoin="round"/>
  <!-- Toolbox body -->
  <rect x="5.79" y="28.02" width="37.39" height="16.07" stroke="#2E2E2E" stroke-width="2" fill="none"/>
  <!-- Toolbox divider line -->
  <line x1="6.88" y1="34.1" x2="42" y2="34.1" stroke="#2E2E2E" stroke-width="2"/>
</g>
</svg>
