<svg preserveAspectRatio="none" width="100%" height="100%" overflow="visible" style="display: block;" viewBox="0 0 48 48" fill="none" xmlns="http://www.w3.org/2000/svg">
<g id="Frame">
<path id="Vector" d="M43.5 18C43.5008 17.8605 43.4818 17.7217 43.4437 17.5875L40.7531 8.175C40.5723 7.55046 40.1943 7.00118 39.6755 6.60918C39.1568 6.21717 38.5252 6.00347 37.875 6H10.125C9.47482 6.00347 8.8432 6.21717 8.32447 6.60918C7.80574 7.00118 7.42772 7.55046 7.24688 8.175L4.55813 17.5875C4.51939 17.7216 4.49982 17.8604 4.5 18V21C4.5 22.1643 4.77109 23.3127 5.2918 24.3541C5.8125 25.3955 6.56853 26.3014 7.5 27V40.5C7.5 40.8978 7.65804 41.2794 7.93934 41.5607C8.22064 41.842 8.60218 42 9 42H39C39.3978 42 39.7794 41.842 40.0607 41.5607C40.342 41.2794 40.5 40.8978 40.5 40.5V27C41.4315 26.3014 42.1875 25.3955 42.7082 24.3541C43.2289 23.3127 43.5 22.1643 43.5 21V18ZM10.125 9H37.875L40.0162 16.5H7.98938L10.125 9ZM19.5 19.5H28.5V21C28.5 22.1935 28.0259 23.3381 27.182 24.182C26.3381 25.0259 25.1935 25.5 24 25.5C22.8065 25.5 21.6619 25.0259 20.818 24.182C19.9741 23.3381 19.5 22.1935 19.5 21V19.5ZM16.5 19.5V21C16.4997 21.7738 16.2999 22.5345 15.9199 23.2086C15.5398 23.8826 14.9923 24.4473 14.3304 24.848C13.6684 25.2487 12.9143 25.472 12.1408 25.4962C11.3674 25.5204 10.6007 25.3448 9.915 24.9862C9.81066 24.905 9.69588 24.8382 9.57375 24.7875C8.93827 24.3807 8.41528 23.8206 8.05291 23.1587C7.69053 22.4969 7.5004 21.7546 7.5 21V19.5H16.5ZM37.5 39H10.5V28.35C10.9938 28.4495 11.4963 28.4998 12 28.5C13.1643 28.5 14.3127 28.2289 15.3541 27.7082C16.3955 27.1875 17.3014 26.4315 18 25.5C18.6986 26.4315 19.6045 27.1875 20.6459 27.7082C21.6873 28.2289 22.8357 28.5 24 28.5C25.1643 28.5 26.3127 28.2289 27.3541 27.7082C28.3955 27.1875 29.3014 26.4315 30 25.5C30.6986 26.4315 31.6045 27.1875 32.6459 27.7082C33.6873 28.2289 34.8357 28.5 36 28.5C36.5037 28.4998 37.0062 28.4495 37.5 28.35V39ZM38.4244 24.7875C38.3038 24.8383 38.1904 24.9045 38.0869 24.9844C37.4012 25.3433 36.6346 25.5193 35.861 25.4954C35.0874 25.4715 34.3331 25.2485 33.6709 24.8479C33.0087 24.4473 32.461 23.8828 32.0807 23.2087C31.7004 22.5347 31.5004 21.7739 31.5 21V19.5H40.5V21C40.4994 21.7547 40.309 22.4972 39.9463 23.159C39.5836 23.8209 39.0602 24.3809 38.4244 24.7875Z" fill="var(--fill-0, #2E2E2E)"/>
</g>
</svg>
