<svg preserveAspectRatio="none" width="100%" height="100%" overflow="visible" style="display: block;" viewBox="0 0 48 48" fill="none" xmlns="http://www.w3.org/2000/svg">
<g id="Frame">
<path id="Vector" d="M39 6.375H30C29.3038 6.375 28.6361 6.65156 28.1438 7.14384C27.6516 7.63613 27.375 8.30381 27.375 9V39C27.375 39.6962 27.6516 40.3639 28.1438 40.8562C28.6361 41.3484 29.3038 41.625 30 41.625H39C39.6962 41.625 40.3639 41.3484 40.8562 40.8562C41.3484 40.3639 41.625 39.6962 41.625 39V9C41.625 8.30381 41.3484 7.63613 40.8562 7.14384C40.3639 6.65156 39.6962 6.375 39 6.375ZM39.375 39C39.375 39.0995 39.3355 39.1948 39.2652 39.2652C39.1948 39.3355 39.0995 39.375 39 39.375H30C29.9005 39.375 29.8052 39.3355 29.7348 39.2652C29.6645 39.1948 29.625 39.0995 29.625 39V32.625H34.5C34.7984 32.625 35.0845 32.5065 35.2955 32.2955C35.5065 32.0845 35.625 31.7984 35.625 31.5C35.625 31.2016 35.5065 30.9155 35.2955 30.7045C35.0845 30.4935 34.7984 30.375 34.5 30.375H29.625V25.125H34.5C34.7984 25.125 35.0845 25.0065 35.2955 24.7955C35.5065 24.5845 35.625 24.2984 35.625 24C35.625 23.7016 35.5065 23.4155 35.2955 23.2045C35.0845 22.9935 34.7984 22.875 34.5 22.875H29.625V17.625H34.5C34.7984 17.625 35.0845 17.5065 35.2955 17.2955C35.5065 17.0845 35.625 16.7984 35.625 16.5C35.625 16.2016 35.5065 15.9155 35.2955 15.7045C35.0845 15.4935 34.7984 15.375 34.5 15.375H29.625V9C29.625 8.90054 29.6645 8.80516 29.7348 8.73483C29.8052 8.66451 29.9005 8.625 30 8.625H39C39.0995 8.625 39.1948 8.66451 39.2652 8.73483C39.3355 8.80516 39.375 8.90054 39.375 9V39ZM14.295 5.205C14.0841 4.99432 13.7981 4.87599 13.5 4.87599C13.2019 4.87599 12.9159 4.99432 12.705 5.205L6.705 11.205C6.49396 11.4158 6.37526 11.7017 6.375 12V39C6.375 39.6962 6.65156 40.3639 7.14384 40.8562C7.63613 41.3484 8.30381 41.625 9 41.625H18C18.6962 41.625 19.3639 41.3484 19.8562 40.8562C20.3484 40.3639 20.625 39.6962 20.625 39V12C20.6247 11.7017 20.506 11.4158 20.295 11.205L14.295 5.205ZM8.625 33.375V14.625H12.375V33.375H8.625ZM14.625 14.625H18.375V33.375H14.625V14.625ZM13.5 7.59188L18.2831 12.375H8.72062L13.5 7.59188ZM18 39.375H9C8.90054 39.375 8.80516 39.3355 8.73483 39.2652C8.66451 39.1948 8.625 39.0995 8.625 39V35.625H18.375V39C18.375 39.0995 18.3355 39.1948 18.2652 39.2652C18.1948 39.3355 18.0995 39.375 18 39.375Z" fill="var(--fill-0, #2E2E2E)"/>
</g>
</svg>
