<svg preserveAspectRatio="none" width="100%" height="100%" overflow="visible" style="display: block;" viewBox="0 0 48 48" fill="none" xmlns="http://www.w3.org/2000/svg">
<g id="Frame 14222">
<path id="Union" d="M24.5 3.5C24.5 3.5 26.3337 6.70642 28.2451 6.97949L29.5469 4.64648L34.377 6.28027C34.3734 6.30482 33.7442 10.7047 34.9355 12.2451L38.6055 10.0449L41.9717 13.875C41.9717 13.875 39.1948 17.4055 39.4756 19.3369L43.75 19.25L44.75 24.25C44.75 24.25 40.5989 25.9115 39.8623 27.7197L43.6055 29.7949L41.9717 34.625C41.9717 34.625 37.6044 33.9953 36.0342 35.1602L38.2031 38.8535L34.373 42.2197C34.3533 42.2042 30.8737 39.4718 28.9414 39.7188L29 44L24 45C24 45 22.3041 40.7661 20.4746 40.0928L18.207 44.2871L13.1943 41.9707C13.1943 41.9707 13.2293 38.1799 11.6143 37.0742L8.96387 38.7051L5.78125 34.1924C5.78125 34.1924 7.87086 30.9326 7.0791 29.1572L3.75 29.25L3.25 23.75C3.25 23.75 6.88015 22.0543 6.99414 20.0938L3.96387 18.4551L6.28125 13.4424C6.29377 13.4432 10.1867 13.7065 11.3711 12.1865L9.54297 9.21289L14.0557 6.03027C14.0557 6.03027 17.242 7.71887 19.0879 7.17188L19 4L24.5 3.5Z" stroke="var(--stroke-0, #2E2E2E)" stroke-width="2"/>
<circle id="Ellipse 1" cx="24" cy="24" r="13" stroke="var(--stroke-0, #2E2E2E)" stroke-width="2"/>
<circle id="Ellipse 2" cx="24" cy="24" r="4" stroke="var(--stroke-0, #2E2E2E)" stroke-width="2"/>
<path id="Ellipse 3" d="M33 24C33 19.0294 28.9706 15 24 15" stroke="var(--stroke-0, #2E2E2E)" stroke-width="2" stroke-linecap="round"/>
</g>
</svg>
