<svg preserveAspectRatio="none" width="100%" height="100%" overflow="visible" style="display: block;" viewBox="0 0 175 20.3884" fill="none" xmlns="http://www.w3.org/2000/svg">
<g id="image 315 [Vectorized]" clip-path="url(#clip0_569_4956)">
<path id="Subtract" d="M1.25082 0.292213C6.22727 0.103299 12.1865 0.27051 17.2332 0.268776L26.0692 0.266823C27.2972 0.267027 31.6749 0.0996652 32.5584 0.648659C32.8293 1.43897 32.7915 18.4314 32.5506 19.6985C32.2346 19.7761 31.9218 19.7985 31.5985 19.8303C29.5295 19.9739 27.0437 19.8991 24.9412 19.8996L13.5916 19.8967L6.07894 19.9084C4.12203 19.9124 2.09981 19.9794 0.165857 19.6916C0.0862651 17.7897 -0.236387 1.42341 0.388514 0.524635C0.646262 0.312411 0.917006 0.322791 1.25082 0.292213ZM28.6571 2.99827C28.0538 2.45672 19.935 2.83046 18.6053 2.72092C17.7576 2.65088 15.5527 2.74464 14.8534 3.28342C14.5032 4.12684 14.7957 13.6767 14.5926 15.6467L10.5731 15.6545C10.5343 14.9359 10.2932 12.0287 10.6844 11.4709C10.7254 11.4676 10.7716 11.4632 10.8221 11.4592C11.0874 11.4384 11.4729 11.4069 11.867 11.3684C12.2347 11.3325 12.6098 11.2881 12.9022 11.2375C13.0648 11.2094 13.2024 11.1821 13.2977 11.1496L13.2967 11.1487H13.2996C12.9612 10.8558 10.2453 10.7958 8.00765 10.8254C7.9734 10.8259 7.93914 10.8269 7.90512 10.8274C7.08564 10.8393 6.33701 10.8637 5.80258 10.8918C5.59114 10.9029 5.41301 10.9149 5.27719 10.927C5.20827 10.9331 5.15013 10.9383 5.10433 10.9446C4.8244 10.9288 4.51662 10.9548 4.26351 11.1174C3.97051 11.3059 3.70679 12.1175 3.70785 12.5393C3.71203 13.751 3.53982 15.8527 3.91586 16.9465C4.14939 17.2254 4.71634 17.3773 5.04769 17.3879C7.94304 17.4806 10.8623 17.4753 13.7577 17.468C14.942 17.465 17.2694 17.6066 18.1659 16.8586C18.5184 16.3167 18.3858 6.077 18.4305 4.52854C19.3623 4.50311 21.2595 4.37731 22.162 4.61741C22.3097 4.65699 22.3261 4.8877 22.3719 5.06858C22.2812 6.12305 22.3041 7.50195 22.2938 8.58225C21.4751 8.64273 20.3575 8.67427 19.5995 8.93186L19.5643 9.05198H19.5662C19.7253 9.12584 19.9764 9.17983 20.2782 9.22092C20.3337 9.22848 20.3913 9.23482 20.45 9.24143C20.9228 9.29469 21.4908 9.31992 22.0223 9.32737C22.2247 9.33019 22.4219 9.33043 22.6063 9.32932C22.9582 9.32724 23.2643 9.3202 23.4735 9.31174C25.4069 9.35755 29.4257 10.1245 29.0565 7.35178C28.8925 6.12016 29.399 4.11018 28.6571 2.99827ZM28.5838 11.1487C27.9185 10.6724 20.6634 10.8281 19.4549 10.9006L19.3866 11.1506C19.7005 11.4222 21.6787 11.4147 22.2752 11.4914C22.3387 13.0001 22.3554 14.117 22.2772 15.6389L19.4725 15.7141L19.4979 17.4465C21.7294 17.4651 23.9615 17.4666 26.1932 17.4494C26.9387 17.4454 28.0461 17.5409 28.6444 17.1252C29.3247 16.199 29.1798 13.3563 29.0086 12.216C28.9601 11.8931 28.8682 11.3531 28.5838 11.1487ZM13.2166 2.77171C10.9296 2.73172 7.96595 2.64462 5.69613 2.73753C5.09271 2.76403 4.47659 2.70916 4.04867 3.14085C3.60044 4.03669 3.37121 8.80927 4.38461 9.15452C5.30199 9.46616 12.9649 9.40635 13.2909 9.05198L13.242 8.89964L12.9813 8.7844C12.3647 8.75503 11.132 8.72646 10.5731 8.62034C10.3824 7.35664 10.4453 5.80691 10.5555 4.52854C11.4219 4.52263 12.3426 4.49931 13.2039 4.51194L13.2166 2.77171Z" fill="var(--fill-0, white)"/>
<path id="Vector" fill-rule="evenodd" clip-rule="evenodd" d="M37.9262 0.245093C39.1194 0.271464 40.3178 0.261951 41.515 0.252448C42.5591 0.24416 43.6024 0.235879 44.6405 0.251417C44.9661 0.256299 45.3084 0.254874 45.6614 0.253402C48.1105 0.243199 51.0739 0.230852 52.5688 2.30928C53.4552 3.5416 53.6097 5.66393 52.9753 7.04458C52.5446 7.98007 51.7298 8.55344 50.9162 9.12427C51.3121 9.3498 51.6987 9.57187 52.0787 9.82372C54.4806 11.4159 54.8732 14.436 53.6355 16.8659C51.4875 19.9613 48.3556 19.9061 45.0598 19.8481C44.6378 19.8407 44.2129 19.8332 43.7872 19.8323C41.8316 19.8236 39.876 19.8273 37.9205 19.8434C37.8128 13.5009 37.8562 6.59208 37.9262 0.245093ZM50.019 13.2263C49.5945 11.0046 47.0249 11.0601 45.1629 11.1003C44.991 11.104 44.8251 11.1076 44.6676 11.1093L42.2232 11.1404C42.1998 12.9463 42.1937 14.7525 42.2045 16.5585C42.5257 16.5588 42.8578 16.5606 43.1966 16.5624C44.729 16.5708 46.3991 16.5799 47.819 16.4514C48.616 16.2979 49.0846 16.1113 49.5672 15.4052C49.9976 14.7661 50.1598 13.9838 50.019 13.2263ZM42.2202 3.60767C42.6239 3.60777 43.0714 3.59636 43.5395 3.58442C44.9309 3.54894 46.5032 3.50885 47.6398 3.75303C48.4764 3.93276 48.8403 4.47237 49.2191 5.176C49.2605 6.28654 49.1907 6.68283 48.5812 7.60496C47.685 8.34078 44.8705 8.26019 43.0821 8.20898C42.746 8.19936 42.4462 8.19078 42.2021 8.18884C42.1956 6.66171 42.2016 5.13469 42.2202 3.60767Z" fill="var(--fill-0, white)"/>
<path id="Vector_2" fill-rule="evenodd" clip-rule="evenodd" d="M94.0694 5.32086C93.6148 5.31878 93.1129 5.31647 92.696 5.3718C90.6358 5.82338 90.0357 6.52885 89.0204 8.29793C88.9439 7.33867 88.9245 6.62351 88.9296 5.66027L85.2204 5.68016C85.0562 9.94795 85.1486 15.3336 85.2226 19.6529L85.2255 19.8218L89.1357 19.8327C89.1313 18.9586 89.13 18.0806 89.1286 17.2022C89.1268 16.0498 89.1251 14.8967 89.1164 13.7507C89.096 11.1327 89.9225 8.89313 92.9643 8.89568C93.448 8.90078 93.9307 8.91292 94.4144 8.9321C93.5337 11.3388 93.3552 13.4716 94.1848 15.9306C95.9603 19.952 100.29 21.1152 104.207 19.5472C108.02 18.0207 109.187 12.8354 107.58 9.30044C106.82 7.66274 105.444 6.39093 103.751 5.76125C100.162 4.43835 96.4725 5.71178 94.4103 8.91669C94.4073 8.62393 94.4066 8.30981 94.4059 7.98616C94.4039 7.08693 94.4018 6.11415 94.3501 5.32161C94.2594 5.32174 94.1655 5.32131 94.0694 5.32086ZM100.178 8.22471C104.528 7.67622 105.062 12.7151 103.732 15.7176C103.371 16.5315 102.571 16.9533 101.738 17.1764L101.642 17.1826C100.893 17.231 100.178 17.2773 99.4634 16.9367C97.1776 15.8484 97.0868 12.2045 97.9746 10.1604C98.4174 9.14337 99.1603 8.58968 100.178 8.22471Z" fill="var(--fill-0, white)"/>
<path id="Vector_3" fill-rule="evenodd" clip-rule="evenodd" d="M83.7093 0.270845L79.8288 0.251465C79.7838 2.61687 79.7603 4.98258 79.7582 7.3484C78.5108 6.02641 77.5663 5.41335 75.6671 5.31033C68.9566 4.94606 67.5592 14.5684 71.375 18.4997C71.9545 19.0907 72.6537 19.5508 73.4257 19.8492C75.9308 20.5967 78.2728 20.2263 79.9451 18.0579L80.003 19.826L83.6617 19.833C83.6596 18.0582 83.6439 16.2019 83.6279 14.312C83.588 9.59193 83.5463 4.66247 83.7093 0.270845ZM75.8973 8.23301C77.7541 8.10509 79.1899 8.81271 79.6771 10.6828C80.3001 13.0736 80.062 16.3578 77.3314 17.1859C77.2765 17.1889 77.2221 17.192 77.1683 17.195C76.4184 17.2375 75.7685 17.2744 75.0582 16.8754C72.8147 15.6156 72.6726 11.952 73.7563 9.87856C74.2336 8.9653 74.9379 8.51383 75.8973 8.23301Z" fill="var(--fill-0, white)"/>
<path id="Vector_4" fill-rule="evenodd" clip-rule="evenodd" d="M77.168 17.1949C77.2038 17.1929 77.2381 17.191 77.2744 17.189C77.2387 17.1909 77.2032 17.1929 77.168 17.1949Z" fill="var(--fill-0, white)"/>
<path id="Vector_5" fill-rule="evenodd" clip-rule="evenodd" d="M141.015 8.21717C140.561 5.45414 135.911 5.03582 133.537 5.37927C130.443 5.87278 129.018 6.8099 128.165 9.94881C129.237 10.0605 130.598 10.0444 131.751 10.0307C131.89 10.0291 132.025 10.0275 132.156 10.0261C132.803 7.78058 133.778 7.78069 136.141 8.08466C136.999 8.19503 137.515 9.3532 137.347 10.105C137.277 10.4682 136.795 10.8348 136.478 10.9729C135.608 11.3418 134.526 11.4846 133.422 11.6303C131.2 11.9236 128.888 12.2287 128.031 14.4141C127.646 15.3959 127.83 16.9566 128.249 17.9492C129.959 20.7604 134.185 20.6917 136.707 19.1242C136.967 18.9605 137.221 18.7904 137.472 18.6142C137.474 18.6716 137.476 18.7293 137.477 18.7868C137.486 19.1093 137.494 19.4278 137.671 19.6896C138.145 19.9021 140.143 19.8588 141.189 19.8361C141.374 19.8321 141.53 19.8287 141.641 19.8275C141.131 17.7382 141.176 15.5851 141.221 13.4492C141.258 11.6781 141.295 9.91871 141.015 8.21717ZM137.119 13.0124L137.24 13.066C137.44 13.9052 137.355 15.1974 137 15.9887C136.704 16.6511 136.152 17.1649 135.47 17.4117C134.486 17.7778 133.426 17.6311 132.488 17.2083C131.868 16.7046 131.542 15.8222 131.907 15.09C132.476 13.9507 133.866 13.709 135.22 13.4737C135.898 13.3558 136.567 13.2394 137.119 13.0124Z" fill="var(--fill-0, white)"/>
<path id="Vector_6" fill-rule="evenodd" clip-rule="evenodd" d="M61.3577 5.32811C61.1846 5.3379 61.0116 5.35188 60.8392 5.37034C55.7329 6.49353 53.6479 11.1266 55.3895 15.9518C56.6754 19.5148 60.5736 20.7451 64.0006 19.9782C66.54 19.4402 67.6713 17.6921 68.6939 15.5335L67.1784 15.4667L65.375 15.4714C65.3502 15.5031 65.3241 15.5365 65.297 15.5713C65.0443 15.8959 64.7008 16.337 64.3949 16.53C62.1113 17.9708 59.1034 17.3748 58.7494 14.4159C58.7172 14.1605 58.6957 13.9039 58.6847 13.6467C59.688 13.6467 60.7254 13.6554 61.7751 13.6643C64.1914 13.6847 66.6727 13.7057 68.9541 13.622C68.8019 10.8811 68.5501 8.90126 66.3956 6.86462C65.0391 5.58231 63.1796 5.22743 61.3577 5.32811ZM61.2216 8.22628C63.7895 7.99626 64.3151 9.02294 65.1112 11.2086C64.6013 11.2651 63.7649 11.2644 63.0847 11.2638C62.8794 11.2636 62.6882 11.2634 62.5246 11.2648L58.6217 11.2687C58.873 9.58458 59.5462 8.64868 61.2216 8.22628Z" fill="var(--fill-0, white)"/>
<path id="Vector_7" fill-rule="evenodd" clip-rule="evenodd" d="M63.3473 11.2638C63.2584 11.2638 63.1709 11.2637 63.0859 11.2637Z" fill="var(--fill-0, white)"/>
<path id="Vector_8" d="M150.036 5.37211C150.394 5.33498 150.756 5.31784 151.116 5.3206C156.577 5.31948 156.171 9.70673 156.175 13.6722L156.176 19.816L152.2 19.8277L152.22 14.1134C152.223 13.0173 152.264 11.9178 152.159 10.8259C151.907 8.22714 149.886 7.65867 147.793 8.8912C146.387 10.3372 146.814 13.2002 146.768 15.1193C146.732 16.6592 146.78 18.2817 146.787 19.8279L142.811 19.8308C142.766 15.1087 142.766 10.3864 142.814 5.66436C144.047 5.68445 145.327 5.66742 146.565 5.66548L146.572 7.6502C147.643 6.14123 148.284 5.85215 150.036 5.37211Z" fill="var(--fill-0, white)"/>
<path id="Vector_9" d="M162.013 5.37794C165.524 4.93616 169.111 5.76383 169.886 9.74613C168.624 9.81539 167.417 9.80407 166.154 9.79856L166.147 9.76938C165.587 7.58698 163.181 7.36338 161.474 8.6104C160.698 9.17755 161.579 10.0907 162.28 10.4349C164.803 11.6727 169.84 11.1384 170.176 14.846C170.494 18.3876 167.753 19.8739 164.696 20.1571C160.82 20.3059 157.786 19.5976 156.946 15.2556L160.746 15.2431C160.88 16.1249 160.899 16.3496 161.58 16.9151C164.154 19.0492 168.854 15.9226 164.53 14.2344C162.402 13.4034 157.763 13.3958 157.395 10.3718C157.018 7.28259 159.282 5.77699 162.013 5.37794Z" fill="var(--fill-0, white)"/>
<path id="Vector_10" d="M113.867 5.38184C115.462 5.1407 118.056 5.34114 119.376 6.2903C120.814 7.32463 121.168 8.1675 121.497 9.76848C120.32 9.79623 119.112 9.79643 117.933 9.8099C116.837 5.88075 110.055 8.88879 114.215 10.5621C117.591 11.7768 123.153 11.4483 121.618 16.8601C120.942 19.2368 118.2 20.0556 116.007 20.1635C112.388 20.207 109.212 19.438 108.656 15.2365L112.35 15.2582C112.679 17.2491 114.354 17.6346 116.122 17.5361C117.531 17.4575 118.672 15.7241 117.535 14.936C115.484 13.5135 112.305 13.8025 110.204 12.2301C108 10.5804 109.011 7.07268 111.298 6.06058C112.265 5.63624 112.836 5.52209 113.867 5.38184Z" fill="var(--fill-0, white)"/>
<path id="Vector_11" d="M122.925 5.6756L126.786 5.65887C126.767 10.3811 126.776 15.1034 126.814 19.8255L122.91 19.8198L122.925 5.6756Z" fill="var(--fill-0, white)"/>
<path id="&#194;&#174;" d="M172.85 7.10642C172.478 7.10642 172.142 7.02008 171.843 6.8474C171.545 6.66808 171.306 6.42566 171.126 6.12015C170.954 5.81464 170.867 5.47592 170.867 5.10399C170.867 4.72542 170.954 4.3867 171.126 4.08783C171.306 3.78232 171.545 3.54323 171.843 3.37055C172.142 3.19122 172.478 3.10156 172.85 3.10156C173.222 3.10156 173.557 3.19122 173.856 3.37055C174.161 3.54323 174.4 3.78232 174.573 4.08783C174.752 4.3867 174.842 4.72542 174.842 5.10399C174.842 5.47592 174.752 5.81464 174.573 6.12015C174.4 6.42566 174.161 6.66808 173.856 6.8474C173.557 7.02008 173.222 7.10642 172.85 7.10642ZM172.85 6.7677C173.168 6.7677 173.447 6.69796 173.687 6.55849C173.932 6.41238 174.125 6.21313 174.264 5.96075C174.404 5.70837 174.474 5.42278 174.474 5.10399C174.474 4.7852 174.404 4.49961 174.264 4.24723C174.125 3.99485 173.932 3.79893 173.687 3.65945C173.447 3.51334 173.168 3.44028 172.85 3.44028C172.544 3.44028 172.269 3.51334 172.023 3.65945C171.777 3.79893 171.584 3.99485 171.445 4.24723C171.306 4.49961 171.236 4.7852 171.236 5.10399C171.236 5.41614 171.306 5.69841 171.445 5.95079C171.584 6.20317 171.777 6.40241 172.023 6.54853C172.269 6.69464 172.544 6.7677 172.85 6.7677ZM172.192 6.03049V4.15757H172.929C173.129 4.15757 173.285 4.20738 173.398 4.307C173.511 4.40663 173.567 4.5461 173.567 4.72542C173.567 4.83833 173.534 4.94127 173.467 5.03425C173.408 5.12724 173.325 5.20029 173.218 5.25342L173.677 6.03049H173.308L172.89 5.32316H172.531V6.03049H172.192ZM172.89 4.43651H172.531V5.06414H172.88C173.112 5.06414 173.228 4.95788 173.228 4.74535C173.228 4.64572 173.198 4.56935 173.139 4.51621C173.085 4.46308 173.002 4.43651 172.89 4.43651Z" fill="var(--fill-0, white)"/>
<path id="Vector_12" d="M122.933 0.262277L126.81 0.265848L126.794 3.50687L122.911 3.49177C122.905 2.42775 122.926 1.32885 122.933 0.262277Z" fill="var(--fill-0, white)"/>
</g>
<defs>
<clipPath id="clip0_569_4956">
<rect width="175" height="20.3884" fill="white"/>
</clipPath>
</defs>
</svg>
