<svg preserveAspectRatio="none" width="100%" height="100%" overflow="visible" style="display: block;" viewBox="0 0 180 28.6813" fill="none" xmlns="http://www.w3.org/2000/svg">
<g id="image 313 [Vectorized]" clip-path="url(#clip0_569_4836)">
<path id="Vector" fill-rule="evenodd" clip-rule="evenodd" d="M144.637 14.0623C144.044 9.85393 140.143 6.92831 135.937 7.53591C131.751 8.14047 128.841 12.0168 129.432 16.2046C130.021 20.3925 133.889 23.3141 138.079 22.7385C142.29 22.1601 145.23 18.2707 144.637 14.0623ZM136.589 9.63147C141.447 9.34013 142.937 15.8057 140.4 19.0688C139.51 20.2144 138.796 20.4545 137.423 20.6591C131.456 21.1296 130.157 11.1751 136.589 9.63147Z" fill="var(--fill-0, white)"/>
<path id="Vector_2" d="M16.2243 0.412254C23.2233 0.19576 30.9201 0.461864 38.0045 0.413016C29.2952 5.20451 16.2657 -1.34037 8.02489 5.84126C3.04946 10.1771 2.6537 17.9482 6.99518 22.8539C10.7372 26.819 15.0502 27.5373 20.1367 27.9029C18.9962 28.1754 18.1368 28.2073 16.9834 28.3411C3.73064 29.8785 -5.04144 16.2557 4.1907 5.67394C6.90203 2.56643 11.956 0.649854 16.2243 0.412254Z" fill="var(--fill-0, white)"/>
<path id="Vector_3" d="M125.194 5.53418C125.372 5.72141 125.294 7.40387 125.289 7.76908L129.212 7.76592L129.147 10.0168C127.924 9.97634 126.527 9.99962 125.291 9.99375C125.231 12.3529 125.291 14.7355 125.262 17.0849C125.221 20.3377 126.328 21.1085 129.429 20.2792C129.423 20.9895 129.461 21.7625 129.481 22.4773C126.79 23.2585 123.145 23.0006 122.757 19.8231C122.406 16.9625 122.593 12.8921 122.578 9.97166C120.408 9.95317 116.884 9.72982 114.808 10.0017C109.835 10.6531 113.525 13.1379 115.58 14.1803C116.572 14.6737 117.872 15.2667 118.454 16.215C119.689 18.224 118.941 20.792 116.979 22.0052C114.569 23.4946 112.324 22.8322 109.823 22.2926C109.794 21.5544 109.834 20.5952 109.847 19.8396C111.525 20.4105 115.789 21.8325 116.019 18.5671C116.032 16.9606 113.44 16.0523 112.319 15.4851C107.535 13.0631 109.501 7.36894 114.847 7.75635C116.947 7.90844 120.329 7.77669 122.555 7.79073L122.615 5.85315C123.566 5.68975 124.233 5.60761 125.194 5.53418Z" fill="var(--fill-0, white)"/>
<path id="Vector_4" fill-rule="evenodd" clip-rule="evenodd" d="M98.485 14.5954C98.5742 9.57119 96.8789 6.83314 91.3859 7.58423C89.9866 7.75525 89.0105 7.98154 87.7265 8.62885C87.7265 9.44663 87.7407 10.2643 87.77 11.0815C91.1977 9.04323 95.2728 8.44031 95.8832 13.4208C95.5285 13.4267 95.1625 13.4274 94.7893 13.4281C92.0939 13.4331 89.0223 13.4389 87.0719 15.4202C85.5526 16.9637 85.5182 19.6852 86.9702 21.2916C89.6634 23.8055 93.5024 23.2171 96.0312 20.771L96.0182 22.5456L98.5427 22.5572C98.4817 19.9798 98.4393 17.1727 98.485 14.5954ZM95.0752 15.5147C95.3252 15.5163 95.5695 15.5178 95.7962 15.517C95.7951 18.8517 95.0432 20.5909 91.3762 20.6375C89.3337 20.3774 87.7864 18.845 89.3783 16.8693C90.2662 15.7667 92.0149 15.617 93.3511 15.532C93.8709 15.5073 94.4905 15.5111 95.0752 15.5147Z" fill="var(--fill-0, white)"/>
<g id="Vector_5">
</g>
<path id="Vector_6" fill-rule="evenodd" clip-rule="evenodd" d="M52.496 7.55661C52.3559 7.56477 52.2159 7.57586 52.0762 7.5899C50.6909 7.74003 49.4772 7.97763 48.2183 8.62603C48.2439 9.61679 48.2805 10.1564 48.4441 11.1357C49.8083 10.0497 51.6372 9.4214 53.3753 9.63865C55.7228 9.93217 56.227 11.4176 56.4473 13.4334C56.1062 13.4382 55.756 13.4386 55.3997 13.4389C52.6812 13.4416 49.613 13.4446 47.6169 15.442C46.1353 16.9246 46.2288 19.7367 47.5728 21.2919C49.8491 23.5125 53.9931 23.4264 56.1678 21.1793C56.3312 21.0086 56.4885 20.8323 56.6394 20.6504C56.636 20.7042 56.6326 20.7577 56.6292 20.811C56.5921 21.3951 56.5569 21.9482 56.5693 22.5419L59.1542 22.5696C59.0719 20.8403 59.0547 19.0661 59.0628 17.3356C59.0645 16.9537 59.069 16.5757 59.0735 16.203C59.1329 11.202 59.1808 7.16853 52.496 7.55661ZM53.7627 15.5337C54.4367 15.4918 55.1964 15.5009 55.9106 15.5096C56.0855 15.5117 56.2597 15.5138 56.4272 15.5151C56.3519 18.8105 55.8511 20.2504 52.3439 20.63C50.3387 20.4136 48.2723 19.2817 49.9524 16.9313C50.7351 15.8362 52.4814 15.6331 53.7627 15.5337Z" fill="var(--fill-0, white)"/>
<path id="Vector_7" fill-rule="evenodd" clip-rule="evenodd" d="M74.2508 15.7212C73.6025 10.5811 72.8101 6.85957 66.4083 7.57498C61.5755 8.35686 60.0842 12.6207 60.7781 16.9745C61.7298 22.9464 68.0827 23.9266 72.8603 22.0437C72.9548 21.1041 72.9526 20.3452 72.9498 19.4057L72.9496 19.3469C72.2835 19.7347 71.6806 20.0681 70.9177 20.2543C66.5031 21.3027 64.5802 20.1129 63.5047 15.8551C65.1501 15.7938 66.7718 15.803 68.4031 15.8123C69.0297 15.8158 69.6577 15.8194 70.2891 15.819C70.5121 15.8188 70.7537 15.8204 71.0065 15.8221C72.0729 15.8292 73.339 15.8377 74.2508 15.7212ZM66.7755 9.6508C69.763 9.3265 70.7809 11.1677 71.3848 13.7155L68.1261 13.7132C66.5904 13.7234 65.0547 13.7146 63.5192 13.6866C63.9449 11.7075 64.7897 10.291 66.7755 9.6508Z" fill="var(--fill-0, white)"/>
<path id="Vector_8" fill-rule="evenodd" clip-rule="evenodd" d="M167.405 7.56843C167.289 7.57452 167.173 7.58224 167.056 7.5916L166.951 7.59996C166.168 7.66199 165.389 7.72373 164.673 8.04536C161.732 9.36653 160.487 12.6894 160.791 15.7831C161.517 23.1796 167.486 23.8626 173.16 21.9563L173.105 19.4399C172.973 19.4998 172.827 19.5678 172.676 19.6382C172.332 19.799 171.961 19.9722 171.662 20.0895C167.767 21.2471 164.034 20.5239 163.682 15.8155C164.575 15.8167 165.51 15.8244 166.466 15.8323C169.1 15.854 171.881 15.8769 174.31 15.7687C174.083 11.1254 173.019 7.27545 167.405 7.56843ZM167.023 9.6382C169.978 9.42312 170.941 11.0342 171.524 13.6315C170.781 13.6682 170.013 13.6853 169.255 13.7022C168.958 13.7088 168.663 13.7154 168.372 13.7231L163.687 13.7081C163.92 11.5826 164.87 10.1551 167.023 9.6382Z" fill="var(--fill-0, white)"/>
<path id="Vector_9" d="M152.909 7.58802C153.139 7.56692 153.37 7.55408 153.602 7.54962C158.152 7.48054 159.165 10.2172 159.222 14.2881C159.261 17.0471 159.208 19.8275 159.223 22.5876L156.346 22.5573C156.463 20.1752 156.688 12.9997 155.702 11.1118C155.36 10.458 154.839 9.90353 154.12 9.68203C153.171 9.39004 152.04 9.71772 151.198 10.167C148.432 11.7862 148.732 15.6009 148.72 18.3726C148.715 19.7311 148.688 21.2081 148.781 22.5553L145.995 22.5601C146.06 17.7016 145.872 12.5973 146.057 7.76666L148.689 7.7994C148.615 8.33248 148.577 9.07977 148.757 9.58978C149.079 9.72479 149.522 8.91125 150.029 8.55235C151.098 7.79494 151.679 7.70519 152.909 7.58802Z" fill="var(--fill-0, white)"/>
<path id="Vector_10" d="M79.6151 7.58632C80.9069 7.419 82.6573 7.70196 83.9204 7.91367L83.8137 10.3211C82.6377 9.8569 81.4926 9.56545 80.2118 9.69339C79.2937 9.64367 77.8684 10.7957 78.2711 11.7853C79.3092 14.3367 84.1936 14.1843 84.5758 17.4975C84.9486 20.7294 83.155 22.3603 80.1172 22.9C79.0626 22.9578 76.2799 22.919 75.5838 22.1036C75.3813 21.5647 75.5302 20.4553 75.5804 19.8342C77.3181 20.4053 81.9165 21.6541 81.6621 18.486C81.4515 15.863 75.3934 15.7541 75.3867 12.4311C75.3802 9.12941 76.6129 7.95109 79.6151 7.58632Z" fill="var(--fill-0, white)"/>
<path id="Vector_11" d="M15.655 5.42277C18.9737 5.10564 23.5745 6.39558 25.8302 8.9401C31.4784 15.3118 27.9196 25.0119 18.8007 24.8272C17.2535 24.6532 16.7659 24.6011 15.3125 24.0204C20.6822 23.6091 24.9783 20.8299 25.176 14.9467C25.3139 10.8466 22.5334 7.95521 18.9674 6.4849C18.2669 6.19616 16.0421 5.87556 15.655 5.42277Z" fill="var(--fill-0, white)"/>
<path id="Vector_12" d="M40.7223 7.58824C42.3065 7.43604 43.4974 7.58356 45.0334 7.92027C44.9672 8.68191 44.9133 9.44465 44.8713 10.2079C40.1613 8.21955 36.2461 11.7203 37.2914 16.629C38.2072 20.9294 41.4553 20.9381 45.0551 20.1308L45.14 22.4261C42.8238 23.0072 40.7087 23.232 38.4682 22.1516C33.8794 19.9388 33.0195 13.6004 36.1189 9.80834C37.4076 8.23163 38.7819 7.78569 40.7223 7.58824Z" fill="var(--fill-0, white)"/>
<path id="Vector_13" d="M106.697 7.5795C107.566 7.51749 108.412 7.60071 109.281 7.6624C108.825 8.36976 108.404 8.96648 107.906 9.64534C103.135 10.4339 103.505 14.371 103.516 18.2352L103.533 22.5474L101.018 22.5538C100.77 22.5377 100.863 22.5732 100.668 22.4205C100.79 17.6931 100.7 12.5039 100.697 7.75356L103.339 7.81623C103.313 8.57755 103.35 9.26565 103.386 10.0247C104.324 8.45135 104.844 7.84919 106.697 7.5795Z" fill="var(--fill-0, white)"/>
<path id="Vector_14" d="M107.207 8.04834C107.594 8.10361 107.78 8.05215 107.983 8.30084L107.877 8.67976C107.655 8.84502 107.624 8.86525 107.356 8.93586C107.157 8.67389 107.221 8.43683 107.207 8.04834Z" fill="var(--fill-0, white)"/>
<path id="Vector_15" d="M15.4963 8.56996C16.1407 8.45083 17.2843 8.52916 17.9469 8.57159C16.4815 8.93659 15.2039 9.27515 13.9572 10.2006C11.2859 12.1838 11.0801 16.1304 13.064 18.6778C14.3217 20.2928 15.7784 20.2823 17.6336 20.4989C17.2236 20.652 16.812 20.8008 16.3988 20.9453C14.6148 21.6815 12.1678 20.7449 10.7668 19.5795C9.64077 18.6237 8.93663 17.2628 8.80703 15.7917C8.5363 12.732 10.81 9.34804 13.8702 8.74827C14.3677 8.65079 14.9853 8.61337 15.4963 8.56996Z" fill="var(--fill-0, white)"/>
</g>
<defs>
<clipPath id="clip0_569_4836">
<rect width="180" height="28.6813" fill="white"/>
</clipPath>
</defs>
</svg>
