<svg preserveAspectRatio="none" width="100%" height="100%" overflow="visible" style="display: block;" viewBox="0 0 118 79.9767" fill="none" xmlns="http://www.w3.org/2000/svg">
<g id="Layer-1">
<g id="Vector">
</g>
<g id="Group">
<path id="Vector_2" d="M27.7306 59.368C27.5779 59.368 27.5451 59.4628 27.502 59.6944C27.4437 59.9573 27.2501 60.3844 27.0064 60.658C26.4092 61.3453 25.6025 61.4757 24.3229 61.4757C23.7793 61.4757 23.2869 61.3811 22.8423 61.2169C22.5563 61.1053 22.2723 60.9624 21.9983 60.7872C20.4364 59.7458 19.6932 57.7324 19.6932 56.2296C19.6932 54.4731 20.1226 53.2601 21.0441 52.4122C21.7252 51.7913 22.6024 51.5022 23.8047 51.5022C25.0769 51.5022 26.2746 51.867 26.7851 52.4105C27.1255 52.7646 27.3376 53.2659 27.3525 53.7503C27.3525 53.9394 27.375 54.1145 27.5381 54.1145C27.7128 54.1145 27.7385 53.9439 27.7523 53.7389C27.7677 53.5844 27.7711 53.2913 27.7749 52.9811C27.7786 52.6818 27.7824 52.3721 27.7965 52.1347C27.8145 51.8222 27.838 51.6327 27.8534 51.5074C27.864 51.4219 27.8709 51.3652 27.8709 51.3156C27.8709 51.2444 27.8376 51.1215 27.6157 51.1012C27.386 51.0779 27.146 51.0306 26.8918 50.9805C26.6532 50.9334 26.4062 50.8848 26.1355 50.8486C25.4965 50.7651 24.9324 50.7012 23.9823 50.7012C21.9463 50.7012 20.451 51.204 19.2764 52.2833C17.657 53.7713 17.5312 55.7933 17.5312 56.3777C17.5312 58.2229 18.1534 59.705 19.3806 60.783C20.6555 61.8936 22.2777 62.411 24.4863 62.411C25.3662 62.411 26.5323 62.3207 27.1662 62.0665C27.4217 61.9623 27.494 61.8816 27.5733 61.6123C27.7257 61.0928 27.9001 59.8018 27.9001 59.6274C27.9001 59.413 27.8078 59.368 27.7306 59.368Z" fill="var(--fill-0, white)"/>
</g>
<g id="Group_2">
<path id="Vector_3" d="M57.3235 61.9722C57.1486 61.9722 56.9016 61.9576 56.5407 61.8443C56.1658 61.732 56.0479 61.3474 55.9389 60.5808L54.7745 52.6539C54.7324 52.365 54.6452 52.2246 54.5077 52.2246C54.3653 52.2246 54.2815 52.3512 54.1929 52.5545L50.7445 59.8074L47.2833 52.6425C47.1207 52.3184 47.036 52.2246 46.9044 52.2246C46.818 52.2246 46.7038 52.288 46.6509 52.5908L45.384 60.9519C45.3145 61.4213 45.2064 61.8652 44.8878 61.934C44.6996 61.9722 44.6121 61.9722 44.5111 61.9722C44.3509 61.9722 44.2696 62.0144 44.2696 62.0977C44.2696 62.2768 44.4708 62.2768 44.5369 62.2768C44.7691 62.2768 45.0643 62.2644 45.3247 62.2537C45.5256 62.2452 45.699 62.2378 45.8041 62.2378C45.8944 62.2378 46.0427 62.244 46.2146 62.2514C46.4852 62.2626 46.8221 62.2768 47.1479 62.2768C47.2681 62.2768 47.4916 62.2768 47.4916 62.0977C47.4916 62.0179 47.4084 61.9722 47.2633 61.9722C47.1004 61.9722 46.9221 61.9506 46.7338 61.9082C46.4944 61.8517 46.378 61.7292 46.378 61.534C46.378 61.3187 46.3923 61.1516 46.4163 60.9361L47.0768 55.8718C47.2505 56.2445 47.4695 56.7097 47.6796 57.1558C48.011 57.8601 48.3242 58.5253 48.3942 58.6888C48.552 59.0578 49.5879 61.0672 49.8672 61.6031L49.9077 61.679C50.1079 62.0563 50.2182 62.264 50.3474 62.264C50.4882 62.264 50.556 62.1348 50.8543 61.5241L53.6316 55.7287L54.3945 61.3337C54.4602 61.7954 54.3661 61.841 54.3523 61.8458C54.2678 61.8823 54.1893 61.9289 54.1893 62.0217C54.1893 62.142 54.3255 62.1759 54.5942 62.199C55.0997 62.2373 56.8636 62.2768 57.1961 62.2768C57.4339 62.2768 57.5649 62.2133 57.5649 62.0977C57.5649 61.9722 57.402 61.9722 57.3235 61.9722Z" fill="var(--fill-0, white)"/>
</g>
<g id="Group_3">
<path id="Vector_4" d="M63.4656 57.261C63.4656 57.2071 63.4836 57.2071 63.5043 57.2071C63.697 57.2071 63.8243 57.2071 64.054 57.2202C64.5364 57.2452 64.8283 57.3296 65.0958 57.5217C66.2024 58.293 66.322 59.5416 66.322 60.0429C66.322 61.5702 65.0632 61.6475 64.811 61.6475C64.5205 61.6475 64.2314 61.636 63.8906 61.4966C63.5023 61.339 63.4656 61.1429 63.4656 60.2999V57.261ZM65.017 56.3736C64.7962 56.5684 64.4984 56.6084 64.1192 56.6084C63.833 56.6084 63.6388 56.5958 63.5264 56.5703C63.4966 56.5629 63.4656 56.5551 63.4656 56.4656V53.2976C63.4656 53.156 63.4939 53.1322 63.5506 53.1158C63.6755 53.0909 63.7847 53.0909 63.9658 53.0909C64.5699 53.0909 65.5283 53.6207 65.5283 55.0427C65.5283 55.6414 65.352 56.1014 65.017 56.3736ZM65.6784 56.6823C66.442 56.0628 66.9468 55.4396 66.9468 54.4513C66.9468 53.9917 66.7475 52.4917 64.1834 52.4917C63.985 52.4917 63.7704 52.4999 63.5433 52.5086C63.2717 52.5189 62.9639 52.5308 62.6224 52.5308C62.5254 52.5308 62.3503 52.5252 62.1287 52.5181C61.7797 52.5069 61.3016 52.4917 60.8809 52.4917C60.7268 52.4917 60.5625 52.5033 60.5625 52.6432C60.5625 52.7966 60.7409 52.7966 60.8171 52.7966C60.9805 52.7966 61.2036 52.8079 61.3085 52.8327C61.7243 52.9219 61.8052 53.1202 61.8292 53.5311C61.8549 53.9406 61.8549 54.2928 61.8549 56.2478V58.5051C61.8549 59.6802 61.8549 60.6951 61.7921 61.2304C61.7367 61.6344 61.6658 61.8616 61.4483 61.9053C61.2965 61.9396 61.1487 61.9564 60.9966 61.9564C60.9306 61.9564 60.7554 61.9564 60.7554 62.095C60.7554 62.2051 60.8534 62.261 61.0468 62.261C61.3152 62.261 61.661 62.2472 61.9304 62.2349C62.1147 62.2349 62.2894 62.2303 62.4295 62.2265C62.5239 62.2242 62.603 62.2219 62.6596 62.2219C62.8449 62.2219 63.2239 62.2342 63.6188 62.261C63.8016 62.2666 63.9843 62.2756 64.1408 62.2833C64.3063 62.2915 64.4368 62.2979 64.5155 62.2979C66.9027 62.2979 67.9711 60.8757 67.9711 59.4662C67.9711 58.0204 66.7986 57.0858 65.6784 56.6823Z" fill="var(--fill-0, white)"/>
</g>
<g id="Group_4">
<path id="Vector_5" d="M76.8362 55.4128C76.8362 56.5865 76.3726 57.1037 76.0964 57.307C75.8773 57.4653 75.7182 57.518 75.209 57.518C74.8453 57.518 74.4864 57.4709 74.2514 57.393C74.1811 57.3633 74.1591 57.3323 74.1591 57.1965V53.2978C74.1591 53.2034 74.1778 53.1725 74.2478 53.1536C74.3612 53.119 74.567 53.1036 74.9153 53.1036C75.6285 53.1036 76.8362 53.5898 76.8362 55.4128ZM81.2639 61.8919C81.1657 61.8919 81.0567 61.8801 80.9117 61.8536L80.8966 61.8507C80.703 61.8116 80.1891 61.708 79.4978 60.9919C78.8403 60.2998 78.0929 59.3546 77.1468 58.1581L76.7454 57.6508C77.919 56.6891 78.4204 55.8269 78.4204 54.7728C78.4204 53.8359 77.8407 53.1934 77.5341 52.9847C76.8182 52.4935 75.9314 52.4272 75.1583 52.4272C74.9635 52.4272 74.6373 52.4364 74.2922 52.4461C73.9397 52.4559 73.575 52.4661 73.3531 52.4661C73.2503 52.4661 73.0701 52.4605 72.8419 52.4533C72.4747 52.4417 72.0176 52.4272 71.6001 52.4272C71.4459 52.4272 71.2812 52.4389 71.2812 52.5788C71.2812 52.7321 71.4597 52.7321 71.5359 52.7321C71.7347 52.7321 71.9366 52.7469 72.0281 52.7684C72.4437 52.8572 72.5245 53.0556 72.5487 53.4666C72.5746 53.876 72.5746 54.2283 72.5746 56.1834V58.4407C72.5746 59.6157 72.5746 60.6306 72.5102 61.1661C72.4563 61.5699 72.3858 61.797 72.1679 61.8408C72.0151 61.875 71.867 61.8919 71.7152 61.8919C71.6488 61.8919 71.4731 61.8919 71.4731 62.0305C71.4731 62.1407 71.5718 62.1965 71.7667 62.1965C72.0708 62.1965 72.4809 62.1827 72.8101 62.1717C73.035 62.164 73.2289 62.1574 73.3267 62.1574C73.3918 62.1574 73.5471 62.162 73.7437 62.1678C74.1316 62.1793 74.7175 62.1965 75.209 62.1965C75.4038 62.1965 75.5025 62.1407 75.5025 62.0305C75.5025 61.9888 75.4842 61.8919 75.3129 61.8919C75.1567 61.8919 74.8755 61.8653 74.6903 61.8402C74.3504 61.7947 74.2633 61.5684 74.2216 61.1666C74.1591 60.6306 74.1591 59.6098 74.1591 58.4274V58.2482C74.1591 58.1912 74.1791 58.1814 74.223 58.1814L75.3376 58.2075C75.423 58.2075 75.4868 58.2205 75.5405 58.2855C75.6366 58.3962 75.8803 58.7436 76.1625 59.1458C76.3639 59.4328 76.592 59.7579 76.8049 60.0517C77.5534 61.0822 78.0321 61.6587 78.5715 61.9481C78.9199 62.1362 79.2567 62.1965 79.9577 62.1965H81.1737C81.2647 62.1965 81.454 62.1965 81.454 62.0305C81.454 61.9888 81.4356 61.8919 81.2639 61.8919Z" fill="var(--fill-0, white)"/>
</g>
<g id="Group_5">
<path id="Vector_6" d="M87.3181 61.8797C87.1274 61.8797 86.8478 61.8538 86.67 61.8281C86.3169 61.7807 86.2284 61.5818 86.1891 61.2326C86.1393 60.684 86.1393 59.6886 86.1393 58.4285V56.1712C86.1393 54.2161 86.1393 53.8639 86.1652 53.4541C86.1899 52.9897 86.3017 52.8137 86.6067 52.7565C86.765 52.7317 86.8619 52.7201 86.9848 52.7201C87.0571 52.7201 87.2264 52.7201 87.2264 52.5539C87.2264 52.415 87.005 52.415 86.9217 52.415C86.6523 52.415 86.2989 52.427 85.9872 52.4377C85.7376 52.446 85.5019 52.4541 85.3589 52.4541C85.1866 52.4541 84.9185 52.4455 84.6345 52.4365C84.3009 52.426 83.956 52.415 83.6952 52.415C83.5166 52.415 83.3515 52.4319 83.3515 52.5539C83.3515 52.7201 83.521 52.7201 83.5934 52.7201C83.7672 52.7201 83.9233 52.737 84.0464 52.7692C84.3062 52.8288 84.428 53.0336 84.453 53.4542C84.4778 53.8638 84.4778 54.216 84.4778 56.1712V58.4285C84.4778 59.6882 84.4778 60.6833 84.4149 61.2193C84.3724 61.6267 84.2829 61.7861 84.0725 61.8286C83.9742 61.8505 83.8201 61.8797 83.619 61.8797C83.5528 61.8797 83.3771 61.8797 83.3771 62.0183C83.3771 62.1285 83.4758 62.1843 83.6705 62.1843C83.962 62.1843 84.3441 62.1718 84.6812 62.1608C84.9362 62.1524 85.1566 62.1452 85.2838 62.1452C85.4174 62.1452 85.6173 62.1511 85.8703 62.1585C86.2683 62.17 86.7634 62.1843 87.2798 62.1843C87.5325 62.1843 87.5597 62.0684 87.5597 62.0183C87.5597 61.9551 87.5178 61.8797 87.3181 61.8797Z" fill="var(--fill-0, white)"/>
</g>
<g id="Group_6">
<path id="Vector_7" d="M37.5701 59.1398C37.5608 59.1552 37.5396 59.1633 37.507 59.1633L37.1725 59.1634C36.7248 59.1636 35.9301 59.1643 35.3286 59.1643C34.8459 59.1643 34.5791 59.1639 34.5359 59.1633C34.5154 59.1628 34.5082 59.1557 34.5044 59.1498C34.4821 59.1158 34.5039 59.0224 34.526 58.968C34.5264 58.9674 34.5539 58.9086 34.5924 58.9086H37.4467C37.4959 58.9086 37.5205 58.926 37.5421 58.9777C37.5613 59.0142 37.5931 59.1019 37.5701 59.1398ZM34.8319 58.1533L36.0104 54.9953C36.0245 54.9386 36.0427 54.9125 36.0505 54.9074C36.0612 54.9181 36.072 54.9629 36.0774 54.9851L37.2325 58.1644C37.2361 58.1754 37.2356 58.1833 37.2333 58.1863C37.2309 58.1899 37.2215 58.1938 37.2035 58.1938H34.8484C34.8404 58.1938 34.8345 58.1922 34.8327 58.1899C34.8299 58.1863 34.8268 58.1736 34.8319 58.1533ZM41.5298 61.9518C41.4031 61.9518 41.2081 61.9429 41.0008 61.901C40.7142 61.8322 40.359 61.6148 39.8995 60.5253C39.4404 59.4322 38.5792 57.2675 37.8869 55.528C37.3361 54.1434 36.8605 52.9477 36.7249 52.6368C36.5974 52.3437 36.512 52.2042 36.3711 52.2042C36.2161 52.2042 36.1325 52.3679 35.9789 52.7416L32.7662 60.794C32.4886 61.4891 32.2486 61.8551 31.708 61.926C31.6103 61.9385 31.4325 61.9518 31.3156 61.9518C31.2635 61.9518 31.125 61.9518 31.125 62.0905C31.125 62.2436 31.2696 62.2564 31.4051 62.2564C31.8617 62.2564 32.327 62.2386 32.6348 62.2267C32.7716 62.2214 32.8714 62.2175 32.9157 62.2175C33.1117 62.2175 33.3506 62.2273 33.5819 62.2367C33.8193 62.2465 34.065 62.2564 34.2722 62.2564C34.3548 62.2564 34.5267 62.2564 34.5267 62.0905C34.5267 61.9625 34.4185 61.9518 34.2981 61.9518H34.1055C33.6846 61.9518 33.6307 61.759 33.6307 61.5914C33.6307 61.4495 33.6899 61.1478 33.8205 60.8206L34.1416 59.9675C34.1422 59.9664 34.2027 59.8473 34.2815 59.8473C34.2959 59.8473 34.3702 59.848 34.4879 59.8488C34.9467 59.8518 36.0212 59.8592 36.818 59.8592C37.6073 59.8592 37.7333 59.8519 37.7594 59.8467C37.8554 59.8276 37.8969 59.9229 37.8981 59.9255L38.5646 61.6941C38.5954 61.7679 38.5828 61.8232 38.5667 61.8569C38.5474 61.8973 38.5115 61.9291 38.4794 61.9391C38.3719 61.9498 38.267 61.9707 38.267 62.0905C38.267 62.2081 38.4115 62.2158 38.63 62.2275L38.687 62.2304C39.7116 62.2564 40.6542 62.2564 41.1073 62.2564C41.5842 62.2564 41.7327 62.2337 41.7327 62.0905C41.7327 61.9518 41.6057 61.9518 41.5298 61.9518Z" fill="var(--fill-0, white)"/>
</g>
<g id="Group_7">
<path id="Vector_8" d="M96.3235 59.1563C96.315 59.1717 96.285 59.1808 96.2412 59.1808L95.9048 59.1814C95.4498 59.1827 94.6381 59.1849 94.0254 59.1849C93.5354 59.1849 93.2663 59.1836 93.2252 59.1808C93.1996 59.1791 93.1876 59.1726 93.1854 59.1671C93.179 59.1537 93.194 59.1166 93.2119 59.0923L93.2465 59.0031C93.2699 58.9327 93.2871 58.9261 93.327 58.9261H96.1809C96.2298 58.9261 96.2552 58.9441 96.2747 58.9908L96.3097 59.085C96.3187 59.0993 96.3343 59.1369 96.3235 59.1563ZM93.5664 58.1707L94.7446 55.0133C94.7621 54.9464 94.7793 54.929 94.7846 54.9253C94.7947 54.9359 94.8052 54.978 94.8106 54.9988L95.9665 58.1817C95.9702 58.1929 95.9697 58.201 95.9674 58.2038C95.9651 58.2074 95.9556 58.2113 95.9374 58.2113H93.5816C93.5743 58.2113 93.5689 58.21 93.567 58.2075C93.5643 58.2039 93.5611 58.1913 93.5664 58.1707ZM100.265 61.9694C100.138 61.9694 99.9422 61.9604 99.7342 61.9185C99.4475 61.8496 99.0926 61.632 98.6345 60.5428C98.1764 59.4519 97.3167 57.2918 96.6259 55.5561C96.0727 54.1663 95.5952 52.966 95.4593 52.6542C95.3315 52.3612 95.2461 52.2216 95.1063 52.2216C94.9513 52.2216 94.8713 52.3771 94.7128 52.7591L91.5004 60.8115C91.2229 61.5065 90.983 61.8726 90.442 61.9435C90.3445 61.956 90.1668 61.9694 90.0498 61.9694C89.9977 61.9694 89.8594 61.9694 89.8594 62.108C89.8594 62.2612 90.0039 62.274 90.1393 62.274C90.5957 62.274 91.0605 62.2561 91.368 62.2441C91.5052 62.2389 91.6056 62.235 91.6504 62.235C91.8465 62.235 92.0855 62.2448 92.3166 62.2543C92.5539 62.264 92.7994 62.274 93.0069 62.274C93.0895 62.274 93.2611 62.274 93.2611 62.108C93.2611 61.9799 93.1527 61.9694 93.032 61.9694H92.8404C92.4185 61.9694 92.3644 61.7765 92.3644 61.6088C92.3644 61.4663 92.4239 61.1648 92.5545 60.8381L92.8761 59.985C92.8767 59.9839 92.9374 59.8648 93.0161 59.8648C93.0303 59.8648 93.1049 59.8655 93.2229 59.8663C93.6814 59.8693 94.7559 59.8767 95.5526 59.8767C96.3417 59.8767 96.4679 59.8694 96.4939 59.8643C96.59 59.8448 96.6311 59.9405 96.6324 59.943L97.2991 61.7118C97.3301 61.7852 97.3175 61.8404 97.3017 61.874C97.2824 61.9144 97.2462 61.9466 97.2139 61.9566C97.1062 61.9673 97.001 61.9882 97.001 62.108C97.001 62.2256 97.1454 62.2333 97.3645 62.245L97.4216 62.2479C98.4457 62.274 99.3887 62.274 99.8417 62.274C100.319 62.274 100.468 62.2512 100.468 62.108C100.468 61.9694 100.336 61.9694 100.265 61.9694Z" fill="var(--fill-0, white)"/>
</g>
<g id="Group_8">
<path id="Vector_9" d="M67.021 30.0301C65.7358 29.369 62.8005 28.0922 59.4947 28.0636C57.1459 28.0434 55.5355 28.5564 54.3942 29.0058C53.382 29.4038 52.3374 30.0974 51.7316 30.7718C51.2108 31.3509 51.0066 31.9701 51.004 31.9764C51.0053 31.9767 51.0115 31.9754 51.0154 31.9746C51.0154 31.9754 51.0138 31.9795 51.0138 31.9795C51.0138 31.9795 51.0385 31.9724 51.0835 31.9611C51.4124 31.8892 52.6953 31.6058 53.6688 31.9897C54.4702 32.305 55.4991 32.8683 56.353 34.437C56.8904 35.424 57.5543 37.0532 57.5615 37.0697C57.5626 37.068 57.56 37.0529 57.5564 37.0311C57.5648 37.0514 57.571 37.0652 57.571 37.0652C57.571 37.0652 57.5535 37.0002 57.5344 36.8859C57.4618 36.3835 57.3337 34.957 58.3331 33.955C59.4041 32.8826 61.6546 33.4974 61.6774 33.5035C61.6774 33.5023 61.6726 33.4953 61.6697 33.4902C61.6726 33.4913 61.6802 33.4931 61.6802 33.4931C61.6802 33.4931 61.6446 33.447 61.59 33.3698C61.3267 32.9752 60.561 31.7746 60.7839 30.8317C60.9525 30.1176 61.316 29.6675 61.9262 29.416C62.8682 29.0276 63.9977 29.3059 64.5412 29.4393L64.6687 29.47C65.6043 29.6894 67.6888 30.411 67.7101 30.4183C67.709 30.4165 67.6961 30.4078 67.6779 30.3961C67.6993 30.4035 67.7134 30.4084 67.7134 30.4084C67.7134 30.4084 67.4648 30.2564 67.021 30.0301Z" fill="var(--fill-0, #B78503)"/>
</g>
<g id="Group_9">
<path id="Vector_10" d="M55.9531 25.9792L55.9749 25.9636C55.9882 25.9542 57.2819 25.0225 58.9133 24.4715C59.9551 24.1191 61.4955 23.67 64.169 23.3215C67.5327 22.8823 70.8016 23.1772 70.8349 23.1802C70.8337 23.1779 70.8251 23.1731 70.8113 23.1673C70.8254 23.1687 70.8349 23.1696 70.8349 23.1696C70.8349 23.1696 70.8075 23.1627 70.7608 23.1449C70.5676 23.0539 70.0474 22.7619 69.9999 21.8974C69.9273 20.5752 72.0303 18.535 72.0518 18.515C72.0488 18.515 72.038 18.5205 72.0223 18.5283C72.0352 18.5156 72.0441 18.5071 72.0441 18.5071C72.0441 18.5071 71.9151 18.5821 71.6988 18.7033C70.8228 19.1806 68.5185 20.4202 67.2075 20.6767C66.4212 20.8302 65.56 20.7609 65.4066 20.2598C65.1961 19.5744 65.6437 18.4018 65.648 18.3898C65.6463 18.3903 65.6386 18.3949 65.6337 18.3972C65.6365 18.3912 65.6381 18.3862 65.6381 18.3862C65.6381 18.3862 65.3682 18.5426 64.9228 18.8048C62.9643 19.9473 57.6541 23.1304 56.8063 24.1921C56.1404 25.0265 55.9607 25.9439 55.9585 25.9531L55.9531 25.9792Z" fill="var(--fill-0, #B78503)"/>
</g>
<g id="Group_10">
<path id="Vector_11" d="M68.3074 25.9615C69.3083 24.6961 70.9262 23.9734 70.9421 23.9662C70.9406 23.9654 70.9347 23.9641 70.9247 23.9626C70.9313 23.9597 70.9377 23.9564 70.9377 23.9564C70.9377 23.9564 70.7586 23.9378 70.4516 23.9125C69.2618 23.805 66.1462 23.6055 63.7651 23.946C60.0242 24.4813 58.9043 25.0061 57.7189 25.5618C56.6723 26.0516 55.8342 26.6335 55.1568 27.3399C54.677 27.8416 54.6304 28.2633 54.6304 28.2674L54.6289 28.2843L54.6443 28.2787C54.6722 28.2674 57.4637 27.1943 61.0254 27.6127C64.1232 27.9772 67.8336 29.8206 67.8707 29.8393C67.8707 29.8381 67.8667 29.8293 67.8648 29.8242C67.8718 29.8278 67.8756 29.8299 67.8756 29.8299C67.8756 29.8299 67.8456 29.7795 67.8028 29.6946C67.5855 29.2234 66.9806 27.637 68.3074 25.9615Z" fill="var(--fill-0, #B78503)"/>
</g>
<g id="Group_11">
<path id="Vector_12" d="M69.7951 36.3528C69.5568 36.1337 69.347 35.9091 69.1843 35.683C69.1843 35.683 69.1908 35.6843 69.1958 35.6851C69.3564 35.9122 69.5629 36.1367 69.7951 36.3528ZM66.9154 42.0311C66.9111 42.0485 66.9077 42.0612 66.9077 42.0612C66.9077 42.0612 66.9054 42.0582 66.9044 42.058C66.9084 42.0525 66.9121 42.0438 66.9154 42.0311ZM64.0641 41.0669C64.0649 41.0602 64.0655 41.0505 64.0657 41.0408C64.0657 41.0479 64.0667 41.0531 64.0667 41.0592C64.0657 41.0613 64.0649 41.0646 64.0641 41.0669ZM55.5543 42.031C55.5496 42.0485 55.5464 42.0612 55.5464 42.0612L55.5438 42.058C55.5468 42.0525 55.5504 42.0428 55.5543 42.031ZM73.4387 24.2229C73.44 24.2254 73.4508 24.2229 73.47 24.2158C73.4592 24.2206 73.4518 24.2245 73.4464 24.2267C73.4454 24.2264 73.44 24.2234 73.4387 24.2229ZM76.9557 21.4052C76.9518 21.4058 76.9503 21.4155 76.9485 21.4234V21.4126C76.9507 21.4098 76.9548 21.4058 76.9557 21.4052ZM72.3623 29.236C71.9853 29.3689 71.581 29.361 71.2808 29.2167C71.082 29.1209 70.9438 28.9735 70.8804 28.791C70.8083 28.585 70.8373 28.3387 70.96 28.1132C71.1206 27.8177 71.4125 27.5994 71.7601 27.5168C72.7738 27.2743 73.4988 28.106 73.5065 28.114C73.5 28.1114 73.0095 29.0091 72.3623 29.236ZM69.9159 36.4608C69.9418 36.483 69.9667 36.5057 69.9924 36.528C69.9662 36.5057 69.9418 36.483 69.9159 36.4608ZM75.9245 24.807C75.9459 24.8631 76.076 25.0753 76.076 25.0753L76.1371 25.1613C76.1732 25.2214 76.2184 25.2894 76.3017 25.391L76.3869 25.5109C76.6448 25.8116 76.9666 25.9597 77.3279 26.1089C77.3283 26.1078 77.3273 26.1022 77.3273 26.0971C77.3283 26.0981 77.3301 26.0984 77.3315 26.0993C77.3315 26.0993 77.3261 26.0732 77.3165 26.0287C77.2638 25.7429 77.0492 24.7213 76.9797 23.6966C76.913 22.7035 76.919 22.553 76.9529 21.5712L76.9595 21.3966C76.9579 21.3966 76.9548 21.4002 76.9485 21.4043C76.9485 21.4014 76.949 21.3991 76.949 21.3963C76.949 21.3963 76.9272 21.4206 76.8874 21.4626C76.6804 21.6692 76.035 22.3382 75.1497 23.0431C73.9241 24.0188 73.4344 24.2201 73.43 24.2222C73.4307 24.2234 73.437 24.2275 73.4387 24.23C73.4356 24.2313 73.4339 24.2323 73.4339 24.2323C73.4339 24.2323 73.4524 24.2426 73.477 24.2567C73.6208 24.3472 74.1016 24.5891 74.6218 24.6062C74.942 24.6162 75.0038 24.5994 75.1397 24.5633C75.1397 24.5633 75.2944 24.5257 75.3316 24.517L75.289 24.6012C75.1212 24.9066 74.5928 25.9429 74.5928 25.9429C74.578 25.9241 71.6962 24.527 69.5994 26.7477C68.8699 27.5193 68.63 28.4876 68.9422 29.4022C69.1574 30.0351 70.0329 30.942 71.561 30.8484C73.3731 30.7372 74.125 29.04 74.165 28.9469C74.1678 28.9539 74.1721 28.9641 74.1793 28.9791C74.2206 29.0971 74.3683 29.4873 74.2503 29.94C74.107 30.4886 73.5878 31.2283 72.7857 31.5564C71.829 31.9467 70.5193 32.2117 68.0602 31.2124L67.5402 30.9981C66.9111 30.7355 66.3148 30.4886 65.6717 30.3042L65.4268 30.2323C64.8045 30.0482 64.0308 29.8191 63.1002 29.8191C62.5445 29.8191 61.9322 29.9063 61.6103 30.5516C61.4858 30.8025 61.432 31.0387 61.432 31.2722C61.432 31.7332 61.6388 32.1838 61.9122 32.7109C62.2887 33.4369 62.9606 34.4142 63.0514 34.5441C63.0317 34.5355 62.9962 34.5198 62.9455 34.4984C62.6286 34.3525 61.7047 33.9892 60.8356 33.9063C59.552 33.7842 58.9843 33.9689 58.4986 34.6677C58.2303 35.0549 57.9753 36.1247 58.1949 37.1285C58.4402 38.2521 59.0153 39.1375 59.772 39.5574L60.4361 39.8907C60.4279 39.9091 60.4197 39.927 60.4115 39.9449C59.7028 41.4911 58.747 42.5352 57.9631 42.5953C57.4105 42.638 56.7269 41.8004 56.2753 41.2466C56.0887 41.018 55.9409 40.8375 55.8545 40.781C55.2491 40.3866 54.698 40.9579 54.6922 40.9638C54.6927 40.9651 54.698 40.9676 54.7018 40.9694C54.7018 40.97 54.6998 40.9715 54.6998 40.9715C54.6998 40.9715 54.7047 40.9727 54.7075 40.973C54.7701 41.0001 55.0148 41.074 55.2575 41.2822C55.6626 41.6301 55.5492 42.0178 55.5381 42.0516C55.5356 42.0485 55.533 42.0466 55.5297 42.0428C55.4927 41.9845 55.2505 41.7648 54.6373 41.9098C53.873 42.0896 53.8441 43.44 53.8436 43.4534C53.8453 43.4538 53.8505 43.449 53.8548 43.4456C53.8548 43.4484 53.8538 43.4534 53.8538 43.4534C53.8538 43.4534 53.8643 43.4413 53.8782 43.4234C53.9588 43.3411 54.1681 43.092 54.4045 42.9175C55.0721 42.4227 56.0671 43.5014 56.1094 43.5479C56.0083 43.5715 55.9157 43.6039 55.8272 43.6406C54.9994 43.973 54.6936 44.8334 54.6898 44.8431C54.6909 44.8431 54.699 44.8413 54.7022 44.8401C54.7018 44.8421 54.6998 44.8461 54.6998 44.8461C54.6998 44.8461 54.7421 44.8326 54.8181 44.8096C55.3173 44.6736 57.2542 44.1566 59.8369 44.1907C61.2883 44.2104 62.84 44.6403 62.8554 44.6446C62.8562 44.6446 62.8562 44.6441 62.8562 44.6441C62.8562 44.6428 62.8513 44.6349 62.8498 44.6319C62.8528 44.6326 62.858 44.6342 62.858 44.6342C62.858 44.6342 62.84 44.6057 62.8084 44.5585C62.6812 44.3543 62.3001 43.8224 61.9573 43.6265C61.5566 43.3963 60.064 43.2201 59.9147 43.203C59.9396 43.1906 59.9898 43.1651 60.0604 43.1287C60.4862 42.9232 61.6334 42.3296 62.0284 42.0597C62.4822 41.7505 62.7264 41.5636 63.0083 41.1894C63.3482 40.7395 63.4321 40.2137 63.4333 40.2066C63.4333 40.2157 63.6366 40.2377 63.8027 40.4185C64.046 40.682 64.0567 41.0236 64.0567 41.0828V41.0917C64.0583 41.0917 64.0623 41.0843 64.0672 41.0733V41.0925C64.0672 41.0925 64.0834 41.0444 64.1036 40.9635C64.1842 40.6791 64.3001 39.9599 63.9256 39.2556C63.6504 38.7388 63.2759 38.5078 62.9468 38.3035C62.6931 38.1466 62.4739 38.0112 62.3437 37.7769C62.0428 37.2328 62.2482 36.5746 62.8442 36.1766C63.1991 35.9395 63.7235 35.6953 63.7296 35.6925C63.7235 35.703 64.562 37.115 66.1766 38.0743C67.7925 39.0329 69.9678 38.9776 69.9901 38.9766C69.9901 38.9794 70.6345 39.4682 70.7039 40.3392C70.753 40.95 70.5241 41.6518 70.1196 42.1254C69.8759 42.4116 69.6006 42.5741 69.3246 42.5953C68.7723 42.638 68.0887 41.8004 67.6365 41.2466C67.4499 41.018 67.3027 40.8375 67.216 40.781C66.6109 40.3866 66.0596 40.9579 66.0542 40.9638C66.0542 40.9651 66.0596 40.9676 66.0629 40.9694C66.0629 40.97 66.0612 40.9715 66.0612 40.9715C66.0612 40.9715 66.0656 40.9727 66.0689 40.973C66.1312 41.0001 66.3772 41.074 66.6193 41.2822C67.0247 41.6301 66.9111 42.0178 66.8989 42.0516C66.8974 42.0485 66.8946 42.0466 66.8908 42.0428C66.8536 41.9845 66.6122 41.7648 65.9983 41.9098C65.2346 42.0896 65.2051 43.44 65.2051 43.4534C65.2061 43.4538 65.2121 43.449 65.2154 43.4456V43.4534C65.2154 43.4534 65.2259 43.4413 65.24 43.4234C65.3196 43.3411 65.5297 43.092 65.7657 42.9175C66.4339 42.4227 67.429 43.5014 67.4702 43.5479C67.37 43.5715 67.2765 43.6039 67.1884 43.6406C66.3602 43.973 66.0547 44.8334 66.0516 44.8431C66.0525 44.8431 66.0602 44.8413 66.0629 44.8401C66.0629 44.8421 66.0612 44.8461 66.0612 44.8461C66.0612 44.8461 66.1038 44.8326 66.1792 44.8096C66.6781 44.6736 68.6159 44.1566 71.1983 44.1907C72.6507 44.2104 74.2017 44.6403 74.2168 44.6446V44.6441C74.2168 44.6428 74.2124 44.6349 74.2116 44.6319C74.2142 44.6326 74.2203 44.6342 74.2203 44.6342C74.2203 44.6342 74.2017 44.6057 74.1698 44.5592C74.0431 44.3546 73.6612 43.8224 73.319 43.6265C72.9119 43.3929 71.3781 43.2145 71.2709 43.2021C71.2881 43.1884 71.3258 43.1577 71.3829 43.1076C71.7188 42.8222 72.6494 41.9032 72.8207 40.7032C72.8328 40.6211 72.8372 40.5395 72.8372 40.4584C72.8372 39.7254 72.4131 39.0459 72.3813 38.9966C72.3924 38.9983 72.4086 39.0029 72.4311 39.0076C72.612 39.0608 73.2017 39.214 73.6098 39.4866C73.9667 39.7252 74.2301 40.0068 74.2324 40.0096C74.2339 40.0083 74.2339 40.0035 74.235 39.9968C74.2368 39.9983 74.2404 40.0025 74.2404 40.0025C74.2404 40.0025 74.2394 39.9599 74.228 39.8904C74.1883 39.6089 73.9635 38.885 72.8957 38.3585C72.4372 38.1321 70.1099 36.9424 69.199 35.6858C69.2194 35.6888 69.2597 35.6958 69.3164 35.7047C69.695 35.7743 70.8917 35.9447 71.8032 35.8886C73.1202 35.8078 74.0246 35.5533 74.8294 35.0395C75.742 34.4557 76.3939 33.6736 76.7678 32.7131C77.0711 31.9319 77.2212 31.2273 77.2212 30.5071C77.2212 29.9454 77.1299 29.3741 76.949 28.7498C76.5599 27.4099 75.3604 26.3636 75.3196 26.3283C75.3246 26.3145 75.9005 24.8436 75.9186 24.7976C75.9206 24.8014 75.9224 24.8035 75.9245 24.807Z" fill="var(--fill-0, #B78503)"/>
</g>
<g id="Group_12">
<path id="Vector_13" d="M44.1921 42.0307C44.1872 42.0482 44.1839 42.0611 44.1839 42.0611C44.1839 42.0611 44.1813 42.0581 44.181 42.0578C44.1843 42.0522 44.188 42.0425 44.1921 42.0307ZM43.4038 29.6036C43.4382 29.5565 43.4587 29.5269 43.4587 29.5269C43.4587 29.5269 43.4592 29.5335 43.4595 29.5359C43.4487 29.5473 43.4297 29.5709 43.4038 29.6036ZM41.0494 30.2464C41.0502 30.2479 41.0712 30.245 41.1064 30.2367C41.0805 30.2438 41.064 30.2479 41.0532 30.2505C41.052 30.2487 41.0494 30.2464 41.0494 30.2464ZM42.2612 20.3225C42.2612 20.3262 42.2782 20.3415 42.3026 20.3604C42.2841 20.3477 42.2712 20.3389 42.2635 20.3333C42.2627 20.3308 42.2612 20.323 42.2612 20.3225ZM50.5959 19.5765C50.5943 19.5803 50.4122 19.9358 50.0013 19.9039C49.6309 19.8757 49.6232 19.5008 49.6232 19.4702V19.4689C49.6185 19.4607 49.3969 19.3389 49.3402 19.3074C49.3484 19.3067 49.3609 19.3055 49.3759 19.3042C49.5565 19.3055 50.1767 19.2671 50.1767 19.2671L50.5723 19.3328C50.8042 19.3845 51.0814 19.4418 51.3736 19.431C51.0797 19.4844 50.5982 19.5721 50.5982 19.5721L50.5959 19.5765ZM52.7373 40.0303C53.1269 39.2028 53.139 38.5443 53.139 38.5208C53.1418 38.5216 53.1459 38.5221 53.1493 38.523C53.2552 38.5538 54.2295 38.7287 55.2453 38.5592C56.3217 38.3799 57.1729 38.0172 57.1813 38.0138C57.1769 37.9612 56.0449 33.9872 54.0102 32.8175C52.3876 31.8854 50.1888 32.7525 50.109 32.7844C50.1111 32.7725 50.1164 32.7487 50.1234 32.7174C50.1962 32.4404 50.4748 31.3678 51.2021 30.5029C52.097 29.4395 53.5012 28.7491 53.5154 28.742C53.5154 28.7407 53.5127 28.7376 53.5076 28.734C53.5082 28.734 53.5107 28.7325 53.5107 28.7325C53.5107 28.7325 53.5048 28.7295 53.4953 28.7234C53.4099 28.6527 53.0933 28.3791 53.3393 27.6259C53.6952 26.5374 55.0898 26.2834 55.1034 26.2809C55.1034 26.2791 55.0999 26.2763 55.0945 26.2717C55.0971 26.2712 55.1016 26.2704 55.1016 26.2704C55.1016 26.2704 55.0842 26.2602 55.0563 26.2412C54.9059 26.1225 54.4494 25.7312 54.6492 24.9811C54.779 24.4921 55.1707 24.1318 55.8135 23.9098C55.8705 23.8903 55.8772 23.888 55.879 23.8783C55.5632 23.6182 55.0878 23.112 55.3934 22.521C55.6417 22.0425 56.3766 21.9188 56.6533 21.8721C56.749 21.856 56.7614 21.8533 56.7645 21.842C56.4928 21.5597 56.0569 21.2909 55.7061 21.0745L55.4908 20.9404C55.2577 20.7924 55.0085 20.4683 55.0067 20.1584C55.0055 19.9799 55.0893 19.8308 55.2494 19.7267C56.0487 19.2062 56.4177 18.4584 56.4214 18.4509C56.4174 18.4519 56.4125 18.4519 56.4091 18.4527C56.4107 18.4497 56.412 18.4461 56.412 18.4461C56.3604 18.4609 56.3047 18.4709 56.2465 18.4776C55.834 18.512 55.3238 18.3804 55.3082 18.3766C55.3118 18.3691 55.3171 18.3588 55.324 18.3441C55.4152 18.1834 55.6804 17.6302 55.6103 17.5717C55.5886 17.553 55.5514 17.5811 55.5391 17.5901C55.3666 17.7198 54.8518 17.8182 54.2549 17.9325L53.5497 18.0725C52.7094 18.253 52.2781 18.7371 52.2741 18.742C52.2646 18.7331 50.2411 18.174 49.5818 18.234C48.9193 18.2945 48.47 19.1592 48.4652 19.1683C48.4652 19.1612 47.3676 19.0372 46.5592 19.2031C45.7615 19.3665 45.1987 19.7387 45.1774 19.8101C45.1889 19.8376 45.205 19.8376 45.2343 19.8294C45.6475 19.7108 46.8116 19.9786 46.8388 19.9852C46.8375 19.9881 46.8375 19.9881 46.836 19.9927C46.8211 20.0108 46.7726 20.1246 46.7726 20.2959C46.7726 20.4251 46.8009 20.5839 46.894 20.7525C47.0541 21.04 47.5169 21.1184 47.9955 20.9387C48.1943 20.864 48.3107 20.7402 48.4226 20.6207C48.585 20.4481 48.7253 20.2985 49.0785 20.334C49.6668 20.3926 49.7326 20.9246 49.7335 20.9299C49.7162 20.9246 47.2513 21.5523 46.0287 21.4029C45.2586 21.3087 44.6505 21.1635 44.6405 21.1611L44.6417 21.1584C44.6581 21.144 44.7982 20.7509 44.7982 20.7509C44.7957 20.7497 44.7925 20.7502 44.787 20.751L44.7882 20.7473C44.7882 20.7473 44.7844 20.7496 44.7772 20.7528C44.7151 20.765 44.4961 20.8169 43.7014 20.7668C42.7491 20.7072 42.262 20.3192 42.2571 20.3152C42.2561 20.3159 42.2579 20.3249 42.2579 20.3289C42.2556 20.3277 42.2504 20.3233 42.2504 20.3233C42.2504 20.3233 42.2579 20.3553 42.2712 20.4021C42.3197 20.6034 42.5229 21.1448 43.1491 21.7241C43.9279 22.4438 44.9563 22.7525 44.9668 22.7555V22.7545C44.9668 22.753 44.964 22.7459 44.9632 22.7436C44.9655 22.7441 44.9698 22.7455 44.9698 22.7455L44.9452 22.6955C44.8724 22.528 44.6381 22.0574 44.6205 22.0221C44.6272 22.0239 44.6374 22.0259 44.6525 22.0294C44.7739 22.0683 45.2207 22.1647 45.7848 22.2115C46.8234 22.2964 47.4194 22.1008 47.482 22.0789C47.4791 22.0827 47.4753 22.0873 47.4719 22.0927C47.4217 22.1473 47.3045 22.3422 47.2559 22.6832C47.2526 22.707 47.2505 22.7303 47.2505 22.7538C47.2505 22.9397 47.3544 23.1033 47.4555 23.2622C47.5461 23.4047 47.6322 23.5404 47.6322 23.6796C47.6322 23.7101 47.6279 23.7407 47.6189 23.7721C47.5966 23.8463 47.5872 23.9299 47.5872 24.0187C47.5872 24.4944 47.8577 25.1037 47.8611 25.111C47.8619 25.111 47.8657 25.1031 47.8672 25.0998C47.8691 25.1031 47.87 25.1065 47.87 25.1065C47.87 25.1065 47.8713 25.1037 47.8891 25.0553C47.957 24.8991 48.1222 24.4445 48.1222 24.4445C48.3533 23.8075 48.6412 23.4469 48.6604 23.4228L48.6704 23.4476C48.7056 23.5627 48.8882 24.021 48.8882 24.021C48.8897 24.02 48.892 24.0139 48.8938 24.0062L48.8979 24.017C48.8979 24.017 48.8979 24.0028 48.8989 23.9819C48.9167 23.8891 48.968 23.6361 49.3264 23.4207C49.9559 23.0417 50.6802 23.0019 50.7628 22.9983C50.7398 23.028 50.6713 23.1174 50.5682 23.2532C49.8917 24.1251 47.7229 27.0144 47.0153 28.4322C46.6121 29.2395 46.5033 30.1671 46.5033 30.9323C46.5033 31.7995 46.6423 32.4535 46.6506 32.4906C46.6423 32.4885 46.629 32.4847 46.6133 32.4798C46.4372 32.4156 45.696 32.1694 45.28 31.6998C44.9311 31.3067 44.8677 30.2246 44.8118 29.2698L44.738 28.3144C44.6184 27.3523 43.7755 26.7689 43.7667 26.7632C43.7726 26.7712 43.9845 26.2847 44.1338 25.7149C44.1657 25.5936 44.1782 25.4611 44.1782 25.3302C44.1782 24.923 44.061 24.5349 44.0432 24.5019C44.0432 24.5092 44.0499 24.5377 44.0599 24.5809C44.0523 24.5538 44.0456 24.5328 44.0412 24.5193C44.0412 24.5129 44.0432 24.5083 44.0432 24.5014C44.0427 24.5008 44.0402 24.4922 44.0399 24.4922C44.0399 24.4988 44.0382 24.5034 44.0372 24.5097C44.0346 24.5029 44.033 24.4988 44.033 24.5011C44.033 24.5543 44.0227 24.5988 44.0102 24.6422C43.9335 24.8701 43.7264 24.9522 43.6264 24.9778C43.5056 25.0088 43.4163 24.998 43.4092 24.9849C43.4092 24.4113 42.9462 23.6842 42.3716 23.643C41.9863 23.6154 41.5235 23.9443 41.5184 23.9476C41.5193 23.9486 41.5273 23.9515 41.5291 23.9533C41.5288 23.9537 41.5252 23.9563 41.5252 23.9563C41.5252 23.9563 41.5381 23.9604 41.5589 23.9675C41.7 24.0241 42.1894 24.2018 42.3923 24.507C42.6503 24.895 42.6624 26.0668 42.6624 26.2834V26.3092C42.6565 26.3054 42.6485 26.2983 42.6339 26.2868C42.5283 26.1883 42.1296 25.85 41.7753 25.343C41.5568 25.0305 41.2695 25.0906 41.0673 25.1957C40.8567 25.3051 40.66 25.5111 40.6682 25.5338C41.0918 25.4525 41.2733 25.6566 41.2751 25.6588C41.2754 25.6624 41.5219 26.39 42.0617 26.8711C42.5691 27.3225 42.8546 27.8436 42.6022 28.9192C42.3649 29.93 41.0523 30.2405 41.0391 30.2432C41.0391 30.2443 41.0414 30.2479 41.0448 30.2527C41.044 30.253 41.0414 30.2537 41.0414 30.2537C41.0414 30.2537 41.0523 30.265 41.0709 30.2835C41.1946 30.4207 41.6732 30.8438 42.1924 30.6877C42.7614 30.517 43.3881 29.6458 43.46 29.544C43.4615 29.5699 43.4656 29.6297 43.4712 29.7213C43.4982 30.3921 43.6293 32.6762 43.6293 32.6762C43.6764 33.6597 44.1551 34.389 44.7608 35.3124L45.323 36.1929C45.548 36.5632 45.6299 36.917 45.6299 37.2366C45.6299 38.1003 45.0311 38.7144 45.0226 38.7228C45.0214 38.7254 45.0189 38.7331 45.0189 38.743C45.0189 38.7581 45.0239 38.7781 45.0434 38.7941C45.1222 38.8602 45.3705 38.7988 45.7597 38.6193C46.0916 38.4655 46.3317 38.2652 46.5636 38.0714C46.8866 37.8014 47.2201 37.5233 47.8131 37.3481C48.8218 37.051 49.4279 37.7614 49.4338 37.7684C49.4376 37.7735 49.7822 38.2693 49.0693 39.8768C48.3636 41.4675 47.3945 42.534 46.6003 42.5952C46.048 42.6377 45.3644 41.8001 44.9119 41.2459C44.7261 41.0172 44.5787 40.8372 44.492 40.7808C43.8871 40.3863 43.3353 40.9579 43.3304 40.9635C43.3311 40.965 43.3356 40.9673 43.3392 40.9691C43.3392 40.9698 43.3378 40.9712 43.3378 40.9712C43.3378 40.9712 43.3424 40.9724 43.3451 40.9729C43.4079 41 43.6526 41.0737 43.8952 41.2819C44.3008 41.6305 44.1864 42.018 44.1757 42.0514C44.1736 42.0489 44.171 42.0463 44.1674 42.0425C44.1303 41.9845 43.8883 41.7645 43.2752 41.9095C42.5105 42.0893 42.4813 43.4399 42.4813 43.4532C42.4831 43.4535 42.488 43.4487 42.4919 43.4455C42.4916 43.4481 42.4916 43.4532 42.4916 43.4532C42.4916 43.4532 42.5019 43.441 42.516 43.4231C42.5965 43.3404 42.8055 43.0919 43.0421 42.9172C43.71 42.4226 44.7046 43.5008 44.7471 43.5476C44.6446 43.5714 44.551 43.6047 44.4619 43.6415C43.636 43.9748 43.3314 44.8331 43.3281 44.8428C43.3289 44.8428 43.3366 44.841 43.3396 44.8399C43.3392 44.8418 43.3378 44.8459 43.3378 44.8459C43.3378 44.8459 43.3807 44.8325 43.4558 44.8095C43.955 44.6734 45.892 44.1563 48.4742 44.1904C49.9271 44.2101 51.4778 44.6402 51.4939 44.6443V44.6438C51.4939 44.6425 51.4885 44.6346 51.4881 44.6317C51.4906 44.6323 51.4963 44.634 51.4963 44.634C51.4963 44.634 51.4773 44.6044 51.4447 44.5568C51.3169 44.3504 50.9368 43.821 50.5953 43.6262C50.1901 43.3942 48.6733 43.2169 48.5493 43.2024C48.5698 43.1886 48.6143 43.1594 48.6828 43.112C49.0842 42.8476 50.2193 42.0228 50.8406 41.1384C51.4593 40.2576 51.4762 39.0565 51.477 39.0346C51.4773 39.0353 51.4788 39.0353 51.4788 39.0353C51.4909 39.0468 51.6936 39.0857 52.0004 39.674C52.3276 40.2995 52.3323 40.7249 52.3323 40.7289C52.3356 40.7238 52.3384 40.7188 52.3423 40.7134C52.3426 40.7218 52.3426 40.7289 52.3426 40.7289C52.5065 40.4891 52.6347 40.2535 52.7373 40.0303Z" fill="var(--fill-0, #B78503)"/>
</g>
<g id="Group_13">
<path id="Vector_14" d="M99.5718 53.0265C99.5718 53.1081 99.541 53.1583 99.5101 53.1795C99.4938 53.1922 99.4829 53.1938 99.4543 53.1938C99.4238 53.1938 99.3933 53.1902 99.371 53.1854V52.8304C99.3784 52.8301 99.3871 52.8301 99.3969 52.8301C99.5591 52.8301 99.5718 52.9803 99.5718 53.0265ZM99.4561 52.4646C99.8628 52.4646 100.194 52.8107 100.194 53.2365C100.194 53.3922 100.15 53.5373 100.074 53.6587C100.062 53.6534 100.048 53.6503 100.033 53.6503C100.003 53.6503 99.9658 53.6115 99.9349 53.5799C99.8872 53.5317 99.8363 53.4641 99.7768 53.3858C99.7494 53.3496 99.7207 53.3114 99.6896 53.2721C99.7938 53.1597 99.8355 53.0675 99.8355 52.9552C99.8355 52.8321 99.7719 52.7562 99.7166 52.7134C99.6537 52.6667 99.5536 52.6439 99.4108 52.6439C99.3643 52.6439 99.3322 52.6454 99.3041 52.6464C99.2838 52.647 99.2659 52.6478 99.2464 52.6478L99.203 52.6465C99.1678 52.6454 99.1237 52.6439 99.1135 52.6439H99.0722C99.0081 52.6439 98.9791 52.6843 98.9791 52.7217C98.9791 52.7697 99.0159 52.806 99.0627 52.806C99.1022 52.8074 99.1121 52.8125 99.1135 52.8189C99.1163 52.8664 99.116 52.9181 99.116 53.0176V53.3483C99.116 53.512 99.116 53.5868 99.1114 53.6345C99.1111 53.6404 99.1107 53.6449 99.1099 53.6483C99.0975 53.6496 99.0785 53.6501 99.0722 53.6503C99.0201 53.6503 98.9809 53.6853 98.9809 53.7314C98.9809 53.7764 99.0201 53.813 99.068 53.813H99.1107C99.1229 53.813 99.1706 53.8109 99.2066 53.8094L99.2453 53.8078L99.2874 53.8096C99.3202 53.8111 99.3605 53.813 99.3699 53.813H99.4154C99.4605 53.813 99.4947 53.7864 99.5049 53.7436L99.5085 53.7288L99.5052 53.714C99.5015 53.6984 99.4847 53.648 99.4182 53.648L99.4003 53.6482C99.3898 53.6482 99.3828 53.6477 99.3776 53.6472C99.3741 53.6235 99.371 53.5652 99.371 53.4301V53.3776H99.4633L99.4651 53.38C99.498 53.4278 99.5446 53.4961 99.5906 53.5598C99.6704 53.667 99.7278 53.7401 99.7987 53.7794C99.8425 53.802 99.8964 53.8097 99.9485 53.812C99.8191 53.9337 99.6483 54.0079 99.4616 54.0079C99.0429 54.0079 98.7146 53.6692 98.7146 53.2365C98.7146 52.8035 99.0404 52.4646 99.4561 52.4646ZM99.4543 54.239C100.004 54.239 100.451 53.7902 100.451 53.2386C100.451 52.6853 100.004 52.2349 99.4561 52.2349C98.9054 52.2349 98.4572 52.6853 98.4572 53.2386C98.4572 53.7902 98.9042 54.239 99.4543 54.239Z" fill="var(--fill-0, white)"/>
</g>
</g>
</svg>
