<svg preserveAspectRatio="none" width="100%" height="100%" overflow="visible" style="display: block;" viewBox="0 0 136.455 40.0001" fill="none" xmlns="http://www.w3.org/2000/svg">
<g id="Group">
<path id="Vector" d="M17.2934 18.71L15.1439 14.892C13.8028 12.51 10.2286 10.9987 7.21708 12.6936C4.02429 14.4909 4.74724 17.049 7.26435 21.5202C10.0017 26.3819 11.4838 27.9976 15.0399 25.9954C17.5069 24.6063 18.8547 21.3985 17.2934 18.71Z" fill="var(--fill-0, #D1202F)"/>
<path id="Vector_2" d="M25.0806 19.5431V0.0239258H10.918L22.6876 20.8905L25.0806 19.5431Z" fill="var(--fill-0, #D1202F)"/>
<path id="Vector_3" d="M3.41499 23.6798C1.56054 20.3862 2.16648 14.5573 6.65032 12.0335C9.33999 10.5191 12.1739 11.3574 13.736 12.5587L13.8108 12.5165L7.23301 0.799271L4.24431 2.48194L3.63285 1.42924L6.1283 0.0239258H0V26.9388H6.64638C5.31474 26.1792 4.19191 25.0599 3.41499 23.6798Z" fill="var(--fill-0, #D1202F)"/>
<path id="Vector_4" d="M25.0746 20.7788L20.0514 23.6068L18.6705 21.1531L18.5957 21.1952C18.6784 22.6533 17.8877 25.356 15.3099 26.8074C15.2272 26.8531 15.1444 26.8953 15.0625 26.9386H25.0746V20.7788Z" fill="var(--fill-0, #D1202F)"/>
<path id="Vector_5" d="M7.26513 21.5204C4.74762 17.0488 4.02468 14.4911 7.21825 12.6934C10.229 10.9985 13.804 12.5098 15.1443 14.8922L17.2938 18.7102C18.8551 21.3983 17.5077 24.6069 15.0402 25.9956C11.4846 27.9974 10.0021 26.3825 7.26513 21.5204ZM18.5955 21.1954L18.6696 21.1533L20.0508 23.6069L25.0744 20.779V19.5431L22.681 20.8905L10.9118 0.0239258H6.12615L3.63031 1.42884L4.24136 2.48194L7.23046 0.799271L13.8079 12.5165L13.733 12.5587C12.1717 11.3574 9.33745 10.5191 6.64777 12.0335C2.16393 14.5573 1.55799 20.3862 3.41204 23.6798C4.18936 25.0599 5.31219 26.1792 6.64344 26.9388H15.0615C15.1443 26.8955 15.2266 26.8537 15.3089 26.8072C17.8867 25.3558 18.6778 22.6531 18.5955 21.1954Z" fill="var(--fill-0, white)"/>
<path id="Vector_6" d="M46.8104 15.9354C46.8104 12.864 44.4111 9.41313 40.9185 9.41313C37.2143 9.41313 36.5828 12.3167 36.5828 18.0826C36.5828 24.3531 37.0879 26.7516 41.2132 26.7516C44.075 26.7516 46.8526 24.3531 46.8104 20.8597V15.9354ZM46.8104 23.848H46.7265C46.095 25.2786 44.1172 27.4253 41.2132 27.4253C35.952 27.4253 32.543 23.0061 32.543 18.0826C32.543 13.9576 35.8681 8.73903 40.9185 8.73903C43.9486 8.73903 45.9689 11.0536 46.7265 13.0322H46.8104V0.695222H43.4435V0.0227051H46.8104C48.157 0.0227051 49.0663 0.024675 50.3452 0.0227051V26.2469H53.2492V26.9203H46.8104V23.848Z" fill="var(--fill-0, white)"/>
<path id="Vector_7" d="M64.8573 17.7041C61.7851 17.7041 57.9557 17.7877 57.9557 22.2916C57.9557 24.648 58.3339 26.4161 61.0275 26.4161C64.1836 26.4161 65.5728 24.0594 65.5728 23.2174V17.7041H64.8573ZM69.1083 24.648C69.1083 25.4485 69.2344 26.5 70.3706 26.5C71.3386 26.5 71.928 25.7003 72.5588 24.8166L73.0217 25.153C72.2227 26.5414 71.1282 27.4263 69.3187 27.4263C67.341 27.4263 65.9096 26.2897 65.615 24.8166H65.531C64.0997 26.71 62.2059 27.4263 59.4283 27.4263C56.1457 27.4263 54.168 25.7846 54.168 22.9227C54.168 18.2088 60.4385 17.0308 64.7734 17.0308H65.5728V11.8536C65.5728 9.87661 63.7207 9.41369 62.122 9.41369C60.901 9.41369 58.04 9.87661 58.04 11.3914C58.04 12.4016 59.4283 11.9379 59.4283 13.8321C59.4283 14.8423 58.5864 15.5995 57.4927 15.5995C56.314 15.5995 55.6407 14.6741 55.6407 13.2435C55.6407 11.0968 57.9131 8.73999 62.122 8.73999C65.3203 8.73999 69.1083 10.3813 69.1083 13.6217V24.648Z" fill="var(--fill-0, white)"/>
<path id="Vector_8" d="M75.6638 0.696068H72.2969V0.0227631H75.6638C77.0104 0.0227631 78.1986 -0.0284538 79.1985 0.0227631V26.2478H82.3551V26.9211H72.6247V26.2478H75.6638V0.696068Z" fill="var(--fill-0, white)"/>
<path id="Vector_9" d="M98.8069 5.15394C99.9849 5.15394 100.953 4.18634 100.953 3.00756C100.953 1.82918 99.9849 0.861572 98.8069 0.861572C97.6289 0.861572 96.6602 1.82918 96.6602 3.00756C96.6602 4.18634 97.6289 5.15394 98.8069 5.15394Z" fill="var(--fill-0, white)"/>
<path id="Vector_10" d="M111.009 26.2477V0.0227051C109.475 0.0250689 108.82 0.0227051 107.474 0.0227051H104.107V0.695616H107.474V26.2477H100.579V8.73943C99.7374 9.58136 98.3904 9.66567 97.0438 9.66567H89.0327V3.77375H88.5276C87.8122 7.8975 86.2122 9.74958 81.8359 9.66567V10.339H85.4972V23.6798C85.4972 26.5944 87.7909 27.4257 89.9184 27.4257C93.0327 27.4257 94.1737 25.2072 94.5484 24.227L93.9164 24.1006C93.6639 24.8168 92.478 26.752 90.7816 26.752C89.7647 26.752 89.0327 26.2056 89.0327 24.4796V10.339H97.0438V26.2477H93.6769V26.9206H114.376V26.2477H111.009Z" fill="var(--fill-0, white)"/>
<path id="Vector_11" d="M126.473 14.5894C126.473 11.8958 125.758 9.41296 122.98 9.41296C120.034 9.41296 119.15 11.8958 119.15 14.5894V15.7678H126.178C126.389 15.7678 126.473 15.6413 126.473 15.4731V14.5894ZM119.15 20.397C119.107 23.3849 119.529 26.7518 123.485 26.7518C127.02 26.7518 129.629 24.3955 130.218 20.9435H130.892C130.218 24.8166 127.357 27.4255 123.485 27.4255C118.561 27.4255 115.109 23.6379 115.109 18.0828C115.109 14.0008 118.393 8.73926 122.98 8.73926C127.946 8.73926 130.513 14.2947 130.513 16.0625C130.513 16.315 130.387 16.4407 130.135 16.4407H119.15V20.397Z" fill="var(--fill-0, white)"/>
<path id="Vector_12" d="M132.077 9.31081V8.63514H132.528C132.759 8.63514 133.004 8.68518 133.004 8.95545C133.004 9.29111 132.754 9.31081 132.473 9.31081H132.077ZM132.077 9.59053H132.458L133.035 10.538H133.405L132.784 9.57517C133.104 9.53538 133.35 9.36597 133.35 8.97554C133.35 8.54532 133.095 8.35581 132.579 8.35581H131.747V10.538H132.077V9.59053ZM132.479 11.3378C133.509 11.3378 134.389 10.538 134.389 9.44082C134.389 8.35581 133.509 7.55762 132.479 7.55762C131.438 7.55762 130.559 8.35581 130.559 9.44082C130.559 10.538 131.438 11.3378 132.479 11.3378ZM130.938 9.44082C130.938 8.54532 131.613 7.87043 132.479 7.87043C133.335 7.87043 134.01 8.54532 134.01 9.44082C134.01 10.3529 133.335 11.0254 132.479 11.0254C131.613 11.0254 130.938 10.3529 130.938 9.44082Z" fill="var(--fill-0, white)"/>
<path id="Vector_13" d="M0.895316 35.2341H0.160156V39.9134H0.895316V35.2341Z" fill="var(--fill-0, white)"/>
<path id="Vector_14" d="M3.87109 35.2341H4.62004L6.13764 37.3399L7.64145 35.2341H8.377V39.9134H7.64145V36.357L6.33817 38.122H5.91031L4.60665 36.357V39.9134H3.87109V35.2341Z" fill="var(--fill-0, white)"/>
<path id="Vector_15" d="M14.1241 38.1018L13.2684 36.1363L12.4127 38.1018H14.1241ZM12.9205 35.2073H13.6293L15.6748 39.9133H14.8861L14.3782 38.7503H12.1586L11.657 39.9133H10.875L12.9205 35.2073Z" fill="var(--fill-0, white)"/>
<path id="Vector_16" d="M18.0117 37.5739C18.0117 36.1563 19.0683 35.1474 20.4721 35.1474C21.067 35.1474 21.5283 35.2872 21.916 35.548V36.2769C21.468 35.9692 21 35.8356 20.519 35.8356C19.5092 35.8356 18.7673 36.544 18.7673 37.5802C18.7673 38.6364 19.5226 39.3117 20.4453 39.3117C20.8731 39.3117 21.2876 39.1915 21.5748 38.9173V37.2126H22.3104V39.2183C21.9495 39.6391 21.2742 40 20.4453 40C19.0813 40 18.0117 38.9977 18.0117 37.5739Z" fill="var(--fill-0, white)"/>
<path id="Vector_17" d="M25.8953 35.2341H25.1602V39.9134H25.8953V35.2341Z" fill="var(--fill-0, white)"/>
<path id="Vector_18" d="M28.8672 35.2341H29.509L32.1494 38.6235V35.2341H32.8716V39.9134H32.2499L29.589 36.511V39.9134H28.8672V35.2341Z" fill="var(--fill-0, white)"/>
<path id="Vector_19" d="M35.8086 35.2341H39.1377V35.909H36.5441V37.0791H38.6566V37.7544H36.5441V39.2381H39.2248V39.9134H35.8086V35.2341Z" fill="var(--fill-0, white)"/>
<path id="Vector_20" d="M44.9961 35.234H45.8183L46.9348 38.7502L48.0715 35.2273H48.6526L49.7892 38.7502L50.9057 35.234H51.7146L50.117 39.94H49.4685L48.3587 36.4573L47.2422 39.94H46.5874L44.9961 35.234Z" fill="var(--fill-0, white)"/>
<path id="Vector_21" d="M54.2695 35.2341H55.0047V37.0791H57.445V35.2341H58.1801V39.9134H57.445V37.7544H55.0047V39.9134H54.2695V35.2341Z" fill="var(--fill-0, white)"/>
<path id="Vector_22" d="M63.9292 38.1018L63.0735 36.1363L62.2178 38.1018H63.9292ZM62.7256 35.2073H63.4344L65.4795 39.9133H64.6908L64.1829 38.7503H61.9633L61.4621 39.9133H60.6797L62.7256 35.2073Z" fill="var(--fill-0, white)"/>
<path id="Vector_23" d="M71.4474 35.2341V35.909H69.8967V39.9134H69.1616V35.909H67.6172V35.2341H71.4474Z" fill="var(--fill-0, white)"/>
<path id="Vector_24" d="M74.0938 35.2341H74.9231L74.1076 37.1055H73.5391L74.0938 35.2341Z" fill="var(--fill-0, white)"/>
<path id="Vector_25" d="M77.082 39.4989V38.7035C77.4295 39.0108 78.1182 39.3118 78.8002 39.3118C79.3817 39.3118 79.8832 39.0715 79.8832 38.6164C79.8832 38.1153 79.362 37.9884 78.7001 37.7942C77.8708 37.5539 77.1423 37.3265 77.1423 36.4239C77.1423 35.662 77.7774 35.1475 78.8404 35.1475C79.442 35.1475 79.9632 35.3141 80.3379 35.5347V36.2703C79.9565 36.0359 79.4018 35.8357 78.8533 35.8357C78.1718 35.8357 77.898 36.1099 77.898 36.4306C77.898 36.8853 78.4728 36.972 79.1209 37.1725C79.8765 37.4065 80.6385 37.7142 80.6385 38.603C80.6385 39.4918 79.8229 40.0001 78.8404 40.0001C78.1316 40.0001 77.4965 39.7999 77.082 39.4989Z" fill="var(--fill-0, white)"/>
<path id="Vector_26" d="M88.8111 37.3064C89.3596 37.3064 89.6936 37.0527 89.6936 36.6044C89.6936 36.1497 89.3596 35.909 88.8111 35.909H87.5945V37.3064H88.8111ZM86.8594 35.2341H88.8714C89.8607 35.2341 90.4355 35.8022 90.4355 36.5914C90.4355 37.3935 89.8607 37.9817 88.8714 37.9817H87.5945V39.9134H86.8594V35.2341Z" fill="var(--fill-0, white)"/>
<path id="Vector_27" d="M96.9147 37.574C96.9147 36.5776 96.2063 35.8357 95.2769 35.8357C94.3542 35.8357 93.6463 36.5776 93.6463 37.574C93.6463 38.5699 94.3542 39.3118 95.2769 39.3118C96.2063 39.3118 96.9147 38.5699 96.9147 37.574ZM92.8906 37.574C92.8906 36.21 93.9 35.1475 95.2769 35.1475C96.6539 35.1475 97.6699 36.21 97.6699 37.574C97.6699 38.9375 96.6539 40.0001 95.2769 40.0001C93.9 40.0001 92.8906 38.9375 92.8906 37.574Z" fill="var(--fill-0, white)"/>
<path id="Vector_28" d="M100.156 39.4989V38.7035C100.504 39.0108 101.192 39.3118 101.874 39.3118C102.456 39.3118 102.957 39.0715 102.957 38.6164C102.957 38.1153 102.436 37.9884 101.774 37.7942C100.945 37.5539 100.216 37.3265 100.216 36.4239C100.216 35.662 100.851 35.1475 101.914 35.1475C102.516 35.1475 103.037 35.3141 103.411 35.5347V36.2703C103.031 36.0359 102.476 35.8357 101.927 35.8357C101.246 35.8357 100.972 36.1099 100.972 36.4306C100.972 36.8853 101.547 36.972 102.195 37.1725C102.951 37.4065 103.712 37.7142 103.712 38.603C103.712 39.4918 102.897 40.0001 101.914 40.0001C101.205 40.0001 100.571 39.7999 100.156 39.4989Z" fill="var(--fill-0, white)"/>
<path id="Vector_29" d="M106.141 39.4989V38.7035C106.488 39.0108 107.177 39.3118 107.859 39.3118C108.44 39.3118 108.942 39.0715 108.942 38.6164C108.942 38.1153 108.42 37.9884 107.759 37.7942C106.929 37.5539 106.201 37.3265 106.201 36.4239C106.201 35.662 106.836 35.1475 107.899 35.1475C108.501 35.1475 109.022 35.3141 109.396 35.5347V36.2703C109.015 36.0359 108.46 35.8357 107.912 35.8357C107.23 35.8357 106.957 36.1099 106.957 36.4306C106.957 36.8853 107.531 36.972 108.179 37.1725C108.935 37.4065 109.697 37.7142 109.697 38.603C109.697 39.4918 108.882 40.0001 107.899 40.0001C107.19 40.0001 106.555 39.7999 106.141 39.4989Z" fill="var(--fill-0, white)"/>
<path id="Vector_30" d="M113.173 35.2341H112.438V39.9134H113.173V35.2341Z" fill="var(--fill-0, white)"/>
<path id="Vector_31" d="M118.314 39.2381C118.889 39.2381 119.23 38.9572 119.23 38.4896C119.23 38.0215 118.889 37.7678 118.314 37.7678H116.884V39.2381H118.314ZM118.147 37.1189C118.635 37.1189 118.922 36.905 118.922 36.511C118.922 36.1166 118.635 35.909 118.147 35.909H116.884V37.1189H118.147ZM116.148 35.2341H118.274C119.096 35.2341 119.651 35.6486 119.651 36.3838C119.651 36.8916 119.357 37.2194 119.029 37.3466C119.571 37.4467 120.025 37.8813 120.025 38.5963C120.025 39.3788 119.431 39.9134 118.448 39.9134H116.148V35.2341Z" fill="var(--fill-0, white)"/>
<path id="Vector_32" d="M122.742 35.2341H123.484V39.2381H125.971V39.9134H122.742V35.2341Z" fill="var(--fill-0, white)"/>
<path id="Vector_33" d="M128.523 35.2341H131.852V35.909H129.259V37.0791H131.371V37.7544H129.259V39.2381H131.939V39.9134H128.523V35.2341Z" fill="var(--fill-0, white)"/>
<path id="Vector_34" d="M134.753 36.9521V35.2202H135.178L135.616 36.6035L136.039 35.2202H136.455V36.9521H136.192V35.4988L135.746 36.9521H135.484L135.019 35.4775V36.9521H134.753ZM133.706 36.9521V35.4775H133.145V35.2202H134.56V35.4775H133.995V36.9521H133.706Z" fill="var(--fill-0, white)"/>
</g>
</svg>
