<svg preserveAspectRatio="none" width="100%" height="100%" overflow="visible" style="display: block;" viewBox="0 0 108.809 45" fill="none" xmlns="http://www.w3.org/2000/svg">
<g id="Frame 132724">
<path id="Vector" d="M0 0H108.809V45H0V0Z" fill="var(--fill-0, #B53D97)"/>
<path id="Vector_2" d="M68.4662 20.2359C70.6509 19.9968 72.6177 21.5697 72.8648 23.7538C73.1118 25.9378 71.5456 27.9102 69.3625 28.1648C67.1683 28.4207 65.1839 26.8452 64.9358 24.6501C64.6877 22.4551 66.2704 20.4763 68.4662 20.2359Z" fill="var(--fill-0, #FDF4FE)"/>
<path id="Vector_3" d="M68.2653 20.7874C69.753 20.664 70.6227 21.3039 71.044 22.7732C71.3649 23.8936 71.2618 25.6572 70.7305 26.7119C70.4766 27.2156 70.033 27.4459 69.507 27.5896C68.488 27.7388 67.3351 27.4463 66.9477 26.3775C66.3368 24.6912 66.2714 21.5907 68.2653 20.7874Z" fill="var(--fill-0, #B53D97)"/>
<path id="Vector_4" d="M31.8604 21.0693C33.2675 20.1732 34.311 20.1822 35.9734 20.4058C36.4407 20.4687 37.1341 20.8641 37.3418 21.2745C38.1059 22.7847 37.2046 26.343 38.0077 27.7923L36.8295 28.157C36.566 27.9401 36.2899 27.7571 36.2333 27.4094L36.1731 27.313C36.0317 27.2839 34.6625 27.9524 34.3323 28.0583C33.1348 28.4424 31.5282 28.027 31.1248 26.6697C30.9827 26.2062 31.0365 25.7047 31.2737 25.2819C32.1239 23.7868 34.5359 23.5874 36.1307 23.1443C36.2915 22.8502 36.213 22.0534 36.1647 21.7212C35.9048 21.3475 35.6733 21.1211 35.1975 21.0512C33.3164 20.775 32.5707 21.7098 31.9123 23.2913C31.8741 22.5513 31.8569 21.8103 31.8604 21.0693Z" fill="var(--fill-0, #FDF4FE)"/>
<path id="Vector_5" d="M31.8598 21.0693C33.267 20.1732 34.3104 20.1822 35.9728 20.4058C36.4402 20.4687 37.1335 20.8641 37.3412 21.2745C38.1053 22.7847 37.204 26.343 38.0071 27.7923L36.8289 28.157C36.5654 27.9401 36.2893 27.7571 36.2327 27.4094L36.2362 27.3836C36.2759 27.104 36.2197 26.9269 36.1602 26.6522C36.229 25.7423 36.1899 24.6052 36.1788 23.6797C36.2208 23.4362 36.2031 23.3819 36.1301 23.1443C36.2909 22.8502 36.2124 22.0534 36.1641 21.7212C35.9042 21.3475 35.6728 21.1211 35.1969 21.0512C33.3158 20.775 32.5701 21.7098 31.9117 23.2913C31.8735 22.5513 31.8563 21.8103 31.8598 21.0693Z" fill="var(--fill-0, #FCF3FF)"/>
<path id="Vector_6" d="M36.1579 26.6522C35.696 26.9401 35.3664 27.1298 34.8216 27.258C34.0494 27.4748 32.7833 27.2293 32.6465 26.2876C32.4404 24.8683 34.0932 24.3584 35.134 24.0154C35.4968 23.8958 35.8207 23.7377 36.1765 23.6797C36.1876 24.6051 36.2267 25.7423 36.1579 26.6522Z" fill="var(--fill-0, #B53D97)"/>
<path id="Vector_7" d="M52.9423 16.8046C53.7887 16.6822 55.4197 16.941 56.1588 17.4207C56.2183 18.1098 56.2645 18.8001 56.2969 19.491C55.5999 18.2985 55.0643 17.6487 53.5671 17.5066C52.5235 17.4076 51.2307 17.9411 51.2167 19.1431C51.1972 20.822 53.8806 21.3812 55.0537 22.074C55.5839 22.3869 56.0695 22.6251 56.4829 23.1009C57.5369 24.203 57.3042 26.1878 56.1715 27.1648C55.1706 28.0285 53.7116 28.1587 52.4432 28.0862C51.3803 27.9979 50.5186 27.6067 49.5677 27.1778C49.5614 26.4349 49.5478 25.5801 49.6226 24.8496C50.5554 26.5528 51.5885 27.5528 53.6628 27.3134C54.8167 27.1803 55.7677 26.355 55.5605 25.1102C55.3342 23.8742 53.8418 23.4213 52.782 23.0243C50.6666 22.2318 48.6175 20.5508 50.1933 18.1792C50.7512 17.3396 51.9623 16.9525 52.9423 16.8046Z" fill="var(--fill-0, #FDF4FE)"/>
<path id="Vector_8" d="M88.5658 28.0703C87.2854 28.2658 86.2313 28.3097 85.1565 27.5387C82.2174 25.4306 83.322 21.0389 86.8221 20.3662C87.8326 20.172 88.9186 20.4397 89.7485 20.9932C90.6703 21.6073 90.9561 22.6094 91.1421 23.6317C89.1354 23.6571 87.1287 23.6573 85.122 23.6323C84.8617 25.6696 86.0438 27.1232 88.1015 27.2216C88.2194 27.3139 88.4218 27.2855 88.5802 27.2816C88.5839 27.5002 88.6035 27.8668 88.5658 28.0703Z" fill="var(--fill-0, #FDF4FE)"/>
<path id="Vector_9" d="M87.0782 20.8963C88.6562 20.7392 89.0881 21.6622 89.579 22.9387C88.9643 23.0007 88.3979 22.9977 87.7811 23.0022C86.9194 23.0104 86.0571 23.003 85.1953 22.9803C85.4137 21.757 85.8982 21.2533 87.0782 20.8963Z" fill="var(--fill-0, #B53D97)"/>
<path id="Vector_10" d="M78.8091 20.1497C79.5226 20.1028 80.2074 20.1788 80.7839 20.645C81.1207 20.9178 81.3625 21.2906 81.473 21.7096C81.6621 22.3959 81.6095 23.7954 81.6143 24.5623C81.6217 25.7528 81.6058 26.7936 81.736 27.9887C81.3088 27.9604 80.6128 27.9804 80.1915 28.0339C80.2542 27.0292 80.3493 22.5138 79.9923 21.8165C79.8116 21.4636 79.4886 21.2379 79.1151 21.1248C78.2188 20.8533 77.3549 21.0915 76.5564 21.5151C76.3805 21.6244 76.2148 21.7736 76.0554 21.9077C76.109 23.2001 75.9805 27.0066 76.2589 27.9495C75.6845 27.9413 75.1102 27.952 74.5364 27.9815C74.6262 27.3786 74.6278 25.9827 74.6055 25.3493C74.5556 23.9406 74.8355 21.7326 74.2734 20.4765C74.8844 20.3433 75.574 20.2515 76.1951 20.185C76.1361 20.59 76.0835 20.7789 75.9629 21.1724C77.1185 20.7518 77.3767 20.3569 78.8091 20.1497Z" fill="var(--fill-0, #FDF7FF)"/>
<path id="Vector_11" d="M44.2564 20.1475C45.4489 20.0815 46.9815 20.5231 47.1693 21.8064C47.4568 23.7702 47.1761 25.9828 47.3984 27.9856C46.982 27.9497 46.2577 27.973 45.8148 27.9763C45.8857 27.0913 45.9644 22.4598 45.6767 21.8802C45.4898 21.5036 45.1671 21.2516 44.7743 21.1151C44.0174 20.8521 43.2176 20.9866 42.5146 21.329C42.1967 21.4998 42.0419 21.6194 41.7533 21.84C41.6825 23.6873 41.6901 26.1442 41.8323 27.9691C41.3276 27.9456 40.7284 27.9667 40.2152 27.9729C40.3144 26.9593 40.2925 25.7059 40.2987 24.6713C40.3059 23.4661 40.3341 22.1588 40.2665 20.9668L39.8008 20.5681C40.4892 20.38 41.0693 20.2932 41.7725 20.1824L41.7407 21.1663C42.644 20.6881 43.2404 20.3168 44.2564 20.1475Z" fill="var(--fill-0, #FDF4FE)"/>
<path id="Vector_12" d="M17.9074 16.8998L20.4535 16.8813C19.9145 18.0855 20.0843 20.1583 20.1096 21.5224C22.3806 21.5742 25.058 21.3271 27.2961 21.5106C27.1631 21.7424 27.1628 22.0067 27.2859 22.2426C25.013 22.2743 22.3803 22.3313 20.1283 22.2023C20.1187 23.6995 19.9825 26.6963 20.4314 27.9598C19.5711 27.9265 18.6134 27.9467 17.7344 27.925C18.1558 27.6472 18.3671 27.5652 18.3744 27.0188C18.4162 23.9059 18.5003 20.7605 18.3554 17.6527C18.3448 17.426 18.0551 17.0736 17.9074 16.8998Z" fill="var(--fill-0, #FDF5FF)"/>
<path id="Vector_13" d="M27.033 16.8394C27.7942 16.9061 28.6147 16.8863 29.3795 16.8592C29.1304 17.2191 29.0577 17.5799 29.0292 18.0211C28.9189 19.7266 28.9765 21.473 28.9734 23.1913C28.9709 24.4973 28.9231 25.9228 29.0486 27.2108C29.0766 27.4985 29.2994 27.7483 29.4995 27.9475L26.918 27.9453C27.3262 27.5418 27.3126 27.0495 27.3156 26.4813L27.3189 23.6734C27.3185 23.3681 27.3301 22.5005 27.2869 22.2426C27.1639 22.0067 27.1641 21.7424 27.2971 21.5106C27.2677 20.2395 27.4668 17.9171 27.033 16.8394Z" fill="var(--fill-0, #FDF4FE)"/>
<path id="Vector_14" d="M59.0312 20.9096C59.5992 20.3478 60.5831 19.5083 61.013 18.8848C61.0528 19.3701 61.0794 19.8566 61.0921 20.3434C61.1054 20.515 61.1437 20.8172 61.1033 20.9725C61.0746 21.9745 61.116 23.0632 61.0911 24.0488C61.0199 26.8465 61.0528 27.7566 64.1178 27.2293C63.0568 28.274 62.0469 28.5391 60.6798 27.8041C60.0795 27.4932 60.0365 27.1844 59.8686 26.6375C59.5753 25.6838 60.0003 21.6081 59.6853 20.9874C59.52 20.8881 59.2347 20.9115 59.0312 20.9096Z" fill="var(--fill-0, #FEF9FF)"/>
<path id="Vector_15" d="M88.1016 27.2215C88.9081 27.2088 88.9245 27.1872 89.6354 26.9257C90.29 26.6849 90.6284 25.9526 91.0019 25.9875C91.0401 26.1303 90.9328 26.2888 90.8622 26.4173C90.3861 27.2871 89.5584 27.8036 88.6095 28.0591C88.5951 28.0631 88.5808 28.0668 88.5659 28.0702C88.6036 27.8667 88.584 27.5001 88.5803 27.2815C88.4219 27.2854 88.2195 27.3138 88.1016 27.2215Z" fill="var(--fill-0, #F4E9FE)"/>
<path id="Vector_16" d="M61.0938 20.3431C61.5241 20.3449 63.2285 20.3105 63.5287 20.4423C63.5845 20.5722 63.5951 20.8412 63.4984 20.9519C63.2046 21.0058 61.4487 20.9995 61.1049 20.9722C61.1453 20.8169 61.107 20.5147 61.0938 20.3431Z" fill="var(--fill-0, #FBDDF8)"/>
</g>
</svg>
