<svg preserveAspectRatio="none" width="100%" height="100%" overflow="visible" style="display: block;" viewBox="0 0 245 112" fill="none" xmlns="http://www.w3.org/2000/svg">
<g id="State layer">
<path id="Union" d="M128.34 71.5568C128.597 71.6227 128.849 71.7536 128.997 71.9786C129.445 72.7301 129.919 73.8984 130.221 74.7169C130.34 75.0406 130.612 75.6439 130.931 76.3497C131.661 77.9636 132.635 80.1174 132.579 80.7111C132.337 80.8906 131.941 80.7907 131.63 80.712C131.578 80.6989 131.529 80.6864 131.482 80.6759C131.039 80.2917 130.648 79.4094 130.271 78.5616C130.068 78.1021 129.869 77.6519 129.668 77.297C129.343 77.2407 129.036 77.2248 128.713 77.2081L128.569 77.2013L128.104 77.1993H128.053C127.78 77.1986 127.098 77.1978 126.932 77.3165C126.632 77.5323 126.364 78.1959 126.079 78.9015C125.672 79.9111 125.23 81.0065 124.609 80.9991C124.319 80.6932 124.474 80.2232 124.624 79.8615C125.247 78.3578 125.9 76.815 126.612 75.3517C126.81 74.9466 127.007 74.4515 127.211 73.9406C127.558 73.0703 127.923 72.1535 128.34 71.5568ZM87.7119 71.6212C88.3921 71.5346 89.5532 71.6125 90.2549 71.6847C90.2965 72.1764 90.2869 72.6597 90.2842 73.1525C90.0116 73.0612 89.652 72.9079 89.377 72.7999C88.8227 71.9321 88.2955 72.0723 87.4102 72.3488C84.8159 75.2946 90.7427 75.1963 90.8516 77.5294C90.9551 79.7552 89.7396 80.7423 87.6943 80.9532C86.549 81.0092 86.0114 80.749 85.1836 80.0128C85.4445 79.6561 85.62 79.3022 85.8252 78.9132C86.4644 79.6862 87.121 80.2623 88.166 80.212C88.996 80.172 89.6448 79.0788 89.5352 78.3497C89.3219 76.9348 87.382 76.66 86.4561 75.8781C85.2932 74.959 85.1514 73.5465 86.0107 72.3634C86.404 71.8221 87.0622 71.6796 87.7119 71.6212ZM140.851 71.6339C142.479 71.5677 143.083 71.4474 142.818 73.2687C141.423 72.3823 139.988 71.573 138.365 72.546C137.641 72.9715 137.122 73.6754 136.929 74.4933C135.964 78.4144 138.369 81.9656 142.394 79.4962C142.554 79.4235 142.593 79.4303 142.765 79.4386C142.947 79.5693 142.895 79.4972 142.959 79.713C142.8 80.6643 140.995 80.9336 140.227 80.9396C138.786 80.999 137.459 80.6386 136.396 79.6329C134.706 78.0331 134.626 74.4823 136.273 72.8146C137.625 71.4464 139.078 71.6512 140.851 71.6339ZM96.0742 71.6036C96.1049 74.235 94.8311 79.7176 98.4629 80.2267C99.207 80.3309 99.8019 80.0031 100.36 79.5656L100.364 79.5636C101.805 77.9621 101.379 75.3193 101.489 73.3077C101.515 72.8359 101.384 72.0881 101.562 71.6544C101.733 71.5789 102.085 71.6153 102.289 71.6222C102.504 71.6229 102.728 71.5953 102.889 71.7306C102.948 72.025 102.902 74.8223 102.788 75.0001C102.788 74.9992 102.787 74.9981 102.786 74.9972V75.0001C102.248 73.7568 102.673 73.3055 102.517 72.6241C102.36 72.8646 102.387 76.0616 102.361 76.6007C102.375 77.6362 102.389 79.2777 101.391 79.9269C101.39 79.7221 101.471 79.6544 101.603 79.4952L101.594 79.4406C101.37 79.4125 101.091 79.2233 100.937 79.2443C101.092 79.2256 101.368 79.4127 101.591 79.4406L101.6 79.4952C101.468 79.6542 101.388 79.7222 101.389 79.9269C100.833 80.6731 99.3262 80.9358 98.4639 80.9396C94.3694 80.9576 94.6176 78.2355 94.6387 75.1886C94.6488 73.9862 94.6483 72.7836 94.6367 71.5812L96.0742 71.6036ZM157.57 71.6251C159.332 71.5505 159.839 71.1792 159.969 73.1476C159.662 73.0637 159.349 72.9371 159.051 72.8243C158.775 72.3706 158.704 72.202 158.123 72.1779C157.841 72.1362 156.957 72.2219 156.81 72.4708C154.95 75.6329 160.526 75.1646 160.509 77.8654C160.476 78.6624 160.045 79.5778 159.465 80.1163C158.676 80.8484 157.845 80.9464 156.834 80.9366C155.928 80.8608 155.507 80.7448 154.816 80.17C154.923 79.7389 155.166 79.1909 155.339 78.7687C155.787 79.4589 156.642 80.2429 157.526 80.2257C158.594 80.2048 159.293 79.3305 159.168 78.297C158.911 76.7913 156.897 76.6713 155.837 75.7365C154.889 74.9005 154.705 73.4495 155.522 72.4572C156.074 71.7891 156.729 71.6884 157.57 71.6251ZM146.812 71.5988C148.273 71.6784 150.036 71.654 151.519 71.67C151.521 71.9018 151.485 72.2775 151.47 72.5197C150.388 72.4291 149.235 72.4412 148.128 72.3663C148.13 73.3445 148.142 74.3333 148.098 75.3097C149.152 75.2972 150.218 75.2933 151.271 75.2687C151.267 75.6937 151.269 76.143 151.255 76.5656C150.209 76.5245 149.161 76.4973 148.114 76.4835C148.133 77.5675 148.125 78.6519 148.092 79.7355C148.319 79.6702 149.125 79.6438 149.923 79.6603C150.184 79.6656 150.445 79.678 150.685 79.6925C150.865 79.7035 151.033 79.7163 151.18 79.7325C151.446 79.7619 151.644 79.7987 151.722 79.8458C151.708 80.0729 151.717 80.6984 151.616 80.84H151.525V80.839C149.97 80.7838 148.413 80.7715 146.857 80.7999C146.809 77.7332 146.794 74.6659 146.812 71.5988ZM117.202 71.048C117.981 71.0418 122.015 70.9642 122.53 71.1603L122.514 71.2804L122.263 71.4669C122.54 71.9245 122.524 71.5698 122.604 72.3077C122.503 72.5399 122.569 72.4713 122.351 72.5988L122.096 72.5626L121.914 72.5382V72.5372C120.994 72.4559 119.735 72.4521 118.789 72.42C118.6 72.6769 118.655 74.7455 118.654 75.2296C119.204 75.2311 119.759 75.2301 120.313 75.2306C120.86 75.2311 121.407 75.233 121.948 75.2413H121.947L121.95 75.2423C121.942 75.6529 121.946 76.1428 121.921 76.546L121.919 76.545V76.546C120.846 76.5297 119.757 76.5029 118.686 76.5011C118.682 77.1674 118.703 79.53 118.603 80.0841C118.602 80.0816 118.602 80.079 118.602 80.0763C118.601 80.0789 118.602 80.0816 118.602 80.0841L118.591 80.8185C118.107 80.7867 117.696 80.7628 117.212 80.7667C117.136 80.3896 117.172 77.8958 117.181 77.3175C117.213 75.2369 117.164 73.1213 117.202 71.048ZM109.688 71.6329C111.371 71.5699 113.403 71.9086 112.801 74.38C112.577 75.299 111.311 76.1961 110.489 76.6007L110.514 76.6281C111.489 77.714 113.088 79.4938 113.671 80.7501C112.032 80.8372 111.784 80.4689 111.033 79.3517C110.955 79.2346 110.87 79.1086 110.778 78.9747C110.108 78.0655 109.363 77.1461 108.551 76.3615C108.548 76.6742 108.546 76.9961 108.544 77.3224C108.538 78.4787 108.532 79.6947 108.466 80.7892L106.992 80.6876L107.041 71.6476C107.923 71.6546 108.806 71.6502 109.688 71.6329ZM167.307 31.0509C174.971 31.0458 183.019 30.92 190.653 31.0841L190.663 59.7892C190.664 65.585 190.764 71.705 190.631 77.4767C181.572 77.4326 172.203 77.64 163.176 77.4503L163.17 75.2794C166.269 75.1544 169.763 75.2275 172.896 75.2296L188.59 75.2404C188.488 73.9297 188.55 71.7116 188.55 70.3507L188.552 61.3331L188.55 33.0616L187.716 33.048C186.164 33.0921 184.466 33.0558 182.901 33.0538C182.892 33.0538 182.882 33.0538 182.872 33.0538L174.161 33.0509L147.692 33.0519L57.3809 33.0607L57.3936 61.5577L57.3916 70.4083C57.3911 70.998 57.2924 74.9849 57.4912 75.2257L57.6543 75.2667C58.5781 75.2213 59.5343 75.225 60.46 75.2316C67.7962 75.2838 75.154 75.1553 82.4883 75.2511C82.476 75.9852 82.4506 76.7493 82.4883 77.4806L55.0752 77.4786L55.0723 76.2296C55.0019 75.8101 55.0173 74.8193 55.0146 74.3595L55.002 71.0333L55 58.9562L55.002 41.2306L55.0176 35.4952C55.0219 34.5743 54.988 33.2094 55.0703 32.3312L55.0654 31.0753C63.3845 30.9475 71.9459 31.0481 80.2812 31.048H127.522L167.307 31.0509ZM128.211 73.8771C128.129 74.2592 127.942 74.6475 127.738 75.0685C127.529 75.5019 127.302 75.9707 127.156 76.504C127.269 76.5097 127.391 76.5169 127.518 76.5245L127.542 76.5265C127.848 76.5451 128.174 76.565 128.44 76.5656C128.788 76.5726 129.209 76.5699 129.55 76.5909C129.527 76.5318 129.5 76.4603 129.469 76.38C129.19 75.654 128.619 74.1708 128.211 73.8771ZM108.627 72.1417C108.527 73.5161 108.522 74.5204 108.546 75.8976L108.607 75.8878C109.425 75.7594 110.124 75.6494 110.855 75.1993C111.546 74.6869 111.931 73.8885 111.311 73.1486C110.611 72.3146 109.655 72.1456 108.627 72.1417ZM113.111 43.7198C114.86 43.6401 116.232 43.8627 117.743 44.7843C123.473 48.2778 124.263 57.0874 119.778 61.881C118.316 63.4435 116.892 64.1887 114.797 64.6886C112.318 65.2381 109.538 64.3575 107.591 62.7823C101.963 58.2293 102.733 47.2976 109.643 44.2706C110.358 43.9574 110.822 43.8588 111.595 43.7784C111.912 43.7379 112.375 43.7311 112.769 43.7257C112.892 43.7241 113.008 43.7224 113.111 43.7198ZM136.977 43.8448C138.325 43.8383 139.763 43.9198 140.813 44.2159L141.149 44.3224H141.15C141.164 44.3253 141.179 44.3292 141.192 44.3322C141.308 44.3572 141.425 44.3855 141.542 44.4171C142.234 44.6041 142.937 44.9067 143.608 45.2931C143.706 45.3494 143.805 45.406 143.901 45.4659C145.327 46.3523 146.574 47.6224 147.188 49.0157C149.767 54.8648 147.547 62.9152 140.531 64.1066C139.929 64.2087 137.385 64.3079 135.339 64.3165C135.337 64.3165 135.334 64.3165 135.332 64.3165C134.727 64.319 134.166 64.3139 133.712 64.298C133.542 64.292 133.386 64.2845 133.249 64.2755C133.04 64.2618 132.875 64.2424 132.764 64.2208L132.722 64.215C132.705 62.5291 132.692 60.8423 132.684 59.1564C132.659 54.0973 132.674 49.0375 132.729 43.9786C133.342 43.9742 133.922 43.9678 134.535 43.9366C135.215 43.8927 136.076 43.8492 136.975 43.8448H136.977ZM74.3799 43.9386C74.9239 43.9603 76.0032 43.9667 76.4932 44.0421C77.1512 44.8436 78.0057 46.8773 78.46 47.8634C79.5752 50.2842 80.6488 52.7196 81.873 55.0929C82.7972 56.8845 83.5549 59.4556 84.9062 60.8966C85.0334 59.4093 86.4251 56.2993 87.0557 54.8566C88.3242 51.9544 89.2642 48.9792 90.5547 46.0919C90.7944 45.5713 91.1444 44.557 91.4951 44.1417C91.9125 43.9219 93.1568 43.9859 93.6689 43.9884H93.6699C93.6921 44.1718 93.6964 44.3535 93.6934 44.5343C93.6887 44.8053 93.6677 45.0744 93.668 45.3448C93.6681 45.4352 93.6706 45.5256 93.6768 45.6163C93.686 45.7524 93.7039 45.8889 93.7344 46.0265C93.7446 46.0725 93.7553 46.1189 93.7686 46.1652C93.7987 46.2705 93.7789 46.4169 93.7676 46.5753C93.7619 46.6546 93.7582 46.7368 93.7646 46.8185C93.7711 46.9004 93.7875 46.9817 93.8213 47.0587C93.8542 47.0527 93.883 47.0399 93.9102 47.0255C93.9414 47.009 93.9697 46.9889 93.9941 46.963C94.1994 46.7453 94.1795 46.2303 94.1875 45.9611C94.192 45.9724 94.196 46.0008 94.2002 46.0441C94.2471 46.5231 94.28 48.8935 94.2969 51.7706C94.3245 56.4775 94.3098 62.5409 94.2432 63.8986C94.2358 64.0489 94.2274 64.1415 94.2188 64.1681C94.14 64.2197 94.0719 64.2429 94.002 64.2521C93.8901 64.2667 93.7734 64.2449 93.6016 64.2394L91.9346 64.2472C91.8149 64.2508 91.7136 64.2561 91.6133 64.2531C91.513 64.2502 91.4137 64.2389 91.2979 64.2062C90.8425 63.3654 91.5275 50.6803 91.084 48.962C91.0219 48.7216 91.0525 48.733 90.8291 48.6241C90.6724 49.2224 90.3891 49.8988 90.1514 50.4816C88.3831 54.8158 86.7218 59.2045 84.877 63.505C84.5485 64.2707 84.3992 64.2349 83.6191 64.3058C82.9034 63.4977 82.2014 61.7116 81.7266 60.7169L79.5645 56.2042C78.5258 54.0156 77.0974 51.2246 76.1787 49.0587C75.5624 49.5918 75.9113 55.0371 75.7148 56.1798C75.8268 57.8269 75.6601 59.3713 75.5391 61.007C75.4767 61.8492 75.5834 63.2109 75.4424 63.9865C75.2664 64.2839 74.9421 64.2409 74.6211 64.2423L74.499 63.9552L74.3896 63.9298L74.21 64.2159L74.1289 64.1173C73.9926 63.5546 74.0156 60.1543 74.0117 59.3927C73.9875 55.1485 73.9879 50.9044 74.0127 46.6603C74.0112 46.2337 73.8814 44.1628 73.9111 43.9689C74.1053 43.8646 74.1158 43.9103 74.3799 43.9386ZM163.172 43.9572C164.379 43.8821 164.572 44.5158 164.823 45.3448C164.892 45.5716 164.965 45.8132 165.064 46.0587C166.024 48.4237 166.896 50.8229 167.77 53.2218C168.616 55.5462 169.462 57.8709 170.387 60.1642C170.544 60.5548 170.7 61.0128 170.861 61.4884C171.187 62.4467 171.538 63.4779 171.978 64.1779C170.991 64.1938 170.005 64.1945 169.019 64.1798C168.698 63.2595 168.339 62.3111 167.976 61.3546C167.372 59.7638 166.758 58.1478 166.298 56.589C165.774 56.8002 165.438 56.9491 164.94 57.214C163.948 57.881 163.185 58.6776 162.415 59.4806C161.79 60.1322 161.161 60.7892 160.402 61.3839C159.867 61.8033 159.241 62.0269 158.626 62.2472C158.143 62.4202 157.667 62.5914 157.245 62.8527C157.054 62.9713 156.938 63.1997 156.816 63.4415C156.644 63.7849 156.458 64.1543 156.021 64.2726C155.963 64.257 155.872 64.2482 155.828 64.2062C155.694 64.0746 155.672 63.8985 155.668 63.7179C155.649 62.8486 157.043 59.3103 157.9 57.1349C158.141 56.5247 158.339 56.0217 158.452 55.715C158.623 55.2519 158.779 54.7832 158.936 54.3146C159.133 53.7222 159.332 53.1297 159.558 52.549C159.731 52.1018 159.917 51.6594 160.104 51.2169C160.317 50.7104 160.53 50.204 160.725 49.6906C160.927 49.1569 161.114 48.6178 161.301 48.0792C161.605 47.2053 161.909 46.3315 162.277 45.4796C162.515 44.9295 162.756 44.3964 163.172 43.9572ZM113.064 44.6896C111.506 44.805 109.908 45.4935 108.889 46.6945C107.013 48.905 106.41 52.5795 106.616 55.4093C106.792 57.8226 107.64 60.6199 109.516 62.2306C110.707 63.2538 111.861 63.4778 113.388 63.548C115.313 63.3945 116.451 63.1699 117.75 61.6075C119.836 59.0981 119.969 55.2879 119.742 52.1857C119.474 48.5182 117.117 44.636 113.064 44.6896ZM136.657 45.2755C135.909 45.27 135.3 45.2942 135.177 45.38L135.106 45.5792L135.127 46.5734C135.135 47.2434 135.131 47.9248 135.122 48.5958C135.117 48.9308 135.111 49.2645 135.104 49.5919C135.084 50.6145 135.08 51.6423 135.084 52.672C135.085 53.0732 135.09 53.4753 135.094 53.8771C135.101 54.7706 135.109 55.6656 135.118 56.5597C135.121 56.8317 135.123 57.1042 135.125 57.3761C135.127 57.6866 135.129 57.9975 135.13 58.3077C135.131 58.5629 135.132 58.8185 135.132 59.0734C135.132 59.7298 135.128 60.3856 135.117 61.0392C135.11 61.5101 135.099 61.9805 135.084 62.4493C135.084 62.4508 135.084 62.4528 135.084 62.4542C135.085 62.453 135.085 62.4515 135.086 62.4503C135.098 62.7555 135.048 62.8264 135.216 63.0372C135.232 63.0411 135.25 63.0428 135.267 63.046C135.359 63.0642 135.458 63.074 135.558 63.0773H135.973C136.214 63.0759 136.444 63.0753 136.664 63.0753C137.915 63.0753 138.88 63.0756 140.231 62.8126C146.352 60.6558 147.184 49.8277 141.966 46.2316C141.853 46.1542 141.737 46.0814 141.619 46.0109C141.467 45.9202 141.311 45.8338 141.15 45.755C141.118 45.7392 141.085 45.7244 141.054 45.7101C140.936 45.657 140.82 45.6159 140.705 45.5792C140.623 45.553 140.541 45.5291 140.457 45.5089C140.315 45.4748 140.17 45.4462 140.015 45.422C139.997 45.4192 139.979 45.4159 139.961 45.4132L139.958 45.4122L139.959 45.4132C139.543 45.3782 137.906 45.2848 136.657 45.2755ZM162.983 47.5118C162.387 48.5735 161.856 50.1165 161.357 51.5656C161.08 52.3719 160.811 53.1502 160.547 53.8019L160.403 54.1564C159.508 56.3621 158.48 58.8947 157.746 61.1183C158.713 60.989 159.168 60.8376 160.018 60.3273C161.092 59.6425 161.943 58.7647 162.769 57.9132C163.717 56.9349 164.634 55.989 165.822 55.4054C165.608 54.7056 162.999 47.5251 162.983 47.5118Z" fill="var(--fill-0, white)"/>
</g>
</svg>
