<svg preserveAspectRatio="none" width="100%" height="100%" overflow="visible" style="display: block;" viewBox="0 0 245 112" fill="none" xmlns="http://www.w3.org/2000/svg">
<g id="State layer">
<path id="Vector" d="M131.203 71.8535C127.543 69.65 125.239 66.0915 125.204 62.4391C125.199 62.4004 125.193 62.3605 125.189 62.3223V75C127.708 72.481 130.608 72.5608 133.385 72.9375C132.913 72.7478 132.45 72.5344 131.999 72.2982C131.727 72.1568 131.462 72.0085 131.204 71.8531M83.1881 65.0902V47.8582L82.1183 45.2304V65.0282C82.0135 71.0863 80.2914 72.9892 76.4023 73.9762H88.8039C84.928 72.9926 83.2961 71.1091 83.1881 65.0902ZM121.223 38.4609H110.308L101.303 62.5887L91.07 38.4609H79.8619C81.8398 38.8666 83.057 39.6273 84.2235 42.4673L97.1558 74.2656H98.0914L110.522 40.9667V69.752C110.522 72.7443 109.711 73.5558 107.732 73.9615H121.223C119.245 73.6065 118.433 72.7443 118.433 69.752V44.6989C118.433 40.0328 118.838 39.0186 121.223 38.4609M149.599 49.7811V37.1035C146.874 39.8294 143.957 39.5122 140.978 39.0687C146.24 40.2096 149.219 46.1681 149.599 49.7811ZM164.736 69.5492V44.6482C164.736 40.0838 165.142 39.0186 167.526 38.4609H154.035C156.064 38.9172 156.825 39.7789 156.825 42.9237V67.7743C156.825 72.3386 156.47 73.4541 154.035 73.9615H167.526C165.548 73.6065 164.736 72.6936 164.736 69.5492M143.835 54.5513L135.231 49.7799C132.413 48.2829 130.817 45.445 131.526 42.7659C132.23 40.1086 134.987 38.4378 138.144 38.5013C132.144 37.8416 126.678 40.8121 125.364 45.7761C124.135 50.4182 126.924 55.3403 131.821 57.9184L140.425 62.6897C143.243 64.1867 144.839 67.0246 144.129 69.7037C143.426 72.3612 140.669 74.0318 137.511 73.9681C143.512 74.6282 148.977 71.6573 150.292 66.6934C151.52 62.0515 148.731 57.1295 143.835 54.5513" fill="var(--fill-0, #8B6F4C)"/>
</g>
</svg>
