<svg preserveAspectRatio="none" width="100%" height="100%" overflow="visible" style="display: block;" viewBox="0 0 180 32.3077" fill="none" xmlns="http://www.w3.org/2000/svg">
<g id="image 323 [Vectorized]">
<path id="Vector" fill-rule="evenodd" clip-rule="evenodd" d="M2.59827 3.36913C2.4828 3.4933 2.36457 3.62043 2.24253 3.75037L2.22532 0.603175L0.0437869 0.580305L0.0234375 24.7187L2.22876 24.7163C2.21125 21.5336 2.2154 18.3509 2.24121 15.1682C3.47493 16.8409 4.97218 17.782 6.93432 18.437C7.24195 18.4915 7.40303 19.0104 7.51946 19.3853C7.54065 19.4536 7.56037 19.5171 7.57922 19.5722C8.81203 23.1727 11.8487 25.6727 15.7166 25.8399C19.2143 25.9911 20.7198 24.7622 23.2058 22.5051C23.0888 23.3955 23.0958 24.6771 23.1015 25.7171C23.1026 25.911 23.1036 26.0968 23.1038 26.2698L23.1156 31.8417L25.431 31.8765L25.4311 7.75772C24.8992 7.77455 24.3306 7.77138 23.7755 7.7683C23.5498 7.76704 23.3262 7.7658 23.1081 7.76591C23.0958 8.95341 23.1118 9.82236 23.2846 10.9981C21.3438 8.85778 20.7552 8.49733 18.1439 7.30427C16.737 2.02412 12.0483 -0.772644 6.73913 0.541145C4.77663 1.02674 3.84846 2.02481 2.59827 3.36913ZM7.27064 14.8201C8.02327 10.5262 11.554 7.71441 15.7081 7.2129C15.0753 5.83546 14.5543 4.90168 13.3894 3.91171C9.80749 0.867527 4.07505 2.50159 2.52911 6.92726C1.07721 11.0842 3.02289 14.7866 7.00874 16.4129C7.09776 16.1613 7.15161 15.7252 7.19949 15.3374C7.22348 15.143 7.24597 14.9608 7.27064 14.8201ZM15.9737 10.2662C15.3198 14.0149 13.2813 15.8492 9.64018 16.626C9.62553 16.6154 9.61105 16.6053 9.59693 16.5955C9.49491 16.5248 9.41192 16.4673 9.41913 16.3057C9.55337 13.1297 11.925 10.2901 15.0355 9.61185C15.7879 9.44781 15.91 9.66561 15.9737 10.2662ZM14.8344 16.7835C13.4373 17.9039 11.564 18.6828 9.75985 18.714C9.85309 19.1649 10.1231 19.7273 10.3471 20.1326C12.1645 23.4226 16.3706 24.8224 19.7041 22.9328C21.3253 22.0173 22.5144 20.4936 23.0082 18.6991C23.8373 15.6971 22.7461 12.3162 20.1093 10.5826C19.6467 10.2786 19.0327 9.91508 18.4977 9.77159L18.354 9.85689L18.258 10.5053C18.0138 12.9749 16.7787 15.2401 14.8344 16.7835Z" fill="var(--fill-0, #B5232E)"/>
<path id="Vector_2" fill-rule="evenodd" clip-rule="evenodd" d="M2.59827 3.36913C2.4828 3.4933 2.36457 3.62043 2.24253 3.75037L2.22532 0.603175L0.0437869 0.580305L0.0234375 24.7187L2.22876 24.7163C2.21125 21.5336 2.2154 18.3509 2.24121 15.1682C3.47493 16.8409 4.97218 17.782 6.93432 18.437C7.03798 18.4026 7.06415 18.3703 7.11977 18.3018C7.13058 18.2885 7.14251 18.2738 7.15634 18.2574C7.15502 17.6433 7.09541 17.142 7.02472 16.5475C7.01945 16.5032 7.01411 16.4583 7.00874 16.4129C3.02289 14.7866 1.07721 11.0842 2.52911 6.92726C4.07505 2.50159 9.80749 0.867527 13.3894 3.91171C14.5543 4.90168 15.0753 5.83546 15.7081 7.2129C15.948 7.93329 16.1214 9.54468 15.9737 10.2662C15.3198 14.0149 13.2813 15.8492 9.64018 16.626C9.35519 16.918 9.57144 18.3905 9.75985 18.714C11.564 18.6828 13.4373 17.9039 14.8344 16.7835C16.7787 15.2401 18.0138 12.9749 18.258 10.5053C18.2746 9.93681 18.2387 9.38437 18.2027 8.83124C18.1698 8.32705 18.137 7.82229 18.1439 7.30427C16.737 2.02412 12.0483 -0.772644 6.73913 0.541145C4.77663 1.02674 3.84846 2.02481 2.59827 3.36913Z" fill="var(--fill-0, white)"/>
<path id="Vector_3" fill-rule="evenodd" clip-rule="evenodd" d="M7.00645 16.4129V16.4129ZM15.7059 7.21289V7.21289Z" fill="var(--fill-0, white)"/>
<path id="Vector_4" fill-rule="evenodd" clip-rule="evenodd" d="M9.75782 18.714V18.714Z" fill="var(--fill-0, white)"/>
<path id="Vector_5" fill-rule="evenodd" clip-rule="evenodd" d="M9.59375 16.5952V16.5952Z" fill="var(--fill-0, white)"/>
<path id="Vector_6" fill-rule="evenodd" clip-rule="evenodd" d="M113.778 10.5483C112.302 8.867 110.952 8.67888 108.8 8.89867C105.265 9.66298 103.634 13.5261 104.387 16.8421C104.758 18.499 105.774 19.9395 107.212 20.8443C109.54 22.2991 111.917 21.8119 113.835 19.9624L113.831 23.7804L113.828 25.7382L116.838 25.7512L116.84 9.04459L113.824 9.07141C113.82 9.21568 113.816 9.36241 113.813 9.51006C113.805 9.85784 113.797 10.2107 113.778 10.5483ZM109.58 11.7109C111.383 11.515 112.858 11.8737 113.647 13.6984C114.061 14.654 114.074 15.7358 113.684 16.7017C113.234 17.7958 112.541 18.2837 111.51 18.7015C110.826 18.8616 110.323 18.8905 109.636 18.6834C108.827 18.4448 108.15 17.8891 107.758 17.1429C106.616 14.9927 107.49 12.835 109.58 11.7109Z" fill="var(--fill-0, #B5232E)"/>
<path id="Vector_7" fill-rule="evenodd" clip-rule="evenodd" d="M46.4002 14.4013C46.0565 10.6247 43.4711 8.56335 39.6669 8.89689C38.4355 9.18863 37.7774 9.6108 36.8393 10.464L36.8546 9.07772L33.8321 9.05859L33.8281 25.757C34.8371 25.7704 35.8462 25.7717 36.8551 25.761L36.8546 21.8301C36.8493 21.7023 36.8444 21.5717 36.8394 21.4394C36.8215 20.9588 36.8027 20.4571 36.7577 19.9999C41.4945 24.0232 46.9145 20.0516 46.4002 14.4013ZM39.2123 11.7121C42.4661 11.3753 44.1645 13.7965 42.9995 16.9405C42.6684 17.8344 41.7043 18.4398 40.8128 18.7501C39.1474 18.9681 37.7587 18.4204 37.039 16.8221C36.6107 15.8938 36.5774 14.8316 36.9467 13.8783C37.407 12.7029 38.1241 12.1833 39.2123 11.7121Z" fill="var(--fill-0, white)"/>
<path id="Vector_8" fill-rule="evenodd" clip-rule="evenodd" d="M93.1857 10.4477C91.5912 9.0603 90.4725 8.63053 88.3241 8.89343C84.5604 9.86094 82.9732 13.548 83.9275 17.1428C84.3527 18.7477 85.3973 20.1187 86.8322 20.955C88.9407 22.1704 91.2135 21.786 93.0004 20.2065L93.1412 20.2863C93.129 20.6331 93.1088 20.9796 93.0794 21.3255C94.1445 21.3086 95.2095 21.3239 96.2735 21.3714C96.1552 18.5848 96.1879 15.4022 96.219 12.3815C96.2307 11.2425 96.2422 10.1266 96.2452 9.06364L93.0399 9.08135L93.1857 10.4477ZM89.1978 11.7093C93.8174 11.1716 94.7933 17.131 90.8156 18.729C90.1555 18.8342 89.6321 18.8639 88.9943 18.6411C88.1509 18.3481 87.4635 17.7227 87.0923 16.9104C86.1049 14.7653 87.0417 12.6374 89.1978 11.7093Z" fill="var(--fill-0, white)"/>
<path id="Vector_9" fill-rule="evenodd" clip-rule="evenodd" d="M144.638 11.2756C142.924 9.33254 141.296 8.53757 138.668 8.89691C134.943 9.73367 132.786 12.9966 133.651 16.7481C134.05 18.4241 135.099 19.8734 136.566 20.777C137.895 21.615 139.507 21.8804 141.035 21.5127C141.879 21.3122 142.819 20.8758 143.485 20.3163C143.545 20.2663 143.605 20.2168 143.664 20.1676C144.026 19.8677 144.38 19.5751 144.694 19.2184C144.654 20.0093 144.652 20.5276 144.695 21.3178L146.132 21.3439L146.145 9.0657L144.633 9.08502C144.632 9.2422 144.63 9.40208 144.628 9.56342C144.622 10.1344 144.615 10.7236 144.638 11.2756ZM138.901 10.4704C141.539 9.91975 144.125 11.6124 144.674 14.2503C145.223 16.8882 143.528 19.4715 140.889 20.0187C138.252 20.5656 135.67 18.873 135.121 16.2375C134.573 13.602 136.264 11.0206 138.901 10.4704Z" fill="var(--fill-0, white)"/>
<path id="Vector_10" fill-rule="evenodd" clip-rule="evenodd" d="M61.006 14.1161C60.3403 10.156 57.215 8.45615 53.4859 8.89573C49.6285 9.76579 47.7461 13.2296 48.6287 17.0046C49.0002 18.5487 49.9702 19.882 51.3253 20.7112C54.4179 22.6182 58.0385 21.6524 60.3477 19.0196C60.2083 18.9483 60.0647 18.8738 59.9182 18.7978C59.2864 18.4702 58.6022 18.1154 57.9829 17.8708L57.7958 17.8045C54.9554 19.5631 52.7315 19.5285 51.254 16.1733C54.5292 16.1369 57.8046 16.1299 61.0801 16.1527C61.0803 16.0367 61.0815 15.9179 61.0827 15.7974C61.0884 15.2383 61.0944 14.6422 61.006 14.1161ZM54.6837 11.4147C56.4024 11.3487 57.1603 12.3005 58.0979 13.4782L58.1986 13.6046L55.2066 13.6391L51.4146 13.624C51.5277 13.4623 51.6445 13.3032 51.7647 13.1467C52.6701 11.9555 53.2298 11.6133 54.6837 11.4147Z" fill="var(--fill-0, white)"/>
<path id="Vector_11" d="M69.2514 8.89541C71.4588 8.58748 73.6598 9.34865 74.2255 11.7737C74.5301 13.0791 74.4079 14.8817 74.4015 16.2521C74.3932 17.9521 74.3952 19.6519 74.4075 21.3518C73.5125 21.3025 72.2486 21.3316 71.3269 21.3289C71.3301 18.7762 71.4355 15.1515 71.1153 12.717C70.2562 11.5354 69.3066 11.2469 67.998 12.013C66.4656 13.3322 66.6073 15.0889 66.6099 16.9302C66.612 18.4116 66.616 19.8947 66.6149 21.3761C65.6068 21.3262 64.6028 21.333 63.5938 21.3319L63.6073 9.06835L66.6357 9.05904L66.6127 10.3413C67.5402 9.66984 68.1433 9.18472 69.2514 8.89541Z" fill="var(--fill-0, white)"/>
<path id="Vector_12" d="M77.7131 4.57275C78.7373 4.61111 79.7622 4.62112 80.7869 4.60281L80.7806 9.07655L82.6264 9.08606L82.6047 11.759L80.7764 11.7682L80.7867 21.2818C80.602 21.3591 78.0623 21.3581 77.7001 21.3692L77.6917 11.7521L76.1289 11.7746L76.132 9.06663L77.6901 9.0811C77.6778 7.57828 77.6855 6.07537 77.7131 4.57275Z" fill="var(--fill-0, white)"/>
<path id="Vector_13" d="M98.959 4.37724L102.02 4.37966C102.08 9.99759 102.024 15.7198 102.025 21.3464C101.154 21.3988 99.854 21.3353 98.9529 21.3189L98.959 4.37724Z" fill="var(--fill-0, white)"/>
<path id="Vector_14" d="M119.924 9.07787L121.505 9.06006C121.544 11.3053 121.457 13.5626 121.504 15.8086C121.529 16.9834 121.738 18.1193 122.547 19.029C123.788 20.4252 126.452 20.4319 127.776 19.1539C128.995 17.9754 128.928 16.2211 128.948 14.6581C128.957 12.8001 128.907 10.9422 128.961 9.08091L130.512 9.07301L130.499 10.548C130.506 13.3916 131.048 18.02 129.015 20.2352C128.159 21.1678 126.454 21.7227 125.17 21.666C119.86 21.4316 119.911 17.2156 119.914 13.0949L119.924 9.07787Z" fill="var(--fill-0, white)"/>
<path id="Vector_15" d="M163.277 9.05273C166.201 9.11952 169.343 9.06447 172.29 9.0666C169.95 12.6788 167.632 16.305 165.336 19.9452C167.198 19.857 170.097 19.9648 172.045 19.9799L172.001 21.3654C169.326 21.2499 166.61 21.3249 163.93 21.3216C163.486 21.3211 163.042 21.3551 162.602 21.4173C164.725 17.8386 167.258 14.0332 169.515 10.5023C167.92 10.6574 164.946 10.5682 163.26 10.5676L163.277 9.05273Z" fill="var(--fill-0, white)"/>
<path id="Vector_16" d="M157.959 4.50977C158.415 4.54134 158.953 4.54964 159.414 4.56714L159.396 9.07033L161.911 9.0511L161.912 10.5392C161.091 10.5478 160.228 10.5238 159.403 10.5138C159.362 14.0494 159.404 17.6698 159.406 21.2123C159.181 21.42 158.311 21.3716 157.943 21.3771C157.913 17.7525 157.905 14.1276 157.918 10.5028C157.321 10.5525 156.468 10.5428 155.852 10.5537C155.841 10.0553 155.856 9.52357 155.861 9.02236C156.532 9.05201 157.245 9.05363 157.92 9.06628C157.913 7.56245 157.884 6.00712 157.959 4.50977Z" fill="var(--fill-0, white)"/>
<path id="Vector_17" d="M153.102 8.88578C153.924 8.7771 154.497 8.90895 155.306 9.0491C154.183 11.705 153.61 9.57935 152.028 11.0256C150.127 12.7638 150.805 18.6285 150.639 21.2246C150.376 21.4307 150.356 21.3561 149.933 21.3506C149.605 21.3477 149.468 21.3597 149.151 21.2639C148.976 20.8977 149.068 10.3332 149.097 9.07147L150.654 9.07592L150.646 10.887C151.401 9.98494 151.97 9.28751 153.102 8.88578Z" fill="var(--fill-0, white)"/>
<path id="&#194;&#174;" d="M177.152 8.25086C176.785 8.25086 176.455 8.16583 176.161 7.99577C175.866 7.81916 175.631 7.58041 175.454 7.27953C175.284 6.97864 175.199 6.64505 175.199 6.27875C175.199 5.90592 175.284 5.57232 175.454 5.27798C175.631 4.97709 175.866 4.74162 176.161 4.57155C176.455 4.39494 176.785 4.30664 177.152 4.30664C177.518 4.30664 177.848 4.39494 178.143 4.57155C178.444 4.74162 178.679 4.97709 178.849 5.27798C179.026 5.57232 179.114 5.90592 179.114 6.27875C179.114 6.64505 179.026 6.97864 178.849 7.27953C178.679 7.58041 178.444 7.81916 178.143 7.99577C177.848 8.16583 177.518 8.25086 177.152 8.25086ZM177.152 7.91727C177.466 7.91727 177.74 7.84859 177.976 7.71123C178.218 7.56733 178.408 7.3711 178.545 7.12254C178.682 6.87398 178.751 6.59272 178.751 6.27875C178.751 5.96478 178.682 5.68352 178.545 5.43496C178.408 5.18641 178.218 4.99345 177.976 4.85609C177.74 4.71218 177.466 4.64023 177.152 4.64023C176.851 4.64023 176.579 4.71218 176.337 4.85609C176.095 4.99345 175.906 5.18641 175.768 5.43496C175.631 5.68352 175.562 5.96478 175.562 6.27875C175.562 6.58618 175.631 6.86417 175.768 7.11273C175.906 7.36129 176.095 7.55752 176.337 7.70142C176.579 7.84532 176.851 7.91727 177.152 7.91727ZM176.504 7.19122V5.34666H177.23C177.426 5.34666 177.58 5.39572 177.691 5.49383C177.803 5.59195 177.858 5.72931 177.858 5.90592C177.858 6.01711 177.825 6.1185 177.76 6.21007C177.701 6.30165 177.619 6.3736 177.515 6.42592L177.966 7.19122H177.603L177.191 6.49461H176.838V7.19122H176.504ZM177.191 5.62138H176.838V6.23951H177.181C177.41 6.23951 177.525 6.13485 177.525 5.92554C177.525 5.82742 177.495 5.7522 177.436 5.69987C177.384 5.64755 177.302 5.62138 177.191 5.62138Z" fill="var(--fill-0, white)"/>
</g>
</svg>
