<svg preserveAspectRatio="none" width="100%" height="100%" overflow="visible" style="display: block;" viewBox="0 0 179.999 34.1488" fill="none" xmlns="http://www.w3.org/2000/svg">
<g id="Group">
<path id="Vector" fill-rule="evenodd" clip-rule="evenodd" d="M64.966 19.6817L65.6104 18.9324L65.7509 19.0929C66.3011 19.7195 67.0481 20.0869 67.8885 20.0869C68.6965 20.0869 69.6102 19.7728 69.6102 18.8228C69.6102 16.8942 65.2523 17.9577 65.2523 15.2605C65.2523 13.8575 66.5496 13.1367 67.8229 13.1367C68.8223 13.1367 69.7607 13.4554 70.4252 14.2248L70.5325 14.3483L69.8649 15.0853L69.7283 14.9209C69.2383 14.329 68.5468 14.0728 67.7905 14.0728C67.096 14.0728 66.2764 14.4324 66.2764 15.2281C66.2764 16.8634 70.6336 15.9296 70.6336 18.7796C70.6336 20.3577 69.2815 21.023 67.8669 21.023C66.7958 21.023 65.764 20.6356 65.0671 19.8021L64.966 19.6817ZM53.597 17.9183V13.2563H54.5987V17.9083C54.5987 19.2256 55.2454 20.0869 56.6144 20.0869C57.9835 20.0869 58.6302 19.2256 58.6302 17.9083V13.2563H59.6319V17.9183C59.6319 19.8399 58.5707 21.023 56.6144 21.023C54.6697 21.023 53.597 19.8291 53.597 17.9183ZM44.9483 14.1924H42.5729V13.2563H48.3246V14.1924H45.95V20.8925H44.9483V14.1924ZM35.2523 14.5999L33.8061 18.1691H36.6893L35.2523 14.5999ZM37.0451 19.106H33.4496L32.7303 20.8925H31.6113L34.7361 13.2563H35.7586L38.8841 20.8925H37.7643L37.0451 19.106ZM22.6053 14.1924V16.949H24.4582C25.2917 16.949 25.8852 16.4104 25.8852 15.5653C25.8852 14.7195 25.2902 14.1924 24.4582 14.1924H22.6053ZM23.9242 17.8859H22.6053V20.8925H21.6144V13.2563H24.5123C25.8913 13.2563 26.9092 14.1562 26.9092 15.5653C26.9092 16.7661 26.1599 17.632 25.0386 17.8103L27.1631 20.8925H25.9608L23.9242 17.8859ZM12.9657 14.1924H10.5904V13.2563H16.3428V14.1924H13.9674V20.8925H12.9657V14.1924ZM0 19.6817L0.644389 18.9324L0.784843 19.0929C1.33431 19.7195 2.08211 20.0869 2.92252 20.0869C3.72974 20.0869 4.64346 19.7728 4.64346 18.8228C4.64346 16.8942 0.286309 17.9577 0.286309 15.2605C0.286309 13.8575 1.58358 13.1367 2.85692 13.1367C3.85553 13.1367 4.79395 13.4554 5.45917 14.2248L5.56567 14.3483L4.89813 15.0853L4.76231 14.9209C4.27226 14.329 3.5808 14.0728 2.82451 14.0728C2.12996 14.0728 1.30962 14.4324 1.30962 15.2281C1.30962 16.8634 5.66754 15.9296 5.66754 18.7796C5.66754 20.3577 4.31548 21.023 2.90091 21.023C1.82976 21.023 0.797191 20.6356 0.100324 19.8021L0 19.6817Z" fill="var(--fill-0, white)"/>
<path id="Vector_2" fill-rule="evenodd" clip-rule="evenodd" d="M79.5616 11.3351C81.423 7.94181 86.3914 4.11637 90.8095 1.10897L91.1969 0C87.6308 2.16005 80.1157 7.52971 77.2881 11.9671C74.8765 15.7524 77.3962 17.8021 81.7217 17.8677C85.1427 17.9194 89.4968 17.3823 92.7187 17.5251C105.71 18.1015 88.3994 30.9253 85.2924 33.0406L84.905 34.1488C88.2358 32.1323 95.0108 27.3152 98.1949 23.073C108.294 9.61568 72.9348 23.4126 79.5616 11.3351Z" fill="var(--fill-0, white)"/>
<path id="Vector_3" fill-rule="evenodd" clip-rule="evenodd" d="M94.4272 19.754C92.2409 17.9266 81.5865 22.4743 77.8984 20.0125C81.1235 22.7522 90.7129 19.1181 92.8907 20.9386C94.5214 22.3015 93.5814 25.4077 92.0704 27.8386C93.9495 25.6322 96.3874 21.3916 94.4272 19.754Z" fill="var(--fill-0, white)"/>
<path id="Vector_4" fill-rule="evenodd" clip-rule="evenodd" d="M83.2138 13.2115C81.5831 11.8494 82.5231 8.74245 84.0334 6.31152C82.155 8.51788 79.7171 12.7577 81.6773 14.3961C83.8636 16.2235 94.518 11.6758 98.2061 14.1376C94.9803 11.398 85.3916 15.0312 83.2138 13.2115Z" fill="var(--fill-0, white)"/>
<path id="Vector_5" fill-rule="evenodd" clip-rule="evenodd" d="M146.495 17.6528H148.483C149.662 17.6528 150.614 17.1998 150.614 15.8933C150.614 14.6022 149.629 14.1885 148.483 14.1885H146.495V17.6528ZM137.072 18.1328L135.411 14.4023L133.772 18.1328H137.072ZM105.51 17.1265C105.51 18.8088 106.935 20.1092 108.591 20.1092C110.248 20.1092 111.649 18.8057 111.649 17.1265C111.649 15.4457 110.246 14.1553 108.591 14.1553C106.938 14.1553 105.51 15.4433 105.51 17.1265ZM170.251 20.076H175.325L175.312 20.989H168.976V20.2334L173.993 14.1885H169.117V13.2648H175.27V14.0195L170.251 20.076ZM160.91 14.1885V20.989H159.954V14.1885H157.464V13.2648H163.409V14.1885H160.91ZM148.975 18.5565C148.811 18.5673 148.648 18.5765 148.483 18.5765H146.495V20.989H145.538V13.2648H148.483C150.171 13.2648 151.538 14.0241 151.538 15.8717C151.538 17.0694 150.991 17.9769 149.848 18.3713L151.651 20.989H150.557L148.975 18.5565ZM137.48 19.0566H133.365L132.513 20.989H131.494L134.959 13.2648H135.918L139.372 20.989H138.331L137.48 19.0566ZM125.721 13.2648V17.8033C125.721 19.8206 124.494 21.0322 122.481 21.0322C120.466 21.0322 119.22 19.8298 119.22 17.8033V13.2648H120.176V17.8033C120.176 19.2487 121.035 20.1092 122.481 20.1092C123.929 20.1092 124.764 19.2449 124.764 17.8033V13.2648H125.721ZM108.656 21.0322H108.591C106.395 21.0322 104.543 19.3629 104.543 17.1265C104.543 14.8823 106.394 13.2432 108.591 13.2432C110.778 13.2432 112.627 14.8954 112.627 17.1265C112.627 18.9107 111.415 20.4264 109.707 20.8825C110.092 21.2814 110.601 21.6696 111.177 21.6696C111.651 21.6696 112.134 21.3825 112.497 21.0962L112.664 20.9643L113.087 21.6889L112.971 21.7892C112.448 22.2438 111.782 22.5602 111.079 22.5602C110.042 22.5602 109.23 21.8263 108.656 21.0322Z" fill="var(--fill-0, white)"/>
<path id="&#194;&#174;" d="M178.709 15.5672C178.469 15.5672 178.251 15.5113 178.058 15.3995C177.864 15.2834 177.71 15.1264 177.593 14.9286C177.482 14.7308 177.426 14.5115 177.426 14.2707C177.426 14.0255 177.482 13.8062 177.593 13.6127C177.71 13.4149 177.864 13.2601 178.058 13.1483C178.251 13.0322 178.469 12.9741 178.709 12.9741C178.95 12.9741 179.167 13.0322 179.361 13.1483C179.559 13.2601 179.714 13.4149 179.825 13.6127C179.941 13.8062 180 14.0255 180 14.2707C180 14.5115 179.941 14.7308 179.825 14.9286C179.714 15.1264 179.559 15.2834 179.361 15.3995C179.167 15.5113 178.95 15.5672 178.709 15.5672ZM178.709 15.3479C178.916 15.3479 179.096 15.3027 179.251 15.2124C179.41 15.1178 179.535 14.9888 179.625 14.8254C179.716 14.662 179.761 14.4771 179.761 14.2707C179.761 14.0642 179.716 13.8793 179.625 13.7159C179.535 13.5525 179.41 13.4257 179.251 13.3353C179.096 13.2407 178.916 13.1934 178.709 13.1934C178.512 13.1934 178.333 13.2407 178.174 13.3353C178.015 13.4257 177.89 13.5525 177.8 13.7159C177.71 13.8793 177.664 14.0642 177.664 14.2707C177.664 14.4728 177.71 14.6555 177.8 14.8189C177.89 14.9824 178.015 15.1114 178.174 15.206C178.333 15.3006 178.512 15.3479 178.709 15.3479ZM178.284 14.8705V13.6579H178.761C178.89 13.6579 178.991 13.6901 179.064 13.7546C179.137 13.8191 179.174 13.9094 179.174 14.0255C179.174 14.0986 179.152 14.1653 179.109 14.2255C179.071 14.2857 179.017 14.333 178.948 14.3674L179.245 14.8705H179.006L178.735 14.4126H178.503V14.8705H178.284ZM178.735 13.8385H178.503V14.2449H178.729C178.879 14.2449 178.955 14.176 178.955 14.0384C178.955 13.9739 178.935 13.9245 178.896 13.8901C178.862 13.8557 178.808 13.8385 178.735 13.8385Z" fill="var(--fill-0, white)"/>
</g>
</svg>
