<svg preserveAspectRatio="none" width="100%" height="100%" overflow="visible" style="display: block;" viewBox="0 0 40 40" fill="none" xmlns="http://www.w3.org/2000/svg">
<g id="Group 13972">
<rect id="Rectangle 1589" x="0.75" y="0.75" width="38.5" height="38.5" stroke="var(--stroke-0, #2E2E2E)" stroke-width="1.5"/>
<path id="Vector 1" d="M7.91667 39.5833C6.45832 34.6248 5.55343 32.299 1.25 28.75" stroke="var(--stroke-0, #2E2E2E)" stroke-width="1.5"/>
<path id="Vector 2" d="M11.2474 39.1668C11.2474 39.1668 11.0312 35.0503 10.4141 32.5002C9.26712 27.7608 5.77218 26.0643 4.9974 21.2502C4.21488 16.388 6.66406 12.0835 6.66406 8.75016C6.66406 5.3292 2.91406 0.833496 2.91406 0.833496" stroke="var(--stroke-0, #2E2E2E)" stroke-width="1.5"/>
<path id="Vector 3" d="M7.5 0.833333C7.5 0.833333 12.9012 4.95546 13.75 9.16667C14.6156 13.4616 11.3161 14.8828 11.25 18.75C11.1595 24.0495 13.9896 26.1555 15 30.8333C15.7288 34.2073 16.25 39.1667 16.25 39.1667" stroke="var(--stroke-0, #2E2E2E)" stroke-width="1.5"/>
<path id="Vector 4" d="M15.4141 0.833496C15.4141 0.833496 20.8307 9.5835 22.4974 9.5835C24.5812 9.5835 25.5934 8.64534 26.2474 6.66683C26.942 4.56545 24.9974 0.833496 24.9974 0.833496" stroke="var(--stroke-0, #2E2E2E)" stroke-width="1.5"/>
<path id="Vector 5" d="M39.1684 34.5831C39.1684 34.5831 35.4184 33.3332 31.6684 26.6664C29.2422 22.3531 27.9185 17.9165 25.8351 15.4164C23.9149 13.1121 20.0011 13.7499 18.3344 14.9998C16.8436 16.1178 15.4861 19.2487 16.6684 22.4999C18.3351 27.083 23.7287 28.188 23.7517 31.6664C23.7725 34.7963 22.5017 39.5831 22.5017 39.5831" stroke="var(--stroke-0, #2E2E2E)" stroke-width="1.5"/>
<path id="Vector 6" d="M36.2515 39.1665C30.0015 32.9165 27.501 19.1664 22.9186 19.1665C20.86 19.1665 19.5809 22.0832 21.6661 23.7498C26.5192 27.6288 28.143 32.8801 27.9193 39.1665" stroke="var(--stroke-0, #2E2E2E)" stroke-width="1.5"/>
<path id="Vector 7" d="M39.1683 23.3335C39.1683 23.3335 32.9878 18.4037 31.2496 13.7502C29.6302 9.41455 30.4183 0.833496 30.4183 0.833496" stroke="var(--stroke-0, #2E2E2E)" stroke-width="1.5"/>
<path id="Vector 8" d="M39.1667 15.4167C34.9571 10.7068 33.9812 7.51298 33.75 0.833333" stroke="var(--stroke-0, #2E2E2E)" stroke-width="1.5"/>
</g>
</svg>
