<svg preserveAspectRatio="none" width="100%" height="100%" overflow="visible" style="display: block;" viewBox="0 0 24 24" fill="none" xmlns="http://www.w3.org/2000/svg">
<g id="Frame">
<path id="Vector" d="M21.7959 7.54594L9.79594 19.5459C9.69142 19.6508 9.56723 19.734 9.43048 19.7908C9.29374 19.8476 9.14713 19.8768 8.99906 19.8768C8.851 19.8768 8.70439 19.8476 8.56764 19.7908C8.4309 19.734 8.3067 19.6508 8.20219 19.5459L2.95219 14.2959C2.84754 14.1913 2.76453 14.0671 2.7079 13.9303C2.65126 13.7936 2.62211 13.6471 2.62211 13.4991C2.62211 13.3511 2.65126 13.2045 2.7079 13.0678C2.76453 12.9311 2.84754 12.8068 2.95219 12.7022C3.05683 12.5975 3.18107 12.5145 3.3178 12.4579C3.45452 12.4013 3.60107 12.3721 3.74906 12.3721C3.89706 12.3721 4.0436 12.4013 4.18033 12.4579C4.31706 12.5145 4.44129 12.5975 4.54594 12.7022L9 17.1563L20.2041 5.95406C20.4154 5.74272 20.7021 5.62399 21.0009 5.62399C21.2998 5.62399 21.5865 5.74272 21.7978 5.95406C22.0092 6.16541 22.1279 6.45205 22.1279 6.75094C22.1279 7.04982 22.0092 7.33647 21.7978 7.54781L21.7959 7.54594Z" fill="var(--fill-0, white)"/>
</g>
</svg>
