<svg preserveAspectRatio="none" width="100%" height="100%" overflow="visible" style="display: block;" viewBox="0 0 48 48" fill="none" xmlns="http://www.w3.org/2000/svg">
<g id="Frame">
<path id="Vector" d="M24 4.875C20.2174 4.875 16.5198 5.99666 13.3747 8.09814C10.2296 10.1996 7.77833 13.1865 6.3308 16.6812C4.88328 20.1758 4.50454 24.0212 5.24248 27.7311C5.98042 31.441 7.8019 34.8487 10.4766 37.5234C13.1513 40.1981 16.559 42.0196 20.2689 42.7575C23.9788 43.4955 27.8242 43.1167 31.3188 41.6692C34.8135 40.2217 37.8004 37.7704 39.9019 34.6253C42.0033 31.4802 43.125 27.7826 43.125 24C43.119 18.9296 41.1022 14.0685 37.5168 10.4832C33.9315 6.89782 29.0704 4.88095 24 4.875ZM24 40.875C20.6624 40.875 17.3998 39.8853 14.6248 38.031C11.8497 36.1768 9.68676 33.5413 8.40953 30.4578C7.1323 27.3743 6.79812 23.9813 7.44925 20.7079C8.10037 17.4344 9.70756 14.4276 12.0676 12.0676C14.4276 9.70756 17.4344 8.10037 20.7079 7.44925C23.9813 6.79812 27.3743 7.1323 30.4578 8.40953C33.5413 9.68676 36.1768 11.8497 38.031 14.6248C39.8853 17.3998 40.875 20.6624 40.875 24C40.87 28.474 39.0905 32.7633 35.9269 35.9269C32.7633 39.0905 28.474 40.87 24 40.875ZM32.4975 13.9931L20.4975 19.9931C20.2791 20.1021 20.1021 20.2791 19.9931 20.4975L13.9931 32.4975C13.9075 32.669 13.8671 32.8596 13.8758 33.0512C13.8845 33.2427 13.9421 33.4288 14.043 33.5919C14.1438 33.7549 14.2847 33.8895 14.4522 33.9828C14.6197 34.0761 14.8083 34.1251 15 34.125C15.1743 34.1247 15.3463 34.0843 15.5025 34.0069L27.5025 28.0069C27.7209 27.8979 27.8979 27.7209 28.0069 27.5025L34.0069 15.5025C34.1125 15.2913 34.149 15.0522 34.1112 14.8192C34.0733 14.5861 33.9631 14.3708 33.7962 14.2038C33.6292 14.0369 33.4139 13.9267 33.1808 13.8888C32.9478 13.851 32.7087 13.8875 32.4975 13.9931ZM26.1619 26.1619L17.5162 30.4838L21.8287 21.8381L30.4744 17.5256L26.1619 26.1619Z" fill="var(--fill-0, #2E2E2E)"/>
</g>
</svg>
